<?xml version="1.0" encoding="utf-8"?>
<!-- Generator: Adobe Illustrator 24.1.1, SVG Export Plug-In . SVG Version: 6.00 Build 0)  -->
<svg version="1.1" id="Layer_1" xmlns="http://www.w3.org/2000/svg" xmlns:xlink="http://www.w3.org/1999/xlink" x="0px" y="0px"
	 viewBox="0 0 1000 1000" enable-background="new 0 0 1000 1000" xml:space="preserve">
<g>
	<ellipse id="Floor_1_" fill="#F5F5F5" cx="500" cy="681.15" rx="497.87" ry="287.44"/>
	<ellipse id="Shadow_29_" fill="#E0E0E0" cx="828.27" cy="740.57" rx="141.24" ry="81.54"/>
	<polygon id="Shadow_28_" fill="#E0E0E0" points="470.82,784.55 311.49,692.54 493.61,587.4 652.95,679.4 	"/>
	<polygon id="Shadow_27_" fill="#E0E0E0" points="36.97,756.08 242.46,874.73 414.83,775.25 209.34,656.6 	"/>
	<g id="Shelf_2_">
		<g id="Shelf">
			<path fill="#F0F0F0" d="M340.83,198.44v-11.67h-0.01c-0.04-1.11-0.81-2.24-2.34-3.11l-70.5-40.46c-2.99-1.72-7.85-1.72-10.84,0
				L54.47,259.51c-1.52,0.87-2.3,2-2.34,3.11h-0.01v11.67h0.01c0.04,1.11,0.81,2.24,2.34,3.11l70.5,40.46
				c2.99,1.72,7.85,1.72,10.84,0l202.68-116.31C340.01,200.67,340.79,199.55,340.83,198.44L340.83,198.44z"/>
			<path fill="#FAFAFA" d="M54.47,265.73l70.5,40.46c2.99,1.72,7.85,1.72,10.84,0l202.68-116.31c2.99-1.72,2.99-4.5,0-6.22
				l-70.5-40.46c-2.99-1.72-7.85-1.72-10.84,0L54.47,259.51C51.48,261.23,51.48,264.01,54.47,265.73z"/>
			<path fill="#E0E0E0" d="M130.38,307.49v11.67c-1.95,0-3.9-0.45-5.41-1.29l-70.51-40.46c-1.53-0.87-2.3-2.02-2.33-3.11h-0.02
				v-11.67h0.02c0.02-0.44,0.19-0.89,0.44-1.32c-0.82,1.51-0.2,3.23,1.88,4.43l70.51,40.46
				C126.45,307.07,128.43,307.49,130.38,307.49z"/>
		</g>
		<g id="Book_2_">
			<g id="XMLID_866_">
				<polygon id="XMLID_871_" fill="#E0E0E0" points="168.26,208.81 227.99,242.86 326.67,186.23 266.94,152.17 				"/>
				<path id="XMLID_870_" fill="#FFFFFF" d="M228.67,240.27l-57.62-33.07c1.51-4.27,1.39-9.26-0.31-14.94l57.25,32.72
					C227.99,224.98,229.09,228.59,228.67,240.27z"/>
				<path id="XMLID_869_" fill="#EBEBEB" d="M225.05,220.31c3.06,1.75,5.54,6.02,5.54,9.53v11.14c0,3.51-2.48,4.93-5.54,3.18
					l-56.79-32.59l-0.01-2.76l56.03,31.95c1.83,1.05,3.32,0.2,3.32-1.91l-0.05-10.32c0-2.11-1.49-4.67-3.33-5.72l-55.96-31.96v-3.13
					L225.05,220.31z"/>
				<path id="XMLID_868_" fill="#FAFAFA" d="M168.26,187.73l98.68-56.63l56.78,32.59c3.06,1.75,5.54,6.02,5.54,9.53l0,11.14
					c0,1.75-0.62,2.98-1.62,3.56l-98.68,56.63c1.01-0.58,1.62-1.81,1.62-3.56l0.01-11.14c0-3.51-2.48-7.78-5.54-9.53L168.26,187.73z
					"/>
				<path id="XMLID_867_" fill="#F0F0F0" d="M228.97,224.42c1,1.73,1.62,3.67,1.62,5.42l-0.01,11.14c0,1.75-0.62,2.98-1.62,3.56
					l98.68-56.63c1.01-0.58,1.62-1.81,1.62-3.56l0-11.14c0-1.75-0.62-3.7-1.62-5.42L228.97,224.42z"/>
			</g>
		</g>
		<g id="Book_1_">
			<polygon id="XMLID_2995_" fill="#EBEBEB" points="107.53,124.06 106.97,131.6 173.66,167.37 175.16,162.98 			"/>
			<polygon id="XMLID_2993_" fill="#FFFFFF" points="174.27,164.73 109.67,127.44 98.44,133.93 164.31,172.46 			"/>
			<path id="XMLID_2991_" fill="#E0E0E0" d="M152.18,168.47l-6.39,74.86c0,1.53,1.07,3.38,2.39,4.15l37.47,21.69
				c0.54,0.31,1.24,0.5,1.95,0.55l-23.29-94.82c-0.71-0.06-1.4-0.23-1.95-0.54l-2.7-1.57L152.18,168.47z"/>
			<path id="XMLID_2990_" fill="#F0F0F0" d="M167.16,174.35l6.68-5.72l4.91-4.2c0.5-0.8,1.09-1.4,0.77-2.05l22.98,94.14l0.04,0.07
				c0.32,0.66,0.41,2.14-0.5,2.66l-11.59,9.92c-0.78,0.45-1.84,0.64-2.85,0.55l-23.29-94.82
				C165.31,174.98,166.37,174.8,167.16,174.35z"/>
			<path id="XMLID_2988_" fill="#FAFAFA" d="M178.75,161.66c1.32,0.76,0.99,1.62,0,2.77l-11.59,9.92c-1.32,0.76-3.47,0.76-4.79,0
				l-10.19-5.88c-1.32-0.76-1.56-1.87-0.52-2.46c1.03-0.6,2.94-0.46,4.27,0.3l8.04,4.64c0.44,0.25,1.16,0.25,1.6,0l8.47-7.35
				c0.44-0.25,0.44-0.67,0-0.92l-66.5-38.61l3.19-1.84L178.75,161.66z"/>
		</g>
		<g id="Book">
			<g id="XMLID_777_">
				<polygon id="XMLID_856_" fill="#EBEBEB" points="88.28,127.67 151.82,164.38 151.82,285.27 88.28,248.57 				"/>
				<path id="XMLID_854_" fill="#FFFFFF" d="M149.78,166.39l-61.5-35.29c-3.17,3.66-7.86,6.22-14.06,7.69l60.98,35.14
					C135.19,173.93,139.13,173.01,149.78,166.39z"/>
				<path id="XMLID_852_" fill="#FAFAFA" d="M129.28,173.72c3.26,1.87,8.55,1.87,11.82,0l10.35-5.94c3.26-1.87,3.26-4.91,0-6.78
					l-60.61-34.78l-2.57,1.47l59.61,34.43c1.96,1.12,1.96,2.94,0,4.07l-9.62,5.46c-1.96,1.12-5.13,1.12-7.09,0l-59.59-34.36
					l-2.91,1.67L129.28,173.72z"/>
				<path id="XMLID_849_" fill="#EBEBEB" d="M68.68,138.93v120.89l60.61,34.78c3.26,1.87,8.56,1.87,11.82,0l10.36-5.94
					c1.62-0.94,2.44-2.16,2.44-3.39V164.38c0,1.23-0.82,2.46-2.44,3.39l-10.36,5.96c-3.26,1.87-8.56,1.87-11.82,0L68.68,138.93z"/>
				<path id="XMLID_801_" fill="#F0F0F0" d="M135.19,175.13c2.14,0,4.28-0.47,5.91-1.4l10.36-5.96c1.62-0.94,2.44-2.16,2.44-3.39
					v120.89c0,1.23-0.82,2.46-2.44,3.39l-10.36,5.94c-1.63,0.94-3.77,1.4-5.91,1.4V175.13z"/>
			</g>
		</g>
	</g>
	<g id="Plants_1_">
		<path fill="none" stroke="#27DEBF" stroke-width="1.868" stroke-miterlimit="10" d="M646.56,613.85
			c-1.44-25.36-12.67-76.12,2.13-122.97c7.52-23.81,24.79-49.03,50.51-56.14c9.1-2.51,20.35-2.18,24.82,8.19
			c0.75,1.74,1.17,3.62,1.31,5.51c0.56,7.88-3.02,14.85-7.01,21.28c-9.11,14.72-20.68,27.79-29.91,42.43
			c-4.89,7.76-9.09,15.91-12.72,24.31"/>
		<path fill="none" stroke="#27DEBF" stroke-width="1.868" stroke-miterlimit="10" d="M645.95,630.42c0,3.04,0.8,6.85,0.13,9.75
			c-0.2,0.88-0.38,1.83-0.01,2.65s1.56,1.3,2.2,0.68c0.47-0.45,0.96-3.72,1.26-4.55c0.64-1.77,1.61-3.49,2.44-5.17
			c1.68-3.42,3.48-6.79,5.38-10.09c3.92-6.82,8.3-13.38,13.08-19.62c9.42-12.3,20.44-23.38,32.73-32.81
			c13.34-10.24,28.1-18.55,41.14-29.16c3.84-3.13,7.67-6.66,9.32-11.33c2.46-6.98-0.81-15.13-6.61-19.73
			c-5.8-4.6-13.6-6.05-20.98-5.5c-7.06,0.52-16.58,3.56-24.38,7.82c-15.91,8.67-26.85,22.09-35.59,37.3
			c-11.67,20.29-18.32,43.39-20.12,66.69C645.95,621.7,645.95,626.06,645.95,630.42z"/>
		
			<path fill="none" stroke="#27DEBF" stroke-width="1.868" stroke-linecap="round" stroke-linejoin="round" stroke-miterlimit="10" d="
			M736.78,518.2c-30.11,8.62-74.74,43.2-90.83,107.39"/>
		
			<path fill="none" stroke="#27DEBF" stroke-width="1.868" stroke-linecap="round" stroke-linejoin="round" stroke-miterlimit="10" d="
			M705.82,448.46c-16.25,12.94-55.07,53.91-59.96,120.16"/>
	</g>
	<g id="Bookshelf_2_">
		<g>
			<path fill="#263238" d="M639.97,307.33L522.32,239.5c-2.5-1.44-4.76-1.58-6.39-0.63c-1.52,0.88-6.95,4.02-8.47,4.89
				c-1.65,0.94-2.67,2.97-2.67,5.87l0,321.97c0,5.77,4.05,12.78,9.04,15.66l117.65,67.83c2.5,1.44,4.76,1.58,6.39,0.63
				c1.52-0.88,6.98-4.02,8.51-4.91c1.63-0.95,2.63-2.97,2.63-5.85V322.99C649.02,317.22,644.97,310.21,639.97,307.33z"/>
			<g>
				<path fill="#263238" d="M530.23,577.14l-8.48,4.9l0,26.78c0,1.44,1.01,3.2,2.26,3.92l3.96,2.29c1.25,0.72,3.27,0.72,4.52,0
					l3.96-2.29c1.25-0.72,2.64-2.41,3.12-3.77l7.63-22.02L530.23,577.14z"/>
				<path fill="#37474F" d="M521.75,608.82c0,1.44,1.01,3.2,2.26,3.92l3.96,2.29c1.25,0.72,2.64,0.2,3.12-1.16l7.63-22.02
					l-16.97-9.8L521.75,608.82z"/>
			</g>
			<g>
				<path fill="#263238" d="M615.07,626.01l-8.48,4.9l0,26.78c0,1.44,1.01,3.2,2.26,3.92l3.96,2.29c1.25,0.72,3.27,0.72,4.52,0
					l3.96-2.29c1.25-0.72,2.64-2.41,3.12-3.77l7.63-22.02L615.07,626.01z"/>
				<path fill="#37474F" d="M606.59,657.69c0,1.44,1.01,3.2,2.26,3.92l3.96,2.29c1.25,0.72,2.64,0.2,3.12-1.16l7.63-22.02
					l-16.97-9.8L606.59,657.69z"/>
			</g>
			<path fill="#37474F" d="M514.43,244.56l117.65,67.83c4.99,2.88,9.04,9.9,9.04,15.66v321.97c0,2.88-1.01,4.91-2.65,5.85
				c-1.64,0.94-3.9,0.81-6.39-0.63l-117.65-67.83c-4.99-2.88-9.04-9.9-9.04-15.66l0-321.97c0-2.9,1.02-4.93,2.67-5.87
				C509.69,242.98,511.94,243.12,514.43,244.56z"/>
		</g>
		<g id="Bottom_1_">
			<polygon fill="#455A64" points="343.59,684.78 470.84,758.25 649,655.4 640.52,650.5 513.26,577.03 343.59,674.99 			"/>
			<polygon fill="#263238" points="470.84,758.25 470.84,748.46 649,645.6 649,655.4 			"/>
		</g>
		<g>
			<path fill="none" stroke="#FAFAFA" stroke-width="1.5664" stroke-miterlimit="10" d="M471,743.56
				c23.8-36.01,22.48-99.67,20.43-110.41c0,0,10.04,67.29,22.4,86.51"/>
			<path fill="none" stroke="#FAFAFA" stroke-width="1.5664" stroke-miterlimit="10" d="M495.67,657.6
				c4.09,19.62,50.51,33.47,50.51,33.47"/>
			<path fill="none" stroke="#FAFAFA" stroke-width="1.5664" stroke-miterlimit="10" d="M491.09,677.12
				c1.31-3.18,7.76-3.63,8.99,1.55c0,0,0.75-9.53,6.12-6.83"/>
			<path fill="none" stroke="#FAFAFA" stroke-width="1.5664" stroke-miterlimit="10" d="M489.25,691.07
				c2.39-5.12,11.19-7.93,15.06,4.21c0,0,0.58-21.72,14.95-15.19"/>
			<path fill="none" stroke="#FAFAFA" stroke-width="1.5664" stroke-miterlimit="10" d="M485.16,710.3
				c5.04-9.69,18.85-13.56,22.4-4.62c0.08-11.04,12.72-24.95,28.14-18.26"/>
			<path fill="none" stroke="#FAFAFA" stroke-width="1.5664" stroke-miterlimit="10" d="M476.63,733.64
				c5.91-10.74,20.41-30.13,33.05-22.32"/>
		</g>
		<g>
			<polygon fill="#263238" points="632.03,547.64 632.04,557.43 470.84,650.5 343.59,577.03 343.59,567.23 504.78,474.17 			"/>
			<polygon fill="#455A64" points="632.03,547.64 470.84,640.7 343.59,567.23 504.78,474.17 			"/>
		</g>
		<g>
			<polygon fill="#263238" points="632.03,439.88 632.04,449.67 470.84,542.74 343.59,469.27 343.59,459.47 504.78,366.41 			"/>
			<polygon fill="#455A64" points="632.03,439.88 470.84,532.94 343.59,459.47 504.78,366.41 			"/>
		</g>
		<g id="Side_1_">
			<path fill="#263238" d="M470.3,405.17l-117.65-67.83c-2.5-1.44-4.76-1.58-6.39-0.63c-1.52,0.88-6.95,4.02-8.47,4.89
				c-1.65,0.94-2.67,2.97-2.67,5.87l0,321.97c0,5.77,4.05,12.78,9.04,15.66l117.65,67.83c2.5,1.44,4.76,1.58,6.39,0.63
				c1.52-0.88,6.98-4.02,8.51-4.91c1.63-0.95,2.63-2.97,2.63-5.85V420.84C479.34,415.07,475.29,408.06,470.3,405.17z"/>
			<polygon opacity="0.2" points="470.84,454.58 479.34,449.68 479.34,420.28 470.82,425.19 			"/>
			<polygon opacity="0.2" points="640.54,356.63 649.04,351.73 649.04,322.33 640.52,327.23 			"/>
			<g>
				<path fill="#263238" d="M360.55,674.99l-8.48,4.9l0,26.78c0,1.44,1.01,3.2,2.26,3.92l3.96,2.29c1.25,0.72,3.27,0.72,4.52,0
					l3.96-2.29c1.25-0.72,2.64-2.41,3.12-3.77l7.63-22.02L360.55,674.99z"/>
				<path fill="#37474F" d="M352.07,706.66c0,1.44,1.01,3.2,2.26,3.92l3.96,2.29c1.25,0.72,2.64,0.2,3.12-1.16l7.63-22.02
					l-16.97-9.8L352.07,706.66z"/>
			</g>
			<g>
				<path fill="#263238" d="M445.39,723.86l-8.48,4.9l0,26.78c0,1.44,1.01,3.2,2.26,3.92l3.96,2.29c1.25,0.72,3.27,0.72,4.52,0
					l3.96-2.29c1.25-0.72,2.64-2.41,3.12-3.77l7.63-22.02L445.39,723.86z"/>
				<path fill="#37474F" d="M436.91,755.54c0,1.44,1.01,3.2,2.26,3.92l3.96,2.29c1.25,0.72,2.64,0.2,3.12-1.16l7.63-22.02
					l-16.97-9.8L436.91,755.54z"/>
			</g>
			<path fill="#37474F" d="M344.15,342.25l117.65,67.83c4.99,2.88,9.04,9.9,9.04,15.66v321.97c0,2.88,0,10.54,0,10.54
				s-6.55-3.88-9.05-5.32l-117.65-67.83c-4.99-2.88-9.04-9.9-9.04-15.66l0-321.97c0-2.9,1.02-4.93,2.67-5.87
				C339.41,340.67,341.66,340.82,344.15,342.25z"/>
			<path opacity="0.2" d="M461.8,410.08l-117.65-67.83c-2.48-1.43-4.73-1.58-6.37-0.65c-1.65,0.94-2.67,2.97-2.67,5.87l0,28.74
				l135.74,78.37v-28.84C470.84,419.98,466.79,412.96,461.8,410.08z"/>
		</g>
		<g>
			
				<polyline fill="none" stroke="#FAFAFA" stroke-width="1.5664" stroke-linecap="round" stroke-linejoin="round" stroke-miterlimit="10" points="
				530.23,395.8 623.55,341.92 623.55,439.88 			"/>
			
				<polyline fill="none" stroke="#FAFAFA" stroke-width="1.5664" stroke-linecap="round" stroke-linejoin="round" stroke-miterlimit="10" points="
				606.58,415.39 623.55,341.92 589.61,400.7 			"/>
			
				<line fill="none" stroke="#FAFAFA" stroke-width="1.5664" stroke-linecap="round" stroke-linejoin="round" stroke-miterlimit="10" x1="623.55" y1="341.92" x2="572.65" y2="390.9"/>
			
				<path fill="none" stroke="#FAFAFA" stroke-width="1.5664" stroke-linecap="round" stroke-linejoin="round" stroke-miterlimit="10" d="
				M623.55,424.25c0.02-13.74-15.67-14.5-15.67-14.5c0.96-4.16-0.08-10.84-5.14-15.17c-5.06-4.32-8.48-1.95-9.5-0.18
				c0,0,1.06-12.62-9.85-13.85c0,0,7.24-13.35,0-15.46"/>
			
				<path fill="none" stroke="#FAFAFA" stroke-width="1.5664" stroke-linecap="round" stroke-linejoin="round" stroke-miterlimit="10" d="
				M623.55,403.14c-0.55-7.03-5.93-15.96-11.45-11.66c0,0,1.46-15.33-9.48-13.32c0,0,5.13-14.22-5.62-10.7c0,0,7.74-9.79,1.74-11.22
				"/>
		</g>
		<g id="Top_1_">
			<path fill="#37474F" d="M669.13,307.64c0.02-1.89-1.22-3.78-3.72-5.22L539.27,229.6c-4.99-2.88-13.09-2.88-18.09,0L327.18,341.6
				c-2.5,1.44-3.74,3.33-3.72,5.22c0.01,1.75,0.01,8.04,0,9.8c-0.02,1.89,1.22,3.78,3.72,5.22l126.14,72.82
				c4.99,2.88,13.09,2.88,18.09,0l194-112.01c2.5-1.44,3.74-3.33,3.72-5.22C669.11,315.69,669.11,309.39,669.13,307.64z"/>
			<path fill="#455A64" d="M453.32,424.87l-126.14-72.82c-4.99-2.88-4.99-7.56,0-10.44l194-112.01c4.99-2.88,13.09-2.88,18.09,0
				l126.14,72.83c4.99,2.88,4.99,7.56,0,10.44l-194,112.01C466.41,427.76,458.31,427.76,453.32,424.87z"/>
		</g>
		<g id="Shadows_1_">
			<polygon opacity="0.1" points="640.52,337.02 581.13,410.49 479.34,469.28 479.33,430.08 			"/>
			<polygon opacity="0.1" points="632.04,449.67 581.13,518.25 479.34,577.03 479.34,537.83 			"/>
			<polygon opacity="0.1" points="632.04,557.43 581.13,626.01 479.34,684.8 479.34,645.59 			"/>
		</g>
	</g>
	<g id="Box_1_">
		<g id="XMLID_51_">
			<polygon id="XMLID_69_" fill="#27DEBF" points="398.52,771.46 242.44,861.57 66.69,759.87 222.77,669.76 			"/>
			<polygon id="XMLID_68_" opacity="0.5" points="398.52,771.46 242.44,861.57 66.69,759.87 222.77,669.76 			"/>
			<polygon id="XMLID_67_" fill="#27DEBF" points="222.77,547.62 222.77,669.76 66.69,759.87 66.69,637.73 			"/>
			<polygon id="XMLID_66_" opacity="0.23" points="222.77,547.62 222.77,669.76 66.69,759.87 66.69,637.73 			"/>
			<polygon id="XMLID_65_" fill="#27DEBF" points="242.44,739.41 242.44,861.57 66.69,759.87 66.69,637.73 			"/>
			<polygon id="XMLID_64_" opacity="0.38" points="242.44,739.41 242.44,861.57 66.69,759.87 66.69,637.73 			"/>
			<polygon id="XMLID_63_" fill="#27DEBF" points="398.52,649.31 398.52,771.46 222.77,669.76 222.77,547.62 			"/>
			<polygon id="XMLID_62_" opacity="0.4" points="398.52,649.31 398.52,771.46 222.77,669.76 222.77,547.62 			"/>
			<polygon id="XMLID_61_" fill="#27DEBF" points="398.52,771.46 398.52,649.31 242.44,739.41 242.44,861.57 			"/>
			<polygon id="XMLID_60_" opacity="0.23" points="398.52,771.46 398.52,649.31 242.44,739.41 242.44,861.57 			"/>
			<polygon id="XMLID_59_" fill="#27DEBF" points="222.77,547.62 222.99,479.99 398.31,581.81 398.52,649.31 			"/>
			<polygon id="XMLID_58_" opacity="0.2" points="222.77,547.62 222.99,479.99 398.31,581.81 398.52,649.31 			"/>
			<polygon id="XMLID_57_" fill="#27DEBF" points="242.44,739.41 257.08,680.26 411.74,590.96 398.52,649.31 			"/>
			<polygon id="XMLID_56_" opacity="0.3" points="242.44,739.41 257.08,680.26 411.74,590.96 398.52,649.31 			"/>
			<polygon id="XMLID_55_" fill="#27DEBF" points="66.69,637.73 48.08,576.37 204.15,486.26 222.77,547.62 			"/>
			<polygon id="XMLID_54_" opacity="0.1" points="66.69,637.73 48.08,576.37 204.15,486.26 222.77,547.62 			"/>
			<polygon id="XMLID_53_" fill="#27DEBF" points="66.69,637.73 29.97,587.01 205.74,688.7 242.44,739.41 			"/>
			<polygon id="XMLID_52_" opacity="0.45" points="66.69,637.73 29.97,587.01 205.74,688.7 242.44,739.41 			"/>
		</g>
		<g id="XMLID_40_" opacity="0.7">
			<g id="XMLID_46_">
				<g id="XMLID_49_">
					<path id="XMLID_50_" fill="#FFFFFF" d="M288.4,825.24c-0.53,0-0.96-0.43-0.96-0.96v-21.49c0-0.53,0.43-0.96,0.96-0.96
						c0.53,0,0.96,0.43,0.96,0.96v21.49C289.36,824.81,288.93,825.24,288.4,825.24z"/>
				</g>
				<g id="XMLID_47_">
					<path id="XMLID_48_" fill="#FFFFFF" d="M285.59,810.23c-0.13,0-0.26-0.03-0.38-0.08c-0.49-0.21-0.71-0.78-0.5-1.26l3.42-7.89
						l3.81,4.4c0.35,0.4,0.3,1.01-0.1,1.36c-0.4,0.34-1.01,0.3-1.35-0.1l-1.81-2.09l-2.2,5.08
						C286.31,810.01,285.96,810.23,285.59,810.23z"/>
				</g>
			</g>
			<g id="XMLID_41_">
				<g id="XMLID_44_">
					<path id="XMLID_45_" fill="#FFFFFF" d="M297.27,820.18c-0.53,0-0.96-0.43-0.96-0.96v-21.49c0-0.53,0.43-0.96,0.96-0.96
						c0.53,0,0.96,0.43,0.96,0.96v21.49C298.23,819.75,297.8,820.18,297.27,820.18z"/>
				</g>
				<g id="XMLID_42_">
					<path id="XMLID_43_" fill="#FFFFFF" d="M294.46,805.17c-0.13,0-0.26-0.03-0.38-0.08c-0.49-0.21-0.71-0.78-0.5-1.26l3.41-7.88
						l3.81,4.39c0.35,0.4,0.3,1.01-0.1,1.35c-0.4,0.35-1,0.3-1.35-0.09l-1.81-2.09l-2.2,5.08
						C295.18,804.95,294.83,805.17,294.46,805.17z"/>
				</g>
			</g>
		</g>
		<g id="XMLID_33_" opacity="0.7">
			<g id="XMLID_38_">
				<path id="XMLID_39_" fill="#FFFFFF" d="M262.82,839.83c-0.37,0-0.73-0.09-1.05-0.27c-0.73-0.42-1.15-1.26-1.15-2.3v-2.63
					c0-0.53,0.43-0.96,0.96-0.96c0.53,0,0.96,0.43,0.96,0.96v2.63c0,0.39,0.11,0.6,0.18,0.64c0.07,0.05,0.3,0.03,0.63-0.17
					c0.85-0.49,1.78-2.39,1.78-4.34v-11c0-0.53,0.43-0.96,0.96-0.96c0.53,0,0.96,0.43,0.96,0.96v11c0,2.5-1.17,5.08-2.73,5.99
					C263.82,839.67,263.31,839.83,262.82,839.83z"/>
			</g>
			<g id="XMLID_34_">
				<path id="XMLID_35_" fill="#FFFFFF" d="M252.72,830.96v-1.66c0-7.81,5.5-17.35,12.27-21.25c3.46-1.99,6.77-2.29,9.3-0.82
					c2.54,1.46,3.93,4.47,3.93,8.46v0.55L252.72,830.96z M270.73,808.23c-1.44,0-3.07,0.5-4.78,1.49
					c-5.75,3.32-10.51,11.05-11.22,17.88l21.56-12.45c-0.11-3-1.15-5.21-2.96-6.26C272.56,808.45,271.69,808.23,270.73,808.23z"/>
			</g>
		</g>
		<polygon opacity="0.7" fill="#FFFFFF" points="29.97,587.01 205.74,688.7 242.44,739.41 203.79,690.49 		"/>
		<polygon opacity="0.7" fill="#FFFFFF" points="398.52,649.31 242.44,739.41 242.44,861.57 245.36,741.87 		"/>
	</g>
	<g id="Moth_2_">
		<g>
			<path fill="#E0E0E0" d="M169.48,600.45c16.1-2.33,30.81-12.64,40.15-25.74c4.35-6.1,7.65-12.92,9.52-20.18
				c1.72-6.66,2.68-14.14,0.98-20.91c-2.91-11.6-13.66-18.48-25.03-19.93c-5.73-0.73-11.66-0.2-17.13,1.69
				c-5.83,2.01-10.58,5.68-14.17,10.68c-1.86,2.6-3.82,5.83-3.9,9.13c-0.08,2.87,1.98,4.92,4.74,5.39c3.33,0.57,6.84-0.85,9.68-2.45
				c3.51-1.97,6.52-4.55,9.03-7.7c5.13-6.42,9.5-14.27,11.73-22.22c1.93-6.87,1.51-14.37,0.04-21.28c-1.5-7.06-4.43-14.28-9.6-19.47
				c-5.41-5.43-13.14-8.11-20.59-9.09c-7.56-0.99-15.52-0.31-22.74,2.19c-3.11,1.07-6.32,2.51-8.73,4.77
				c-1.82,1.7-3.89,4.5-3.15,7.24c0.83,3.05,4.76,3.97,7.49,3.62c3.98-0.51,7.78-2.99,10.6-5.74c3.11-3.03,5.9-6.73,7.97-10.55
				c1.52-2.82,2.46-5.95,2.39-9.18c-0.27-13.43-15.1-22.11-26.72-24.56c-3.15-0.66-6.34-0.87-9.55-0.63
				c-1.08,0.08-0.42,1.77,0.45,1.71c6.1-0.46,12.39,1.37,17.81,4.08c5.25,2.62,10.25,6.5,13.14,11.71
				c2.91,5.24,2.57,11.27-0.49,16.37c-2.1,3.49-4.64,7.04-7.66,9.78c-2.52,2.29-6.31,4.93-9.89,4.67c-1.05-0.08-2.39-0.58-2.79-1.75
				c-0.47-1.39,0.58-3,1.26-3.84c1.71-2.13,4.34-3.41,6.83-4.52c6.2-2.75,13.35-3.65,20.08-3.29c6.93,0.36,14.14,2.15,19.77,6.37
				c5.29,3.96,8.4,10.1,10.29,16.31c1.94,6.42,2.76,13.44,1.85,20.11c-0.92,6.79-4.16,13.29-7.67,19.09
				c-3.92,6.46-8.83,12.62-16.2,15.23c-1.82,0.65-5.63,1.6-6.36-1.05c-0.72-2.61,1.36-5.89,2.7-7.94
				c3.06-4.66,7.14-8.27,12.31-10.39c4.85-1.98,10.22-2.73,15.43-2.33c9.96,0.75,20.08,5.96,23.55,15.86
				c2.03,5.8,1.62,12.24,0.53,18.2c-1.2,6.58-3.65,12.92-7,18.7c-7.19,12.4-18.43,21.71-31.5,27.39c-3.13,1.36-6.39,2.49-9.63,3.57
				C168.95,599.65,169.1,600.5,169.48,600.45L169.48,600.45z"/>
		</g>
		<g>
			<path fill="#27DEBF" d="M102.22,416.74c-8.58-0.6-20.12,6.05-15.98,10.92c4.15,4.87,15.16-3.01,15.16-3.01s-1.04,9.84,2.56,10.95
				c3.6,1.11,8.37-8.26,4.86-14.26c0,0,5.41,2.4,10.52-1.37c5.11-3.77-0.31-7.31-7.52-6.68c0,0,5.16-16.87-5.27-13.69
				C101.4,401.18,99.55,407.31,102.22,416.74z"/>
			<path opacity="0.65" fill="#FFFFFF" d="M102.22,416.74c-8.58-0.6-20.12,6.05-15.98,10.92c4.15,4.87,15.16-3.01,15.16-3.01
				s-1.04,9.84,2.56,10.95c3.6,1.11,8.37-8.26,4.86-14.26c0,0,5.41,2.4,10.52-1.37c5.11-3.77-0.31-7.31-7.52-6.68
				c0,0,5.16-16.87-5.27-13.69C101.4,401.18,99.55,407.31,102.22,416.74z"/>
			<path fill="#455A64" d="M110.09,420.33c-0.46-0.46-0.96-0.89-1.48-1.29c-0.74-0.57-1.51-1.11-2.27-1.67
				c-0.72-0.53-1.48-0.99-2.27-1.42c-0.45-0.25-0.92-0.48-1.39-0.69c-0.73-0.32-1.37-0.44-2.17-0.34c-0.75,0.09-1.41,0.94-0.85,1.65
				c0.67,0.85,1.48,1.01,2.22,1.39c0.39,0.2,0.77,0.41,1.14,0.63c0.78,0.46,1.49,0.99,2.21,1.52c0.72,0.53,1.47,1.03,2.18,1.57
				c1.12,0.86,2.27,1.71,3.61,2.19c0.12,0.04,0.28,0.02,0.37-0.07C112.29,422.97,110.71,420.96,110.09,420.33z"/>
		</g>
	</g>
	<g id="Character_1_">
		<path fill="#FFA8A7" d="M784.68,183.97c-9.26,12.43-21.63,80.85-26.3,102.78c-22.5-0.65-52.58-1.7-63.98-2.9
			c-12.62-1.33-39.79-3.92-53.1-2.18c-33.03,4.32-31.71,25.94-30.95,31.59c0.88,6.49,5.51,9.44,23.19,5.41
			c3.96-0.9,8.05-1.35,12.11-1.43c1.73-0.03,5.33-0.86,6.69,0.6c2.03,2.2-3.99,5.66-5.51,6.65c-2.35,1.52-4.8,3.44-5.3,6.2
			c-0.18,1.02,0.01,2.24,0.88,2.8c0.77,0.5,1.78,0.32,2.67,0.11c8.1-1.91,15.95-4.9,23.27-8.86c2.84-1.54,5.63-3.23,8.71-4.22
			c4.59-1.48,9.32-0.6,13.95-0.6c9.92,0,62.36,5.19,85.68,7.56c16.14,1.64,17.87-14.31,23.43-30.44
			c6.92-20.06,23.11-125.38,23.11-125.38C806.9,169.34,795.68,169.2,784.68,183.97z"/>
		<path fill="#37474F" d="M823.47,170.06c-7.81-1.43-25.36-3.62-34.94,7.06c-9.58,10.68-11.83,21.91-16.05,38.08
			c-4.21,16.16-11.61,45.2-11.61,45.2s12.33,17.7,50.95,12.68L823.47,170.06z"/>
		<g id="XMLID_18_">
			<polygon id="XMLID_32_" fill="#FFA8A7" points="920.45,729.56 893.3,729.59 885.5,670.64 919.75,669.3 			"/>
			<path id="XMLID_31_" fill="#FFA8A7" d="M830.32,700.13c-4.63,8-19.45,7.35-31.82,4.52l-1.42-57.94l36.31-1.42L830.32,700.13z"/>
			<path id="XMLID_30_" fill="#27DEBF" d="M918.6,357.2c0.98,25.06-2.33,173.33-2.33,173.33c0.89,7.19,8.34,19.74,9.9,45.7
				c2.26,37.64-5.43,118.17-5.43,118.17s-15.55,8.13-32.3,1.91c0,0-17.06-116.45-23.23-153.56
				c-5.38-32.38-12.29-119.22-12.29-119.22l-13.39,111.31c0,0,3.75,17.6,3.04,39.97c-0.55,17.3-10.41,101.34-10.41,101.34
				s-16.55,6.2-34.74,0.84c0,0-8.1-130.43-9.02-146.24c-1.05-18.03-0.33-177.16-0.33-177.16L918.6,357.2z"/>
			<path id="XMLID_29_" opacity="0.2" d="M852.92,423.53c0,0-23.72-6.72-39.88-21.16c0,0,7.57,12.93,29.03,24.4l-1.23,97.14
				L852.92,423.53z"/>
			<g>
				<path id="XMLID_28_" fill="#263238" d="M862.27,778.72c-0.88,0.89-0.37,6.74,0.69,8.28c1.14,1.65,7.54,6.69,18.76,7.05
					c10.72,0.35,20.21-1.47,26.34-5.7c6.12-4.23,8.99-8.75,9.34-14.86c0.35-6.11-0.56-11.96,2.16-16.77
					c2.51-4.43,6.59-9.48,7.43-11.86c1.82-5.19-0.41-12.41-0.41-12.41L862.27,778.72z"/>
				<path id="XMLID_27_" fill="#455A64" d="M889.45,724.39c0.02,2.37-0.32,4.54-0.97,6.83c-1.36,4.78-3.55,9.32-6.02,13.66
					c-1.28,2.23-2.63,4.43-4.21,6.47c-3.08,3.98-6.98,7.29-10.26,11.12c-3.28,3.83-6.01,8.42-6.09,13.39
					c-0.13,8.4,9.09,10.9,16.14,11.87c7.54,1.04,15.51,0.33,22.73-2.04c8.04-2.63,13.65-9.15,14.68-17.31
					c0.3-2.34,0.06-4.72,0.24-7.07c0.42-5.37,3-10.36,5.95-14.93c1.71-2.65,3.59-5.24,4.69-8.18c1.98-5.28,0-11.05-1.6-16.17
					c-1.38-4.42-2.93-9.42-4.49-8.94c0,2.34,0.09,2.55-1.51,4.19c-2.02,2.07-2,5.06-4.15,6.9c0.93-2.76,0.95-3.92,1.32-6.03
					c0.11-0.63-0.11-1.89-0.57-2.35c-0.61-0.62-1.63-0.98-2.63-1.28c-3.34-0.99-6.79-1.63-10.28-1.92
					c-3.18-0.27-6.83-0.51-9.94,0.32c-0.96,0.25-1.88,0.75-2.44,1.54c-0.59,0.83-0.68,1.55-0.78,2.9
					C889.2,718.7,889.44,722.16,889.45,724.39z"/>
				<path id="XMLID_26_" fill="#F5F5F5" d="M881.4,746.68c3.03-2.46,10.03-2.77,13.87-2.51c4.81,0.33,8.76,1.85,11.02,3.39
					c1,0.68,2.37,0.5,3.19-0.38l0,0c0.99-1.06,0.83-2.74-0.38-3.55c-2.4-1.63-6.72-3.88-12.42-4.06
					c-9.44-0.29-12.14,1.43-12.14,1.43S880.37,743.94,881.4,746.68z"/>
				<path id="XMLID_25_" fill="#F5F5F5" d="M874.56,755.55c3.84-2.47,11.55-2.44,15.39-2.18c4.81,0.33,8.47,2.07,10.74,3.61
					c1,0.68,2.37,0.5,3.19-0.38l0,0c0.99-1.06,0.83-2.74-0.38-3.55c-2.4-1.63-7-4.23-12.69-4.41c-9.44-0.29-11.82,1.73-11.82,1.73
					S875.07,752.06,874.56,755.55z"/>
				<path id="XMLID_24_" fill="#F5F5F5" d="M900.09,730.42c-6.53-0.42-9.26,0.42-11.8,1.46c-1.62,0.99-2.61,3.66-1.52,4.28
					c2.05-1.25,5.8-1.88,10.44-1.85c3.11,0.02,7.07,1.12,10.29,2.4c0.82,0.33,1.79,0.79,2.64,1.22c1.15,0.58,2.57,0.08,3.06-1.08
					l0,0c0.42-0.99,0.03-2.13-0.92-2.66C909.96,732.89,905.37,730.75,900.09,730.42z"/>
			</g>
			<g>
				<path id="XMLID_23_" fill="#263238" d="M736.55,736.26c-0.97,1.81-0.88,5.3,0.06,7.55c0.95,2.25,12.15,9.29,27.72,8.98
					c15.57-0.31,26.53-6.06,32.64-9.7c6.11-3.64,12.3-4.08,20.01-4.15c7.71-0.08,17.99-3.43,19.84-6.94c1.86-3.51,0.21-9.8,0.21-9.8
					L736.55,736.26z"/>
				<path id="XMLID_22_" fill="#455A64" d="M801.5,690.78c-0.4-0.11-0.81-0.21-1.22-0.31c-0.67-0.17-1.36-0.33-2.04-0.21
					c-0.77,0.14-1.42,0.65-1.98,1.2c-1.76,1.74-2.87,4-4.26,6.04c-3.51,5.15-10.55,9.23-18.2,12.88c-5.2,2.49-10.27,4.36-15.62,6.47
					c-5.46,2.15-12.61,3.28-16.93,5.9c-6.29,3.82-7.56,14.1-0.82,18.5c5.82,3.8,21.4,8.36,38.14,4.46
					c9.12-2.12,19.57-11.27,31.43-11.63c7.54-0.23,21.85-1.67,26.96-7.14c1.91-2.45-0.1-10.58-1.73-17.6
					c-1.78-7.66-0.97-19.13-4.38-18.99l-0.21,3.83c-0.32,1.15-3.02,2.27-3.85,3.15c-1.02,1.07-2.04,2.15-3.05,3.22
					c-1.33,1.41-2.71,2.85-4.48,3.64c-3.04,1.36-6.57,0.55-9.79-0.28c-0.15-0.04,1.63-5.89,1.81-6.46c0.15-0.46,0.3-0.96,0.18-1.43
					c-0.13-0.47-0.52-0.83-0.91-1.13C807.74,692.72,804.79,691.65,801.5,690.78z"/>
				<path id="XMLID_21_" fill="#F5F5F5" d="M781.01,706.63c0,0,1.22-2.83,5.72-3.45c3.45-0.47,9.37,2.33,12.97,5.6
					c1.48,1.34,1.16,3.73-0.63,4.61l0,0c-1.06,0.52-2.33,0.31-3.18-0.51C793.54,710.63,788.21,706.47,781.01,706.63z"/>
				<path id="XMLID_20_" fill="#F5F5F5" d="M770.14,712.06c0,0,2.37-3.35,6.74-3.07c0,0,8.92,0.68,14.2,6.09
					c1.35,1.38,1.14,3.61-0.59,4.46v0c-1.03,0.5-2.25,0.3-3.07-0.5C785.03,716.69,780.26,711.78,770.14,712.06z"/>
				<path id="XMLID_19_" fill="#F5F5F5" d="M758.18,716.85c0,0,2.61-3.01,6.97-2.74c0,0,8.3,0.71,13.58,6.12
					c1.35,1.38,1.14,3.61-0.59,4.46l0,0c-1.03,0.5-2.25,0.3-3.07-0.5C772.7,721.85,768.31,716.58,758.18,716.85z"/>
			</g>
		</g>
		<g id="XMLID_16_">
			<path id="XMLID_17_" fill="#455A64" d="M868.73,170.53c9.99,1.13,21.81,1.75,31.34,3c12.29,1.61,21.89,14.33,24.88,34
				c3.3,21.68-10.51,83.8-10.51,83.8l4.42,73.25c-18.02,13.28-94.69,20.24-132.91-7.36c0,0,0.89-124.67,3.88-143.81
				c4.11-26.33,10.53-42.69,40.23-44.58L868.73,170.53z"/>
		</g>
		<g id="XMLID_13_">
			<path id="XMLID_15_" fill="#FFA8A7" d="M937,329.23c-3.24,5.42-6.49,10.82-9.84,16.18c-1.24,1.98-2.48,3.96-3.78,5.9
				c-0.46,0.7-1.78,2.09-2.44,2.55c-1.6,1.11-4.95,0.41-6.89,0.47c-9.56,0.31-19.1,1.01-28.61,2.09c-1.58,0.18-3.36,0.49-4.21,1.83
				c-0.97,1.53-0.12,3.68,1.35,4.74c1.47,1.06,3.35,1.31,5.15,1.52c2.75,0.33,5.5,0.66,8.26,0.99c1.16,0.14,2.39,0.31,3.3,1.05
				c3,2.44-2.73,5.36-4.45,6.55c-3.44,2.37-7.12,4.46-10.98,6.08c-17.2,7.25-19.3,12.5-16.13,18.46
				c2.76,5.19,14.65,24.04,44.85,7.81c12.16-6.54,30.69-27.19,39.12-37.18c12.16-14.41,32.7-46.58,32.7-46.58
				c11.68-16.04,13.19-22.62,13.45-29.3c0.26-6.68-35.99-57.93-48.28-75.92c-12.29-17.99-18.18-39.91-49.52-42.92
				c0,0-11.92,37.84,7.83,62.32l45.64,63.66C953.54,299.52,941.45,321.8,937,329.23z"/>
			<path id="XMLID_14_" fill="#37474F" d="M970.1,240.92c-5.85-8.47-11.97-17.18-17.88-25.81c-24.85-36.28-22.77-42.92-58.61-43.44
				c-3.17,4.88-5.06,25.81-0.28,46.85c4.02,17.68,18.98,30.13,18.98,30.13l17.95,24.32c0,0,10.98-0.34,24.15-9.99
				C967.58,253.32,970.1,240.92,970.1,240.92z"/>
		</g>
		<g id="XMLID_1_">
			<g id="XMLID_9_">
				<path fill="#263238" d="M892.35,75.17c-6.76-9.46-16.61-7.83-16.61-7.83l-1.85,45.43l-3,16.78l0.53,18.67
					c0,0,5.06-0.25,8.11-6.17c2.78-5.37,10.5-31.37,10.5-31.37l-0.03,0.03C897.1,89.39,895.6,79.73,892.35,75.17z"/>
				<path id="XMLID_12_" fill="#FFA8A7" d="M871.76,112.98c0.89-2.85,1.76-4.45,4.38-7.24c2.61-2.78,12.97-5.82,17.7,2.99
					c4.82,8.98-3.24,20.42-9.37,23.98c-7.86,4.56-12.47-1.65-12.47-1.65l0.18,41.82l0,0c-3.66,8.41-20.19,16.01-30.01,14.76
					c-7.84-1-15.06-7.16-8.06-16.14l-0.56-11.92c0,0-10.47,2.12-15.65,1.58c-8.63-0.9-14.35-7.39-17.41-16.53
					c-4.91-14.68-7.09-26.62-5-56.07c2.29-32.28,39.59-34.46,60.37-22.78C876.65,77.47,871.76,112.98,871.76,112.98z"/>
				<path id="XMLID_11_" fill="#263238" d="M783.61,55.1c-0.95-7.04,1.49-14.6,8.87-17.1c5.56-1.89,11.27-1.78,16.38,2.73
					c1.83-4.97,6.63-8.7,11.89-9.25c5.26-0.55,10.73,2.1,13.55,6.58c2.23-3.14,4.86-5.03,8.51-5.91c4.27-1.04,9.54,0.05,12.57,2.28
					c3.02,2.23,6.55,6.45,5.65,11.7c5.95-2.38,12.15-0.41,16.56,4.86c2.65,3.16,4.09,7.24,4.21,11.35c0.06,2-0.07,4.44-0.89,6.29
					c-0.86,1.93-2.6,3.2-3.09,5.38c-0.47,2.05-1.41,3.94-1.13,6.01c0.48,3.56,1.27,7.1,1.74,10.67c0.45,3.45,0.85,6.93,0.87,10.41
					c0.01,1.67-1.18,2.84-2.57,4.07c-2.26,2-2.77,3.05-4.45,6.46c-0.75,1.52-1.46,5.28-2.94,6.31c-4.51,3.15-5-7.06-5.22-9.02
					c-0.22-1.95-0.28-7.07,0.09-13.56c-1.45-0.09-7.4-0.19-12-5.52c-1.5-1.74-2.67-4.39-2.98-6.63c-0.2-1.44-0.42-2.7-0.35-4.15
					c-2.93,4.86-9.78,6.85-14.64,6.42c-8.18-0.74-10.98-4.23-12.3-6.8c-0.6,2.28-1.59,5.2-3.25,6.9c-2.09,2.14-4.87,3.43-7.32,4.26
					c-4.56,1.55-10-0.4-13.37-3.85c-3.32,4.77-11.74,2.64-13.6,1.3c-4.28-3.07-5.6-6.71-6.07-11.96
					c-0.46-5.24,1.65-11.18,7.44-13.24C784.69,59.98,783.94,57.58,783.61,55.1z"/>
				<path id="XMLID_10_" fill="#F28F8F" d="M833.55,159.58c0,0,18.92-4.8,25.43-8.68c4.35-2.6,7.83-6.9,8.78-9.6
					c0,0-0.97,5.73-4.71,11.04c-4.58,6.49-29.24,12.32-29.24,12.32L833.55,159.58z"/>
			</g>
			<g id="XMLID_2_">
				<path id="XMLID_8_" fill="#263238" d="M834.61,111.58c0.12,2.35,2.05,4.16,4.31,4.04c2.26-0.12,4-2.12,3.89-4.47
					c-0.12-2.35-2.05-4.16-4.31-4.04C836.23,107.23,834.49,109.23,834.61,111.58z"/>
				<path id="XMLID_7_" fill="#F28F8F" d="M828.28,142.19c0.15,3.03,2.64,5.36,5.55,5.21c2.92-0.15,5.16-2.73,5-5.76
					c-0.15-3.03-2.63-5.36-5.55-5.21C830.37,136.58,828.13,139.16,828.28,142.19z"/>
				<path id="XMLID_6_" fill="#263238" d="M838.02,97.49l8.72,4.26c1.13-2.5,0.09-5.48-2.31-6.66
					C842.01,93.92,839.15,94.99,838.02,97.49z"/>
				<path id="XMLID_5_" fill="#263238" d="M800.09,101.14l7.44-6.34c-1.69-2.14-4.72-2.45-6.78-0.7
					C798.7,95.85,798.4,99.01,800.09,101.14z"/>
				<path id="XMLID_4_" fill="#263238" d="M802.32,110.76c0.11,2.28,1.98,4.03,4.17,3.91c2.19-0.12,3.87-2.05,3.76-4.33
					c-0.11-2.28-1.98-4.03-4.17-3.91C803.89,106.55,802.21,108.48,802.32,110.76z"/>
				<polygon id="XMLID_3_" fill="#F28F8F" points="821.96,106.05 821.83,131.09 808.57,127.29 				"/>
			</g>
		</g>
		<g>
			<g>
				<path fill="#E0E0E0" d="M788.71,141.07c0.24-0.05,0.46-0.2,0.6-0.41c0.3-0.45,0.18-1.06-0.27-1.36l-11.5-7.66
					c-0.45-0.3-1.06-0.18-1.36,0.27c-0.3,0.45-0.18,1.06,0.27,1.36l11.5,7.66C788.19,141.09,788.46,141.13,788.71,141.07z"/>
			</g>
			<g>
				<path fill="#E0E0E0" d="M787.48,146.02c0.36-0.08,0.66-0.36,0.74-0.74c0.12-0.53-0.21-1.06-0.74-1.18l-13.46-3.12
					c-0.53-0.12-1.06,0.21-1.18,0.74c-0.12,0.53,0.21,1.06,0.74,1.18l13.46,3.12C787.19,146.05,787.34,146.05,787.48,146.02z"/>
			</g>
			<g>
				<path fill="#E0E0E0" d="M774.99,154.98c0.04-0.01,0.09-0.02,0.13-0.04l12.98-4.75c0.51-0.19,0.77-0.75,0.59-1.26
					c-0.19-0.51-0.79-0.76-1.26-0.59l-12.98,4.75c-0.51,0.19-0.77,0.75-0.59,1.26C774.02,154.82,774.51,155.08,774.99,154.98z"/>
			</g>
		</g>
		<g>
			<g>
				<path fill="#E0E0E0" d="M665.24,256.47c0.34,0.69,0.93,1.24,1.7,1.52c1.59,0.57,3.35-0.25,3.92-1.84l9.66-23.8
					c0.57-1.59-0.26-3.35-1.84-3.92c-1.59-0.57-3.35,0.25-3.92,1.84l-9.66,23.8C664.81,254.89,664.88,255.75,665.24,256.47z"/>
			</g>
			<g>
				<path fill="#E0E0E0" d="M649.36,256.44c0.51,1.02,1.57,1.72,2.79,1.7c1.69-0.02,3.04-1.42,3.02-3.11l-0.31-29.7
					c-0.02-1.68-1.41-3.04-3.11-3.02c-1.69,0.02-3.04,1.42-3.02,3.11l0.31,29.69C649.05,255.59,649.17,256.04,649.36,256.44z"/>
			</g>
			<g>
				<path fill="#E0E0E0" d="M622.42,239.88c0.06,0.12,0.13,0.24,0.2,0.35l14.58,21.17c0.95,1.41,2.85,1.78,4.25,0.83
					c1.4-0.95,1.72-2.96,0.83-4.25l-14.58-21.16c-0.95-1.41-2.85-1.78-4.25-0.83C622.16,236.85,621.75,238.53,622.42,239.88z"/>
			</g>
		</g>
	</g>
</g>
</svg>
