<?xml version="1.0" encoding="utf-8"?>
<!-- Generator: Adobe Illustrator 24.1.1, SVG Export Plug-In . SVG Version: 6.00 Build 0)  -->
<svg version="1.1" id="Layer_1" xmlns="http://www.w3.org/2000/svg" xmlns:xlink="http://www.w3.org/1999/xlink" x="0px" y="0px"
	 viewBox="0 0 1000 1000" enable-background="new 0 0 1000 1000" xml:space="preserve">
<g>
	<path fill="#E8F2FA" d="M952.61,811.08c-57.14,0-889.56,0.2-890.04-1.29l-0.08-0.19c0,0-0.08-0.18-0.08-0.28
		c-0.32-0.74-128.26-210.02,70.64-355.7c77.82-57-4.87-94.63,57.01-158.09c71.12-72.92,148.74,7.75,227.82-25.32
		c13.97-5.84,27.99-15.23,42.03-29.65c7.9-8.11,16.56-15.2,25.83-21.32c1.42-0.94,2.86-1.86,4.31-2.76
		c5.55-3.42,11.31-6.52,17.23-9.3c3.98-1.87,8.04-3.59,12.17-5.18h0c6.56-2.52,13.29-4.69,20.17-6.53
		c9.77-2.61,19.83-4.55,30.09-5.87c4.47-0.58,8.98-1.03,13.53-1.37c88.36-6.6,187.81,30.54,239.13,84.84
		c10.33,10.93,57.31,67.5,20.28,145.26c-23.38,49.09,74.58,95.98,109.38,152.04C1040.54,712.91,953.41,809.22,952.61,811.08z"/>
	<g opacity="0.8">
		<path fill="#D3E4FF" d="M440.3,432.46c0,7.7-0.69,15.24-2.03,22.57c-3.2,17.58-10.06,33.87-19.78,48.07
			c-22.56,33-60.5,54.66-103.5,54.66c-51.15,0-95.14-30.64-114.61-74.57c-2.57-5.79-4.71-11.81-6.38-18.02
			c-2.82-10.43-4.32-21.4-4.32-32.71c0-9.15,0.98-18.08,2.84-26.66c0.02-0.1,0.04-0.19,0.06-0.29
			c5.21-23.75,17.15-44.97,33.73-61.57c4.7-4.71,9.78-9.05,15.18-12.97c2.58-1.87,5.23-3.64,7.95-5.31
			c19.06-11.73,41.51-18.5,65.54-18.5c3.19,0,6.34,0.12,9.47,0.36c4.41,0.32,8.76,0.88,13.03,1.66
			c17.98,3.26,34.61,10.35,49.04,20.4h0.01c8.99,6.26,17.11,13.66,24.17,22c3.71,4.38,7.12,9.02,10.2,13.89
			c1.92,3.03,3.71,6.14,5.38,9.34c3.99,7.69,7.21,15.84,9.55,24.36C438.74,409.76,440.3,420.93,440.3,432.46z"/>
		<g>
			<path fill="#A9C2FF" d="M272.42,376.37c-5,7.92,2.09,21.67-12.91,17.92c-15-3.75-24.17-5.42-25,2.91
				c-0.84,8.34,11.25,8.34,11.25,17.09c0,8.75-5.42,11.64-13.75,7.49c-8.34-4.16-10.73-10.2-20.42-6.45s-15.31,1.25-17.5-6.25
				c-0.39-1.32-0.93-2.39-1.56-3.28c0.02-0.1,0.04-0.19,0.06-0.29c5.21-23.75,17.15-44.97,33.73-61.57
				c4.7-4.71,9.78-9.05,15.18-12.97c2.58-1.87,5.23-3.64,7.95-5.31c3.91,0.14,8.58,1.63,12.56,6.55
				c8.75,10.84,14.58,5.42,12.5,17.92c-2.09,12.5,1.25,14.17,8.33,13.75c7.08-0.42,15.42-0.42,16.25,5
				C299.92,374.28,277.42,368.45,272.42,376.37z"/>
			<path fill="#A9C2FF" d="M273.3,434.23c0,0-7.56,8.79-14.08,3.74c-6.52-5.05-4.55-8.21-14.09-5.05
				c-9.55,3.16-13.74-2.08-18.63,1.89c-4.89,3.98-0.92,4.48-4.31,12.91c-3.39,8.43-10.38,9.78-4.97,18.2
				c5.41,8.42,15.46,4.09,20.75,8.54c5.3,4.45,3.57,8.81,10.18,10.62c6.61,1.81,12.93-4.63,13.06,3.36
				c0.13,7.99-2.42,15.78,5.8,23.21c8.22,7.42,6.68,9.1,15.13,12.72c8.45,3.62,18.55,0.36,17.27-4.72
				c-1.28-5.08-12.17-6.1-12.39-11.83c-0.22-5.73,5.58-5.25,3.26-12.63c-2.32-7.37,4.16-11.35,1.97-16.12
				c-2.19-4.77-14.68-6.4-13.22-11.2c1.45-4.8,12.75-0.73,13.37-10.88c0.62-10.15-6.24-13.77-5.23-23.68
				C288.17,423.41,274.45,428.15,273.3,434.23z"/>
			<path fill="#A9C2FF" d="M440.3,432.46c0,7.7-0.69,15.24-2.03,22.57c-3.2,17.58-10.06,33.87-19.78,48.07
				c-3.31,1.09-6.69,1.06-10.02-0.27c-15.63-6.25-4.06-23.13,2.19-31.57c6.25-8.44-9.69-4.69-21.25-12.5
				c-11.56-7.81,1.25-28.75-10.63-25.31c-11.88,3.44-26.25,7.81-33.13-3.75c-6.88-11.56,6.25-13.44,0.31-23.13
				c-5.94-9.69,3.44-15.31,15.31-16.25c11.88-0.94,10.31-9.38,25-10.63c14.69-1.25,14.38,17.5,30.63,16.25
				c16.25-1.25,15.52,2.5,15.52,2.5c1.17-0.03,2.31,0.21,3.39,0.71C438.74,409.76,440.3,420.93,440.3,432.46z"/>
			<path fill="#A9C2FF" d="M426.28,374.8c-13.51,6.58-18.94-11.31-30.49-5.93c-11.64,5.42-9.61-5-18.77-11.67
				c-9.17-6.66-27.5,5.42-26.67-5c0.83-10.41,14.58-7.5,17.5-15.83c2.92-8.33,16.25-6.25,16.25-6.25c0.76-0.29,1.57-0.48,2.43-0.55
				c0,0,0-0.01,0.01,0c8.99,6.26,17.11,13.66,24.17,22c3.71,4.38,7.12,9.02,10.2,13.89C422.82,368.48,424.62,371.6,426.28,374.8z"/>
			<path fill="#A9C2FF" d="M312.43,338.86c0,0,7.08-10.22-4.17-13.24c-11.25-3.02-11.04,0.93-19.79,0
				c-8.75-0.93-12.19,5.84-5.63,13.24c6.56,7.4,11.88,21.59,17.81,14.02C306.59,345.32,305.45,339.59,312.43,338.86z"/>
		</g>
	</g>
	<g>
		<path fill="#6E97F0" d="M465.78,567.49l-19.19,228.21c0,0-2.01,13.83,8.28,13.86c16.92,0.04,84.21,0,84.21,0
			s-12.73-2.88-12.58-9.36c0.18-7.64,22.43-234.87,22.43-234.87L465.78,567.49z"/>
		<path fill="#89AEF9" d="M545.41,805.5c-3.33,0.01-68.47,0.12-84.95-0.09c-7.18-0.09-8.44-6.38-8.5-10.46
			c-0.03-1.95,0.22-3.4,0.22-3.4l0.5-5.93l1.27-15.12l1.12-13.36l1.44-17.16l1.22-14.49l13.64-162.16l83.15-2.16
			c0,0-9.37,95.09-16,164.31c-0.74,7.71-1.44,15.11-2.09,22.01c-0.21,2.2-0.41,4.36-0.61,6.46c-0.61,6.55-1.18,12.56-1.67,17.87
			c-0.26,2.8-0.5,5.4-0.71,7.78c-0.85,9.34-1.34,15.3-1.35,16.43c0,0.66,0.05,1.28,0.16,1.85
			C533.62,805.17,544.16,805.5,545.41,805.5z"/>
		<polygon fill="#A9C2FF" points="263.85,443.31 310.6,631.09 317,656.81 338.78,744.28 743.3,744.28 663.05,443.31 		"/>
		<polygon fill="#89AEF9" points="263.85,443.31 257.37,445.47 330.16,750.81 338.78,744.28 		"/>
		<polygon fill="#6E97F0" points="330.16,750.81 732.2,750.81 743.3,744.28 338.78,744.28 		"/>
		
			<rect x="471.35" y="805.5" transform="matrix(-1 -1.224647e-16 1.224647e-16 -1 1029.7365 1615.1427)" fill="#A9C2FF" width="87.05" height="4.14"/>
		<polygon fill="#4D86E3" points="536.26,750.81 535.81,753.97 453.95,770.51 455.07,757.15 455.61,750.81 		"/>
		<path opacity="0.4" fill="#4D86E3" d="M545.41,805.5c-3.33,0.01-68.47,0.12-84.95-0.09c-7.18-0.09-8.44-6.38-8.5-10.46
			l81.48-15.33c-0.85,9.34-1.34,15.3-1.35,16.43c0,0.66,0.05,1.28,0.16,1.85C533.62,805.17,544.16,805.5,545.41,805.5z"/>
		<polygon fill="#BDD4FF" points="263.85,443.31 663.05,443.31 727.82,685.19 324.07,685.19 		"/>
		<polygon fill="#6B98F6" points="708.99,674.71 335.22,674.71 321.86,621.5 316.7,600.91 314.59,592.52 300.86,537.84 
			300.15,534.99 292.89,506.09 289.65,493.16 286.88,482.12 280.38,456.26 648.76,456.26 655.9,482.12 658.93,493.16 662.5,506.09 
			685.99,591.29 685.99,591.29 687.98,598.51 688.9,601.86 705.12,660.68 		"/>
		<polygon fill="#5D7AFB" points="655.9,482.13 286.88,482.13 280.39,456.26 648.77,456.26 		"/>
		<g>
			<path fill="#E6F2FF" d="M295.63,467.95c-0.45-1.79,0.64-3.23,2.43-3.23c1.79,0,3.59,1.45,4.04,3.23
				c0.45,1.79-0.64,3.23-2.43,3.23C297.88,471.18,296.07,469.74,295.63,467.95z"/>
			<path fill="#E6F2FF" d="M306.37,467.95c-0.45-1.79,0.64-3.23,2.43-3.23c1.79,0,3.59,1.45,4.04,3.23
				c0.45,1.79-0.64,3.23-2.43,3.23C308.62,471.18,306.81,469.74,306.37,467.95z"/>
			<path fill="#E6F2FF" d="M317.94,467.95c-0.45-1.79,0.64-3.23,2.43-3.23c1.79,0,3.59,1.45,4.04,3.23
				c0.45,1.79-0.64,3.23-2.43,3.23C320.19,471.18,318.38,469.74,317.94,467.95z"/>
		</g>
		<polygon opacity="0.5" fill="#89AEF9" points="475.73,685.19 338.91,744.98 324.07,685.19 		"/>
	</g>
	<g>
		<g>
			<path fill="#FF912B" d="M356.76,380.65c-6.59,2.47-10.85,8.17-10.85,14.46v139.5c0,28.54,13.55,55.27,36.26,71.54l81.95,52.52
				c5.45,3.49,12.85,3.49,18.32,0l81.95-52.52c22.71-16.27,36.26-43,36.26-71.54V395.48c0-6.47-4.52-12.3-11.39-14.65
				C489.71,346.75,449.8,345.84,356.76,380.65L356.76,380.65z"/>
			<path fill="#FF7B35" d="M589.25,380.83c-48.46-16.59-82.78-25.3-115.98-25.87v306.32c3.22,0,6.41-0.87,9.16-2.62l81.95-52.52
				c22.71-16.27,36.26-43,36.26-71.54V395.48C600.64,389.01,596.12,383.18,589.25,380.83L589.25,380.83z"/>
		</g>
		<g>
			<g>
				<path fill="#FFD89B" d="M481.62,505.03h-18.64c-16.71,0-30.31-13.6-30.31-30.31v-3.62c0-16.72,13.6-30.32,30.31-30.32h18.64
					c16.72,0,30.32,13.6,30.32,30.32v3.62C511.94,491.43,498.34,505.03,481.62,505.03z M462.98,452.89
					c-10.03,0-18.19,8.16-18.19,18.2v3.62c0,10.03,8.16,18.19,18.19,18.19h18.64c10.04,0,18.2-8.16,18.2-18.19v-3.62
					c0-10.04-8.16-18.2-18.2-18.2H462.98z"/>
			</g>
			<path fill="#FFD89B" d="M475.83,589.7h-1.2c-35.58,0-64.43-28.85-64.43-64.43v-30.83c0-7.96,6.45-14.41,14.41-14.41h93.28
				c10.2,0,18.46,8.27,18.46,18.46v30.69C536.36,562.6,509.26,589.7,475.83,589.7z"/>
			<g>
				
					<ellipse transform="matrix(0.9436 -0.331 0.331 0.9436 -143.1048 185.5726)" fill="#FF7B35" cx="473.28" cy="512.93" rx="16.45" ry="16.45"/>
				<path fill="#FF7B35" d="M473.28,520.61L473.28,520.61c1.96,0,3.56,1.6,3.56,3.56v27.42c0,1.96-1.6,3.56-3.56,3.56l0,0
					c-1.96,0-3.56-1.6-3.56-3.56v-27.42C469.71,522.21,471.32,520.61,473.28,520.61z"/>
			</g>
		</g>
	</g>
	<g>
		<g>
			<path fill="#A9C2FF" d="M660.31,296.92c-1.8,0.68-2.97,2.24-2.97,3.96v38.18c0,7.81,3.71,15.13,9.92,19.58l22.43,14.37
				c1.49,0.96,3.52,0.96,5.01,0l22.43-14.37c6.22-4.45,9.92-11.77,9.92-19.58v-38.08c0-1.77-1.24-3.37-3.12-4.01
				C696.69,287.64,685.77,287.39,660.31,296.92L660.31,296.92z"/>
			<path opacity="0.4" fill="#4D86E3" d="M723.94,296.97c-13.26-4.54-22.66-6.92-31.74-7.08v83.84c0.88,0,1.76-0.24,2.51-0.72
				l22.43-14.37c6.22-4.45,9.92-11.77,9.92-19.58v-38.08C727.06,299.21,725.82,297.62,723.94,296.97L723.94,296.97z"/>
		</g>
		<g>
			<polygon fill="#FF912B" points="696.11,249.45 704.92,250.61 698.64,256.89 700.26,265.62 692.34,261.6 684.54,265.84 
				685.92,257.06 679.48,250.95 688.25,249.56 692.07,241.54 			"/>
			<polygon fill="#FF912B" points="696.11,401.19 704.92,402.35 698.64,408.63 700.26,417.37 692.34,413.34 684.54,417.58 
				685.92,408.81 679.48,402.69 688.25,401.3 692.07,393.28 			"/>
			<polygon fill="#FF912B" points="631.26,286.71 640.07,287.87 633.79,294.15 635.41,302.89 627.5,298.86 619.69,303.1 
				621.08,294.33 614.63,288.21 623.4,286.82 627.23,278.8 			"/>
			<polygon fill="#FF912B" points="761.86,286.71 770.66,287.87 764.39,294.15 766.01,302.89 758.09,298.86 750.29,303.1 
				751.67,294.33 745.22,288.21 754,286.82 757.82,278.8 			"/>
			<polygon fill="#FF912B" points="631.26,364.38 640.07,365.53 633.79,371.82 635.41,380.55 627.5,376.53 619.69,380.77 
				621.08,371.99 614.63,365.88 623.4,364.48 627.23,356.47 			"/>
			<polygon fill="#FF912B" points="761.86,364.38 770.66,365.53 764.39,371.82 766.01,380.55 758.09,376.53 750.29,380.77 
				751.67,371.99 745.22,365.88 754,364.48 757.82,356.47 			"/>
			<polygon fill="#FF912B" points="659.38,259.47 668.18,260.63 661.91,266.92 663.53,275.65 655.61,271.62 647.81,275.86 
				649.19,267.09 642.74,260.98 651.52,259.58 655.34,251.56 			"/>
			<polygon fill="#FF912B" points="734.76,259.47 743.57,260.63 737.29,266.92 738.91,275.65 730.99,271.62 723.19,275.86 
				724.57,267.09 718.13,260.98 726.9,259.58 730.72,251.56 			"/>
			<polygon fill="#FF912B" points="659.38,391.44 668.18,392.6 661.91,398.88 663.53,407.61 655.61,403.59 647.81,407.83 
				649.19,399.05 642.74,392.94 651.52,391.54 655.34,383.53 			"/>
			<polygon fill="#FF912B" points="734.76,391.44 743.57,392.6 737.29,398.88 738.91,407.61 730.99,403.59 723.19,407.83 
				724.57,399.05 718.13,392.94 726.9,391.54 730.72,383.53 			"/>
			<polygon fill="#FF912B" points="620.89,327.56 629.69,328.72 623.42,335.01 625.04,343.74 617.12,339.71 609.32,343.95 
				610.7,335.18 604.26,329.07 613.03,327.67 616.85,319.65 			"/>
			<polygon fill="#FF912B" points="774.57,327.56 783.38,328.72 777.11,335.01 778.73,343.74 770.81,339.71 763,343.95 
				764.39,335.18 757.94,329.07 766.71,327.67 770.54,319.65 			"/>
		</g>
	</g>
	<g>
		<g>
			<g>
				<g>
					<g>
						<path fill="#D1E4FC" d="M147.82,539.68c0.33,0.32,0.33,0.85,0.01,1.18c-0.32,0.33-0.85,0.33-1.18,0.01
							c-0.33-0.32-0.33-0.85-0.01-1.18C146.96,539.36,147.49,539.36,147.82,539.68z"/>
						<path fill="#D1E4FC" d="M145.11,542.42c0.33,0.32,0.33,0.85,0.01,1.18c-0.32,0.33-0.85,0.33-1.18,0.01
							c-0.33-0.32-0.33-0.85-0.01-1.18S144.78,542.1,145.11,542.42z"/>
						<path fill="#D1E4FC" d="M141.18,545.2c0.32-0.33,0.85-0.33,1.18-0.01c0.33,0.32,0.33,0.85,0.01,1.18
							c-0.32,0.33-0.85,0.33-1.18,0.01C140.86,546.05,140.86,545.52,141.18,545.2z"/>
					</g>
					<g>
						<path fill="#D1E4FC" d="M139.61,547.96c0.33,0.32,0.33,0.85,0.01,1.18c-0.32,0.33-0.85,0.33-1.18,0.01
							c-0.33-0.32-0.33-0.85-0.01-1.18C138.76,547.64,139.29,547.64,139.61,547.96z"/>
						<path fill="#D1E4FC" d="M136.9,550.7c0.33,0.32,0.33,0.85,0.01,1.18c-0.32,0.33-0.85,0.33-1.18,0.01
							c-0.33-0.32-0.33-0.85-0.01-1.18C136.05,550.38,136.58,550.37,136.9,550.7z"/>
						<path fill="#D1E4FC" d="M132.98,553.47c0.32-0.33,0.85-0.33,1.18-0.01c0.33,0.32,0.33,0.85,0.01,1.18
							c-0.32,0.33-0.85,0.33-1.18,0.01C132.66,554.33,132.66,553.8,132.98,553.47z"/>
					</g>
				</g>
				<g>
					<g>
						<path fill="#D1E4FC" d="M131.52,556.13c0.33,0.32,0.33,0.85,0.01,1.18c-0.32,0.33-0.85,0.33-1.18,0.01
							c-0.33-0.32-0.33-0.85-0.01-1.18C130.67,555.81,131.2,555.81,131.52,556.13z"/>
						<path fill="#D1E4FC" d="M128.81,558.87c0.33,0.32,0.33,0.85,0.01,1.18c-0.32,0.33-0.85,0.33-1.18,0.01
							c-0.33-0.32-0.33-0.85-0.01-1.18C127.96,558.54,128.49,558.54,128.81,558.87z"/>
						<path fill="#D1E4FC" d="M124.89,561.64c0.32-0.33,0.85-0.33,1.18-0.01c0.33,0.32,0.33,0.85,0.01,1.18
							c-0.32,0.33-0.85,0.33-1.18,0.01C124.57,562.5,124.57,561.97,124.89,561.64z"/>
					</g>
					<g>
						<path fill="#D1E4FC" d="M123.32,564.41c0.33,0.32,0.33,0.85,0.01,1.18c-0.32,0.33-0.85,0.33-1.18,0.01
							c-0.33-0.32-0.33-0.85-0.01-1.18C122.47,564.09,122.99,564.09,123.32,564.41z"/>
						<path fill="#D1E4FC" d="M120.61,567.14c0.33,0.32,0.33,0.85,0.01,1.18c-0.32,0.33-0.85,0.33-1.18,0.01
							c-0.33-0.32-0.33-0.85-0.01-1.18C119.76,566.82,120.28,566.82,120.61,567.14z"/>
						<path fill="#D1E4FC" d="M116.69,569.92c0.32-0.33,0.85-0.33,1.18-0.01c0.33,0.32,0.33,0.85,0.01,1.18
							c-0.32,0.33-0.85,0.33-1.18,0.01C116.37,570.77,116.36,570.25,116.69,569.92z"/>
					</g>
				</g>
			</g>
		</g>
		<g>
			<g>
				
					<ellipse transform="matrix(0.1626 -0.9867 0.9867 0.1626 -374.2 601.6846)" fill="#C0DBF9" cx="167.37" cy="521.29" rx="18.15" ry="18.15"/>
			</g>
			<g>
				<path fill="#E8F2FA" d="M161.55,514.01c0-3.22,2.61-5.82,5.82-5.82c3.22,0,5.82,2.61,5.82,5.82c0,3.22-2.61,5.82-5.82,5.82
					C164.15,519.84,161.55,517.23,161.55,514.01z"/>
				<path fill="#E8F2FA" d="M167.37,519.84c-5.63,0-10.19,4.56-10.19,10.19h20.39C177.56,524.4,173,519.84,167.37,519.84z"/>
			</g>
		</g>
		<g>
			<path fill="#C0DBF9" d="M101.67,577.3l-0.67-1.67c-0.72-1.79-2.45-2.95-4.38-2.95H84.21v7.87v33.61h51.32v-33.61h-29.04
				C104.37,580.55,102.46,579.27,101.67,577.3z"/>
			<g>
				<path fill="#E8F2FA" d="M117.54,591.62h-1.72c0.05-0.28,0.08-0.57,0.08-0.86v-0.59c0-2.7-2.2-4.9-4.9-4.9h-3.01
					c-2.7,0-4.9,2.2-4.9,4.9v0.59c0,0.29,0.03,0.58,0.08,0.86h-1.91c-1,0-1.8,0.81-1.8,1.8v7.87c0,4.45,3.61,8.06,8.06,8.06h4.76
					c4.19,0,7.58-3.39,7.58-7.58v-7.85C119.85,592.65,118.82,591.62,117.54,591.62z M110.23,599.54v3.66c0,0.32-0.26,0.58-0.58,0.58
					s-0.58-0.26-0.58-0.58v-3.66c-1.19-0.26-2.08-1.32-2.08-2.6c0-1.47,1.19-2.66,2.66-2.66c1.47,0,2.66,1.19,2.66,2.66
					C112.31,598.21,111.42,599.27,110.23,599.54z M113.94,590.76c0,0.3-0.04,0.59-0.13,0.86h-8.64c-0.08-0.27-0.13-0.56-0.13-0.86
					v-0.59c0-1.62,1.32-2.94,2.94-2.94H111c1.62,0,2.94,1.32,2.94,2.94V590.76z"/>
			</g>
		</g>
	</g>
	<g>
		<g>
			<path fill="#2A3967" d="M252.04,574.07c0,0,0.97-10.56-10.83-10.56c0,0,3.58,0.97,5.43,2.91c0,0-7.53-4.42-15.72,2.37
				c-8.19,6.79-3.1,23.82-5.59,27.05c-2.49,3.23-12.19,3.88-11,14.33c1.19,10.45,30.78,23.55,28.88,32.19c0,0,11.6-17.05,3.3-24.83
				c0,0,4.04,3.81,4.45,8.33c0,0,1.1-8.84-4.53-11.66c-4.98-2.5-9.05-11.65-8.62-13.28C238.25,599.29,252.04,574.07,252.04,574.07z"
				/>
			<path fill="#FFAE73" d="M240.42,624.78c0,0,8.82,36.47,17.47,43.76c5.2,4.38,20.67,14.44,20.67,14.44l-6.43,2.33
				c0,0-21.45-7.24-26.25-12.89c-4.8-5.65-17.95-33.94-17.95-33.94L240.42,624.78z"/>
			<path fill="#FF912B" d="M291.32,696.31l-2.07-5.13c-2.22-5.5-7.56-9.1-13.49-9.1h-38.22v24.25v103.53h158.09V706.32h-89.46
				C299.64,706.32,293.77,702.36,291.32,696.31z"/>
			<path fill="#26529F" d="M157.57,688.85c0.08,0.14,0.16,0.28,0.24,0.43c1.93,3.35,6.35,11.57,11.23,20.56
				c2.31,4.27,4.72,8.71,7.01,12.88c3.95,7.21,7.54,13.63,9.63,17.03c2.13,3.45,3.7,5.87,4.33,6.84c0.01,0.01,0.01,0.01,0.01,0.01
				c0.19,0.3,0.23,0.65,0.21,1c-0.22,3.04-0.16,6.07,0.14,9.04c2.94,29.25,22.66,44.92,22.66,44.92l5.86,0.87
				c0,0-8.3-30.75-10.74-48.13c-0.41-2.95-0.59-5.33-0.45-6.89c0.43-4.53-0.37-11.18-1.89-18.81c-2.71-13.57-7.67-30.21-11.99-43.54
				c-0.27-0.85-8.52-30.68-8.52-30.68c-6.92,6.05-32.17,8.55-32.17,8.55S148.85,673.33,157.57,688.85z"/>
			<path fill="#1E3865" d="M231.2,809.85h-24.48c0,0-0.59-3.73,0.69-6.56c1.23-2.72,2.97-2.8,0.22-7.06
				c1.56,1.6,6.55,2.26,10.09,1.79c0.43,0.7,2.8,5.42,4.24,6.46C223.58,805.63,230.71,805.22,231.2,809.85z"/>
			<path fill="#1E3865" d="M157.57,688.85c0.08,0.14,0.16,0.28,0.24,0.43c1.93,3.35,12.36,22.62,17.24,31.61
				c-5.65-23.24-1.72-46.47-1.72-46.47L157.57,688.85z"/>
			<path fill="#2A3967" d="M248.7,572.59c0.16-0.64-13.98,6.39-14.7,7.19c-6.63,7.36-4.74,16.95-0.95,17.05
				c2.43,0.06,1.96,4.1,1.96,4.1l27.11-11.47C262.13,589.46,258.87,570.42,248.7,572.59z"/>
			<path fill="#6B98F6" d="M239.59,619.3c0,0,4.13,8.24,3.61,14.93c0,0-4.97,7.85-17.88,9.84
				C225.33,644.07,236.42,619.3,239.59,619.3z"/>
			<path fill="#26529F" d="M176.65,664.74l0.08-4.58c-9.12,1.15-31.45-10.9-31.45-10.9s-9.54,6.35-10.85,24.47
				c-0.64,8.85-4.67,46.26-5.12,57.43c-0.16,4.05-0.22,6.94-0.24,8.09c0,0.01,0,0.01,0,0.01c-0.01,0.35-0.17,0.66-0.39,0.94
				c-1.89,2.4-3.52,4.94-4.94,7.58c-13.92,25.89-6.64,61.08-6.64,61.08l3.23-0.82c0,0,11.77-36.47,19.46-52.25
				c1.31-2.68,2.49-4.76,3.48-5.96c2.89-3.51,5.94-9.48,8.95-16.66C157.92,719.6,176.65,664.74,176.65,664.74z"/>
			<path fill="#1E3865" d="M136.59,809.85h-24.48c0,0-0.59-3.73,0.69-6.56c1.22-2.72,3.14-3.95,2.68-7.24
				c1.56,1.6,4.09,3.39,7.63,2.92c0.43,0.7,2.8,4.46,4.25,5.51C128.96,805.63,136.09,805.22,136.59,809.85z"/>
			<path fill="#6B98F6" d="M223.68,649.33c-3.29,0.56,0.54,3.17-3.99,3.67c-6.44,0.7-13.08,1.18-16.56,2.57
				c-1.27,0.51-2.12,1.13-2.38,1.93c-1.51,4.54-11.06,12.33-11.06,12.33c-42.62-1.94-45.36-20.93-45.36-20.93
				c27.66-26.86,51.19-41.51,70.64-43.32c4.73-0.44,11.11,0.15,14.11,1.48c6.8,3.03,10.53,12.24,10.53,12.24
				S236.17,647.2,223.68,649.33z"/>
			<path fill="#547CE6" d="M219.69,652.99c-6.44,0.7-13.08,1.18-16.56,2.57c-1.42-21.26,8.61-37.24,8.61-37.24
				S218.28,644.95,219.69,652.99z"/>
			<path fill="#FFAE73" d="M225.24,614.72c0,0-16.18-0.88-19.06,9.28c-2.88,10.16,5.4,50.72,7.18,54.91
				c3.25,7.62,19.61,30.32,19.61,30.32l5.24-2.72c0,0-10.53-33.23-12.89-36.52C221.64,664.83,230.09,619.14,225.24,614.72z"/>
			<path fill="#FFAE73" d="M238.21,706.51c0,0,1.35,1.18,2.44,2.51c1.09,1.33,0.13,1.81,3.26,7.83c0,0-0.16,0.84-0.84,0.68
				c-0.68-0.15-3.04-2.49-4.25-2.32c0,0-0.86,0.71-0.96,3.07c-0.09,2.21-0.1,7.09-0.48,8.01c-0.38,0.92-3.19-3.85-4.58-7.29
				c-1.21-3.02-0.03-13.2-0.03-13.2L238.21,706.51z"/>
			<path fill="#6B98F6" d="M202.99,637.59c0.04,0.24,15.32,2.81,24.87-2.04c0,0,7.98-25-3.42-23.81
				c-11.4,1.2-18.16,4.79-18.45,10.25C205.7,627.45,202.99,637.59,202.99,637.59z"/>
			<path fill="#FFAE73" d="M228.7,608.81c0.17,2.02,0.42,4.39,3.07,7.12c2.03,2.09,4.96,3.72,7.02,1.66
				c1.05-1.05,2.47-2.62,3.19-3.85c1.78-3.06,3.9-6.18,3.9-6.18l-9.16-8.03l-0.55-0.48c-2.4,4.19-4.76,6.2-6.82,7.74
				C228.72,607.26,228.64,608.03,228.7,608.81z"/>
			<path fill="#F99352" d="M245.87,607.56c0,0-2.12,3.12-3.9,6.18c-5.69-3.51-5.7-10.56-5.26-14.21L245.87,607.56z"/>
			<path fill="#FFAE73" d="M246.13,611.58c0,0-13.82-7.69-8.9-16.23c4.92-8.54,6.45-15.28,15.49-10.73
				c9.03,4.55,8.86,8.79,7.91,12.04C259.67,599.91,249.85,613.36,246.13,611.58z"/>
			<path fill="#2A3967" d="M262.96,591.69c-0.63-3.79-2.56-4.15-3.9-3.9c-5.11-8.44-13.45-5.15-13.45-5.15
				c-4.45,5.59-10.9,6.54-10.9,6.54s1.6,2.99,8.21,4.83c2.02,0.56,4.31,0.22,6.52-0.52c-4.59,2.56-9.38,3.54-9.38,3.54
				c8.71,0.8,17-7.17,17.86-8.02c0.4,1.23,1.11,3.82,0.68,5.71c-0.57,2.57-2.85,7.22-1.46,7.82
				C257.15,602.54,263.91,597.37,262.96,591.69z"/>
			<path fill="#FFAE73" d="M281.09,682.99c0,0-3.86,2.89-0.95,4.78c2.91,1.89,8.1,2.4,8.12,1.16
				C288.33,684.78,286.25,681.81,281.09,682.99z"/>
		</g>
		<g>
			<path fill="#FFD89B" d="M339.35,740.24h-4.98c0.14-0.81,0.22-1.64,0.22-2.49v-1.7c0-7.85-6.39-14.24-14.24-14.24h-8.75
				c-7.85,0-14.24,6.39-14.24,14.24v1.7c0,0.85,0.08,1.68,0.22,2.49h-5.54c-2.89,0-5.24,2.35-5.24,5.24v22.86
				c0,12.93,10.49,23.42,23.42,23.42h13.83c12.16,0,22.01-9.85,22.01-22.01v-22.8C346.06,743.25,343.06,740.24,339.35,740.24z
				 M318.1,763.25v10.62c0,0.92-0.75,1.67-1.68,1.67c-0.92,0-1.68-0.75-1.68-1.67v-10.62c-3.46-0.76-6.05-3.85-6.05-7.54
				c0-4.27,3.46-7.73,7.73-7.73c4.27,0,7.73,3.46,7.73,7.73C324.16,759.4,321.57,762.48,318.1,763.25z M328.89,737.75
				c0,0.87-0.13,1.7-0.37,2.49h-25.1c-0.24-0.79-0.38-1.63-0.38-2.49v-1.7c0-4.71,3.83-8.55,8.55-8.55h8.75
				c4.71,0,8.55,3.83,8.55,8.55V737.75z"/>
		</g>
	</g>
	<g>
		<g>
			<path fill="#FF912B" d="M924.33,810.08l-191.89,0c-26.75-30.75-25.64-68.17,10.86-102.16c6.55-6.1,17.99-12.67,27.23-14.87
				c17.02-4.06,36.33-5,36.48-5.08c0.06-0.02,21.46-3,27.56-10.43c18.96-23.06,23.84-26.36,23.84-26.36
				c19.33-3.78,35.82-4.89,48.04,1.95c0,0,0,0,0,0.01c11.32,6.34,18.99,19.51,21.86,43.71c0.54,4.58,0.92,9.55,1.11,14.94
				c0.7,19.64,4.55,37.1,6.84,51.9c0,0,0,0,0,0C939.59,785.1,941.93,801.39,924.33,810.08z"/>
		</g>
		<path fill="#FC7600" d="M896.87,677.65c-11.73,6.39-13.03,27.44-31.38,32.87c-18.36,5.44-49.52,4.94-67.2,24.12
			c-17.05,18.5-35.86-28.57-27.76-41.8c17.02-4.04,36.33-4.97,36.48-5.05c0.06-0.02,26.18-0.13,32.29-7.52
			c18.97-22.96,19.12-29.11,19.12-29.11c19.33-3.76,35.82-4.87,48.04,1.94c0,0,0,0,0,0.01C919.92,667.02,908.6,671.26,896.87,677.65
			z"/>
		<path fill="#FC7600" d="M936.27,763.14c-26.92-33.6-82.22,12.21-96.53,10.91c-13.16-1.19,25.66-47.12,73.79-53.95
			c19.46-2.76,14.8-22.87,14.79-23.49c0.54,4.55,0.92,9.5,1.11,14.87C930.12,731.03,933.98,748.41,936.27,763.14z"/>
		<g>
			<g>
				<path fill="#FFAE73" d="M786.13,781.43c-1.88,3.63-2.31,10.3-2.87,12.57c-0.56,2.26-10.42,9.96-11.27,9.57
					c-2.16-0.97-0.1-4.73,1.22-7.48c0.05-0.11,0.1-0.22,0.16-0.33c1.3-2.77,0.18-8.95,0.85-12.15c0.67-3.19-2.56-11.79-2.56-11.79
					l5.45-6.88c0,0,3.83,7.29,6.57,8.61c0.48,0.24,0.94,0.52,1.34,0.85C786.87,775.94,787.67,778.45,786.13,781.43z"/>
				<path fill="#0B3563" d="M859.17,598.34c-5.26,0.44-10.16,2.8-13.96,6.45c-2.41,2.31-5.08,5.46-6.73,9.23
					c-3.6,8.21-2.36,17.75-4.41,22.99c-2.06,5.24-3.29,6.15,0,8.52c3.29,2.37,3.84,4.63-0.09,7.14c-3.93,2.51-6.83,10.35,4.13,11.03
					c10.96,0.68,32.22-3.3,34.95-5.33c2.73-2.03,10.19-5.04,13.77-10.47c7.15-10.84,1.45-18.13-4.07-19.97
					C874.34,625.15,877.43,596.81,859.17,598.34z"/>
				<path fill="#6B98F6" d="M844.77,643.77c0,0-10.87,24.54-13.14,26.68c-2.26,2.13-12.87,6.3-11.92,9.88
					c0.95,3.57,8.94,7.03,12.27,6.2c3.34-0.83,11.8-15.25,11.8-15.25L844.77,643.77z"/>
				<path fill="#547CE6" d="M820.6,682.47c0,0,0.59-4.22,10.89-5.58c5.72-0.76,15.28-16.7,15.28-16.7l-9.57,25.14l-9.27,4.01
					L820.6,682.47z"/>
				<path fill="#1E3865" d="M824.79,690.4c0,0-53.65-3.76-61,4.76c-5.83,6.76,4.79,80.57,4.79,80.57s14.6,0.43,15.75-3.44
					c0,0-2.73-35.83-0.44-42.03c2.28-6.2,0.84-14.77,0.84-14.77s28.57,4.28,37.63,2.11C831.41,715.42,824.79,690.4,824.79,690.4z"/>
				<path fill="#FFAE73" d="M766.97,802.69c-3.78,1.56-8.41,6.38-10.3,7.75c-1.89,1.37-14.39,0.88-14.79,0.04
					c-1.06-2.22,3.31-3.8,6.09-5.08c0.04-0.02,0.08-0.04,0.12-0.06l0.01-0.01c2.75-1.38,5.82-6.69,8.36-8.66
					c2.57-2,5.64-10.66,5.64-10.66l8.6-1.74c0,0-1.77,8.04-0.53,10.82c0.12,0.26,0.22,0.53,0.3,0.79
					C771.26,798.47,770.39,801.28,766.97,802.69z"/>
				<path fill="#214D9A" d="M848.38,693.02c0,0-58.54,5.95-63.68,11.92c-5.14,5.97-25.37,83.67-25.37,83.67s5.97,3.33,11.4,0.22
					c0,0,15.49-26.36,22.34-34.63c6.85-8.27,9.29-29.89,12.94-32.21c0.98-0.62,35.42,3.25,48.06-6.45
					C866.7,705.85,848.38,693.02,848.38,693.02z"/>
				<path fill="#6B98F6" d="M873.9,693.13c-1.51,2.88-3.14,5.59-4.89,8.03c-4.38,6.11-9.46,10.5-14.95,11.64
					c-7.99,1.66-34.76-13.88-33.4-22.45c0.74-4.67,15.61-13.05,18.01-16.44c2.4-3.38,3.84-20.35,5.12-27.28
					c0.95-5.15,4.15-5.69,8.14-7.06c16.97-5.81,29.05,0.34,29.05,0.34C888.74,644.27,884.43,672.99,873.9,693.13z"/>
				<path fill="#0B3563" d="M873.08,622.24c0,0,0.91-4.16,1.28-8.6c0.26-3.17-4.56-13.51-12.04-13.09c0,0-3.34,0.65-6.32,3.09
					c-2.36,1.94-5.66,5.96-0.64,15.67l1.38,3.31L873.08,622.24z"/>
				<g>
					<path fill="#FFAE73" d="M857.92,638.96c0.24,1.77,1.82,2.78,5.34,2.56c3.56-0.23,8.61-2.39,8.19-4.03
						c-0.37-1.44-1.95-4.82-2.6-13.4l-0.65,0.18l-10.87,3.05c0,0,0.52,3.46,0.79,6.73C858.33,636.8,857.79,638.06,857.92,638.96z"/>
					<path fill="#FF9D5D" d="M857.32,627.32c0,0,0.52,3.46,0.79,6.73c6.17-0.66,8.99-6.55,10.09-9.79L857.32,627.32z"/>
					<path fill="#FFAE73" d="M857.09,632.35c0,0,14.23-3.58,11.86-12.4c-2.36-8.83-2.12-15.23-11.31-13.32
						c-9.18,1.91-10.04,5.75-9.97,8.89C847.75,618.65,853.33,633.05,857.09,632.35z"/>
					<path fill="#0B3563" d="M851.14,608.14c0,0,4.78,9.1,13.79,10.08c5.27,0.57,6.72,4.05,6.72,4.05s-1.58-9.94-4.23-16.01
						C867.41,606.27,852.74,602.43,851.14,608.14z"/>
					<path fill="#0B3563" d="M852.77,609.35c0,0-3.12,3.18-4.08,5.42c-1.42,3.32,1.35,10.31,2.5,11.82c0,0-6.62-11.23-4.41-16.1
						C849.13,605.34,852.77,609.35,852.77,609.35z"/>
				</g>
				<path fill="#FFAE73" d="M809.37,691.28c0,0-2.83,3-3.18,3.16c-1.87,0.88-4.24,0.37-5.38,0.65c-1.14,0.29-0.95-0.42-0.1-1
					c0.84-0.58,2.92-0.35,2.07-0.56c-0.85-0.21-5.43-1.07-7.15-0.6c-2.73,0.73-4.88-0.13-5.05-0.41c-0.17-0.28,6.23-3.41,8.06-3.3
					c1.83,0.11,7.09-0.15,7.09-0.15L809.37,691.28z"/>
				<path fill="#FFAE73" d="M885.79,645.44c0,0,1.7,41.73-3.2,47.58c-4.76,5.67-25.08,1.82-33.86-0.08c-0.43-0.09-1.33,0-1.96,0.56
					c-0.69,0.62-0.98-4.18-0.98-4.18s26.5-3.88,28.28-4.38c2.56-0.72,0.78-29.46,0.78-29.46L885.79,645.44z"/>
				<path fill="#FFAE73" d="M847.86,692.38c0,0-2.38,2.41-3.28,3.64c-0.9,1.23-7.22,3.46-7.36,2.8c-0.14-0.66,2.83-2.66,3.09-3.41
					c0.27-0.75,3.51-4.5,5.48-4.93C847.76,690.04,847.86,692.38,847.86,692.38z"/>
				<path fill="#FFAE73" d="M845.79,689.33c0,0-9.74,2.25-11.39,2.93c-1.65,0.68-5.16,5.64-3.77,6.38c0.88,0.47,4.72-1.56,6.67-1.98
					c1.95-0.42,7.48,0.54,10.01-4.46C847.59,691.63,845.79,689.33,845.79,689.33z"/>
				<path fill="#214D9A" d="M766.97,802.69c-3.78,1.56-8.41,6.38-10.3,7.75c-1.89,1.37-14.39,0.88-14.79,0.04
					c-1.06-2.22,3.31-3.8,6.09-5.08c0.04-0.02,0.08-0.04,0.12-0.06l0.01-0.01l0.39-0.13c0,0,5.39,1.92,9.87,0
					c3.5-1.5,8.68-7.06,12.1-9.33C771.26,798.47,770.39,801.28,766.97,802.69z"/>
				<path fill="#0E3A76" d="M786.13,781.43c-1.88,3.63-2.31,10.3-2.87,12.57c-0.56,2.26-10.42,9.96-11.27,9.57
					c-2.16-0.97-0.1-4.73,1.22-7.48c0.78-0.05,1.8-0.32,3.01-1.12c2.47-1.64,6.65-7.84,7.02-11.5c0.3-2.98,0.11-7.25,1.77-9.06
					C786.87,775.94,787.67,778.45,786.13,781.43z"/>
				<g>
					<g>
						<polygon fill="#FF7910" points="833.23,699.89 790.81,699.89 778.05,668.16 820.41,668.16 						"/>
						<polygon fill="#FC7600" points="790.32,698.66 846.33,698.66 846.33,699.89 790.81,699.89 						"/>
					</g>
					<path fill="#FFFFFF" d="M801.52,684.03c-0.32-1.12,0.33-2.02,1.44-2.02c1.12,0,2.28,0.9,2.6,2.02
						c0.32,1.12-0.33,2.02-1.44,2.02C803,686.05,801.84,685.14,801.52,684.03z"/>
				</g>
				<path fill="#547CE6" d="M873.9,693.13c-1.51,2.88-3.14,5.59-4.89,8.03c-13.59-0.51-16.87-6-16.87-6L873.9,693.13z"/>
				<path fill="#547CE6" d="M852.77,687.94c0,0,15.52-3.56,17.45-6.9c1.93-3.34,4.63-25.55,4.63-25.55l6.48,8.3l-1.31,19.53
					c0,0-7.39,7.31-7.86,7.04C871.67,690.09,852.77,687.94,852.77,687.94z"/>
				<path fill="#6B98F6" d="M880.98,639.91c0,0,3.68,1.85,5.1,4.45c2.7,4.93,5.58,43.13-2.09,49.44
					c-7.67,6.31-29.92,5.05-32.54,0.58c0,0-0.18-4.19,1.32-6.44c0,0,20.03-2.65,20.93-3.91c0.89-1.26-0.65-28.33,0.3-30.78
					C874.94,650.79,880.98,639.91,880.98,639.91z"/>
			</g>
		</g>
		<path fill="#FF912B" d="M884.31,693.37c0,0-5.78,5.42-29.98,6.2c-18.92,0.61-38.85,8.24-48.16,21.34
			c-2.6,3.65-4.39,9.67-5.08,13.73c-1.26,7.45,45.93,19.03,46.68,17.94c0.76-1.08,31.08-27.13,31.08-27.13L884.31,693.37z"/>
	</g>
	<g>
		<path fill="#FC7600" d="M665.51,543.97c0,0,23.53,24.4,24.64,33.58c1.11,9.18-11.27,23.52-11.27,23.52L665.51,543.97z"/>
		<path fill="#062646" d="M654.88,796.82c0,0-0.83,12.94-3.33,13.12c-0.33,0.02-12.7,0-12.7,0l-15.79-0.13c0,0,0.11-3.8,4.73-4.6
			c4.62-0.79,12.35-4.02,15.16-10.11C645.89,788.69,654.88,796.82,654.88,796.82z"/>
		<path fill="#062646" d="M690.04,796.9c0,0-0.83,12.94-3.34,13.12c-0.33,0.02-12.7,0-12.7,0l-15.79-0.13c0,0,0.11-3.8,4.73-4.6
			c4.62-0.79,12.35-4.02,15.16-10.11C681.06,788.77,690.04,796.9,690.04,796.9z"/>
		<path fill="#0B3563" d="M637.69,657.68c0,0,4.07,26.42,19.37,73.33c15.3,46.91,17.36,67.22,17.36,67.22l16.53-0.43
			c0,0,0.25-51.23-6.8-74.82c-7.05-23.59-1.35-84.99-1.35-84.99L637.69,657.68z"/>
		<path fill="#0D458E" d="M629.69,639.32c0,0-0.67,39.8,6.11,88.67c6.78,48.88,4.4,69.61,4.4,69.61l16.49,0.58
			c0,0,9.96-48.86,7.19-73.32c-2.77-24.46,13.68-83.89,13.68-83.89L629.69,639.32z"/>
		<path fill="#FFAE73" d="M661.82,546.26l-8.8,5.74l-12.69-2.39c0.18-1.02,1.03-5.27,1.8-9.12c0.05-0.23,0.09-0.45,0.14-0.68
			c0.66-3.27,1.23-6.08,1.23-6.08l11.87-5.21l4.43-1.94c-0.01,0.07-0.35,3.63-0.4,4.15C658.54,539.97,661.82,546.26,661.82,546.26z"
			/>
		<path fill="#FC7600" d="M643.59,543.31c0.25-0.1,15.3-4.51,16.94-3.97c1.63,0.54,2.59,3.71,2.59,3.71l-24.62,5.51
			C638.5,548.56,640.45,544.63,643.59,543.31z"/>
		<path fill="#FF912B" d="M683.89,644.35c-2.58,11.63-45.02,12.92-55.94,2.33c-1.24-1.21-1.29-6.81-0.81-14.36
			c0.95-14.75,3.95-36.94,4.09-48.27c0.07-5.48,0.83-11.07,1.85-16.16c2.16-10.83,5.43-19.33,5.43-19.33s20.75-6.66,24.62-5.51
			C681.8,548.58,686.46,632.72,683.89,644.35z"/>
		<path fill="#FC7600" d="M627.14,632.33c0.95-14.75,3.95-36.94,4.09-48.27c0.07-5.48,0.83-11.07,1.85-16.16l12.48-2.17
			C645.55,565.72,657.63,615.55,627.14,632.33z"/>
		<path fill="#FFAE73" d="M633.94,611.78c0,0,0.85,2.03-0.94,3.39c-1.79,1.36-2.95,3.57-2.55,5.18c0.41,1.62,4.32,4.26,5.67,3.84
			c1.36-0.42,4.13-2.54,3.83-3.4c-0.3-0.85,1.87-7.47-1.43-10.03C635.22,608.21,633.94,611.78,633.94,611.78z"/>
		<path fill="#FF912B" d="M648.03,545.6c0,0-12.17,2.25-21.89,16.51c-9.72,14.26-16.12,24.86-14.35,30.01
			c1.77,5.15,18.01,23.04,20.81,23.04c2.81,0.01,7.34-2.02,7.6-6.61c0,0-11.42-17.2-9.16-19.76c0.97-1.1,14.9-12.36,16.87-7.25
			C651.19,589.98,648.03,545.6,648.03,545.6z"/>
		<path fill="#FFA05E" d="M658.5,530.89c-2.61,4.41-12.33,8.2-16.38,9.59c0.05-0.23,0.09-0.45,0.14-0.68
			c0.66-3.27,1.23-6.08,1.23-6.08l11.87-5.21C657.99,528.49,659.58,529.08,658.5,530.89z"/>
		<path fill="#FFAE73" d="M639.02,533c0,0,19.09,6,22.65-5.95c3.55-11.95,8.41-19.22-3.63-23.56c-12.04-4.34-15.77-0.49-17.93,3.21
			C637.95,510.41,634.15,531.13,639.02,533z"/>
		<path fill="#0B3563" d="M640.86,505.56c0,0,1.19,13.91,4.07,13.32c2.88-0.6,5.49-1.04,5.06,3.15c-0.43,4.19-4.43,9.03,4.43,9.79
			c8.86,0.76,21.66-22.08,19.23-26.41C666.66,492.9,630.74,490.3,640.86,505.56z"/>
	</g>
	<g>
		<g>
			<g>
				<g>
					<g>
						<g>
							<path fill="#D1E4FC" d="M794.91,469.43c-0.36,0.35-0.36,0.93-0.01,1.28s0.93,0.36,1.28,0.01c0.36-0.35,0.36-0.93,0.01-1.28
								C795.83,469.08,795.26,469.08,794.91,469.43z"/>
							<path fill="#D1E4FC" d="M797.86,472.41c-0.36,0.35-0.36,0.93-0.01,1.28c0.35,0.36,0.93,0.36,1.28,0.01
								c0.36-0.35,0.36-0.93,0.01-1.28C798.79,472.06,798.21,472.06,797.86,472.41z"/>
							<path fill="#D1E4FC" d="M802.13,475.43c-0.35-0.36-0.93-0.36-1.28-0.01c-0.36,0.35-0.36,0.93-0.01,1.28
								c0.35,0.36,0.93,0.36,1.28,0.01C802.48,476.36,802.48,475.79,802.13,475.43z"/>
						</g>
						<g>
							<path fill="#D1E4FC" d="M803.83,478.44c-0.36,0.35-0.36,0.93-0.01,1.28c0.35,0.36,0.93,0.36,1.28,0.01
								c0.36-0.35,0.36-0.93,0.01-1.28C804.76,478.09,804.19,478.09,803.83,478.44z"/>
							<path fill="#D1E4FC" d="M806.79,481.42c-0.36,0.35-0.36,0.93-0.01,1.28c0.35,0.36,0.93,0.36,1.28,0.01
								c0.36-0.35,0.36-0.93,0.01-1.28C807.71,481.07,807.14,481.07,806.79,481.42z"/>
							<path fill="#D1E4FC" d="M811.06,484.44c-0.35-0.36-0.93-0.36-1.28-0.01c-0.36,0.35-0.36,0.93-0.01,1.28
								c0.35,0.36,0.93,0.36,1.28,0.01C811.41,485.37,811.41,484.8,811.06,484.44z"/>
						</g>
					</g>
					<g>
						<g>
							<path fill="#D1E4FC" d="M812.64,487.34c-0.36,0.35-0.36,0.93-0.01,1.28c0.35,0.36,0.93,0.36,1.28,0.01
								c0.36-0.35,0.36-0.93,0.01-1.28C813.57,486.99,813,486.98,812.64,487.34z"/>
							<path fill="#D1E4FC" d="M815.59,490.31c-0.36,0.35-0.36,0.93-0.01,1.28c0.35,0.36,0.93,0.36,1.28,0.01
								c0.36-0.35,0.36-0.93,0.01-1.28C816.52,489.96,815.95,489.96,815.59,490.31z"/>
							<path fill="#D1E4FC" d="M819.87,493.34c-0.35-0.36-0.93-0.36-1.28-0.01c-0.36,0.35-0.36,0.93-0.01,1.28
								c0.35,0.36,0.93,0.36,1.28,0.01C820.22,494.27,820.22,493.69,819.87,493.34z"/>
						</g>
						<g>
							<path fill="#D1E4FC" d="M821.57,496.35c-0.36,0.35-0.36,0.93-0.01,1.28c0.35,0.36,0.93,0.36,1.28,0.01
								c0.36-0.35,0.36-0.93,0.01-1.28C822.5,496,821.93,496,821.57,496.35z"/>
							<path fill="#D1E4FC" d="M824.52,499.33c-0.36,0.35-0.36,0.93-0.01,1.28c0.35,0.36,0.93,0.36,1.28,0.01
								c0.36-0.35,0.36-0.93,0.01-1.28C825.45,498.98,824.88,498.97,824.52,499.33z"/>
							<path fill="#D1E4FC" d="M828.8,502.35c-0.35-0.36-0.93-0.36-1.28-0.01c-0.36,0.35-0.36,0.93-0.01,1.28
								c0.35,0.36,0.93,0.36,1.28,0.01C829.14,503.28,829.15,502.71,828.8,502.35z"/>
						</g>
					</g>
				</g>
			</g>
			<g>
				<g>
					<g>
						<g>
							<path fill="#D1E4FC" d="M759.01,478.62c-0.49-0.11-0.97,0.19-1.09,0.68c-0.11,0.49,0.19,0.97,0.68,1.09
								c0.49,0.11,0.97-0.19,1.09-0.68C759.8,479.22,759.5,478.74,759.01,478.62z"/>
							<path fill="#D1E4FC" d="M758.07,482.71c-0.49-0.11-0.97,0.19-1.09,0.68c-0.11,0.49,0.19,0.97,0.68,1.09
								c0.49,0.11,0.97-0.19,1.09-0.68C758.86,483.31,758.56,482.82,758.07,482.71z"/>
							<path fill="#D1E4FC" d="M757.79,487.93c0.11-0.49-0.19-0.97-0.68-1.09c-0.49-0.11-0.97,0.19-1.09,0.68
								c-0.11,0.49,0.19,0.97,0.68,1.09C757.2,488.73,757.68,488.42,757.79,487.93z"/>
						</g>
						<g>
							<path fill="#D1E4FC" d="M756.16,490.99c-0.49-0.11-0.97,0.19-1.09,0.68c-0.11,0.49,0.19,0.97,0.68,1.09
								c0.49,0.11,0.97-0.19,1.09-0.68C756.95,491.59,756.65,491.1,756.16,490.99z"/>
							<path fill="#D1E4FC" d="M755.22,495.07c-0.49-0.11-0.97,0.19-1.09,0.68c-0.11,0.49,0.19,0.97,0.68,1.09
								c0.49,0.11,0.97-0.19,1.09-0.68C756.01,495.67,755.71,495.18,755.22,495.07z"/>
							<path fill="#D1E4FC" d="M754.95,500.3c0.11-0.49-0.19-0.97-0.68-1.09c-0.49-0.11-0.97,0.19-1.09,0.68
								c-0.11,0.49,0.19,0.97,0.68,1.09C754.35,501.09,754.84,500.79,754.95,500.3z"/>
						</g>
					</g>
					<g>
						<g>
							<path fill="#D1E4FC" d="M753.35,503.19c-0.49-0.11-0.97,0.19-1.09,0.68c-0.11,0.49,0.19,0.97,0.68,1.09
								c0.49,0.11,0.97-0.19,1.09-0.68C754.15,503.78,753.84,503.3,753.35,503.19z"/>
							<path fill="#D1E4FC" d="M752.41,507.27c-0.49-0.11-0.97,0.19-1.09,0.68c-0.11,0.49,0.19,0.97,0.68,1.09
								c0.49,0.11,0.97-0.19,1.09-0.68S752.9,507.38,752.41,507.27z"/>
							<path fill="#D1E4FC" d="M752.14,512.5c0.11-0.49-0.19-0.97-0.68-1.09c-0.49-0.11-0.97,0.19-1.09,0.68
								c-0.11,0.49,0.19,0.97,0.68,1.09C751.54,513.29,752.03,512.98,752.14,512.5z"/>
						</g>
						<g>
							<path fill="#D1E4FC" d="M750.51,515.55c-0.49-0.11-0.97,0.19-1.09,0.68c-0.11,0.49,0.19,0.97,0.68,1.09
								c0.49,0.11,0.97-0.19,1.09-0.68S751,515.66,750.51,515.55z"/>
							<path fill="#D1E4FC" d="M749.57,519.64c-0.49-0.11-0.97,0.19-1.09,0.68c-0.11,0.49,0.19,0.97,0.68,1.09
								c0.49,0.11,0.97-0.19,1.09-0.68C750.36,520.23,750.06,519.75,749.57,519.64z"/>
							<path fill="#D1E4FC" d="M749.29,524.86c0.11-0.49-0.19-0.97-0.68-1.09c-0.49-0.11-0.97,0.19-1.09,0.68
								c-0.11,0.49,0.19,0.97,0.68,1.09C748.7,525.65,749.18,525.35,749.29,524.86z"/>
						</g>
					</g>
				</g>
			</g>
			<g>
				<g>
					<path fill="#C0DBF9" d="M793.37,449.41c0-10.91-8.85-19.76-19.76-19.76c-10.91,0-19.76,8.85-19.76,19.76
						c0,10.91,8.85,19.76,19.76,19.76C784.53,469.17,793.37,460.32,793.37,449.41z"/>
				</g>
				<g>
					<path fill="#E8F2FA" d="M779.96,441.48c0-3.5-2.84-6.34-6.34-6.34c-3.5,0-6.34,2.84-6.34,6.34c0,3.5,2.84,6.34,6.34,6.34
						C777.12,447.82,779.96,444.99,779.96,441.48z"/>
					<path fill="#E8F2FA" d="M773.62,447.82c6.13,0,11.1,4.97,11.1,11.1h-22.19C762.52,452.79,767.49,447.82,773.62,447.82z"/>
				</g>
			</g>
			<g>
				<path fill="#C0DBF9" d="M821.77,510.38l-0.73-1.81c-0.79-1.94-2.67-3.22-4.77-3.22h-13.51v8.57v36.59h55.87v-36.59h-31.62
					C824.71,513.92,822.63,512.52,821.77,510.38z"/>
				<g>
					<path fill="#E8F2FA" d="M839.05,525.97h-1.87c0.05-0.3,0.08-0.62,0.08-0.93v-0.64c0-2.94-2.39-5.34-5.34-5.34h-3.28
						c-2.94,0-5.34,2.39-5.34,5.34v0.64c0,0.32,0.03,0.63,0.08,0.93h-2.08c-1.09,0-1.96,0.88-1.96,1.97v8.57
						c0,4.85,3.93,8.78,8.78,8.78h5.18c4.56,0,8.25-3.69,8.25-8.25v-8.55C841.57,527.1,840.44,525.97,839.05,525.97z M831.09,534.59
						v3.98c0,0.34-0.28,0.63-0.63,0.63c-0.35,0-0.63-0.28-0.63-0.63v-3.98c-1.3-0.29-2.27-1.44-2.27-2.83c0-1.6,1.3-2.9,2.9-2.9
						c1.6,0,2.9,1.3,2.9,2.9C833.36,533.15,832.39,534.31,831.09,534.59z M835.14,525.04c0,0.32-0.05,0.64-0.14,0.93h-9.41
						c-0.09-0.3-0.14-0.61-0.14-0.93v-0.64c0-1.77,1.44-3.2,3.2-3.2h3.28c1.77,0,3.2,1.44,3.2,3.2V525.04z"/>
				</g>
			</g>
		</g>
		<path fill="#C0DBF9" d="M727.27,552.91c0,10.09,17.09,28.51,17.09,28.51s17.08-18.42,17.08-28.51c0-10.09-7.65-18.26-17.08-18.26
			S727.27,542.82,727.27,552.91z M734.45,551.06c0-5.47,4.44-9.91,9.91-9.91c5.47,0,9.91,4.44,9.91,9.91c0,5.48-4.44,9.91-9.91,9.91
			C738.88,560.97,734.45,556.53,734.45,551.06z"/>
	</g>
	<path fill="#1E3865" d="M998.16,812.52H1.84c-0.78,0-1.43-0.64-1.43-1.43v-0.03c0-0.78,0.64-1.43,1.43-1.43h996.31
		c0.78,0,1.43,0.64,1.43,1.43v0.03C999.58,811.88,998.94,812.52,998.16,812.52z"/>
	<g>
		<path fill="#FF912B" d="M332.55,545.72c-0.42-1.74,0.34-3.11,1.96-3.11c1.61,0,3.02,1.34,3.44,3.1c0.42,1.74-0.33,3.11-1.96,3.11
			C334.37,548.83,332.98,547.48,332.55,545.72z M336.58,545.72c-0.26-1.09-1-1.91-1.8-1.91c-0.8,0-1.13,0.8-0.86,1.92
			c0.27,1.1,0.99,1.91,1.8,1.91C336.53,547.63,336.85,546.82,336.58,545.72z"/>
		<path fill="#26529F" d="M309.22,500.56l-1,0.26l-0.54-1.08l1.62-0.52l0.91,0l1.47,6.05l-1.32,0L309.22,500.56z"/>
		<path fill="#26529F" d="M313.95,502.26c-0.42-1.74,0.34-3.11,1.96-3.11c1.61,0,3.02,1.34,3.44,3.1c0.42,1.74-0.33,3.11-1.96,3.11
			C315.77,505.37,314.38,504.02,313.95,502.26z M317.98,502.25c-0.26-1.09-1-1.91-1.8-1.91c-0.8,0-1.13,0.8-0.86,1.92
			c0.27,1.1,0.99,1.91,1.8,1.91C317.93,504.17,318.25,503.36,317.98,502.25z"/>
		<path fill="#26529F" d="M342.41,585.88c-0.42-1.74,0.34-3.11,1.96-3.11c1.61,0,3.02,1.34,3.44,3.1c0.42,1.74-0.33,3.11-1.96,3.11
			S342.83,587.64,342.41,585.88z M346.44,585.88c-0.26-1.09-1-1.91-1.8-1.91c-0.8,0-1.13,0.8-0.86,1.92c0.27,1.1,0.99,1.91,1.8,1.91
			C346.39,587.79,346.7,586.99,346.44,585.88z"/>
		<path fill="#26529F" d="M316.06,528.84l-1,0.26l-0.54-1.08l1.62-0.52l0.91,0l1.47,6.05l-1.32,0L316.06,528.84z"/>
		<path fill="#26529F" d="M320.8,530.54c-0.42-1.74,0.34-3.11,1.96-3.11c1.61,0,3.02,1.34,3.44,3.1c0.42,1.74-0.33,3.11-1.96,3.11
			C322.62,533.65,321.23,532.3,320.8,530.54z M324.83,530.53c-0.26-1.09-1-1.91-1.8-1.91c-0.8,0-1.13,0.8-0.86,1.92
			c0.27,1.1,0.99,1.91,1.8,1.91C324.78,532.45,325.1,531.64,324.83,530.53z"/>
		<path fill="#FF912B" d="M320.01,514.61l-1,0.26l-0.54-1.08l1.62-0.52l0.91,0l1.47,6.05l-1.32,0L320.01,514.61z"/>
		<path fill="#FF912B" d="M324.74,516.31c-0.42-1.74,0.34-3.11,1.96-3.11c1.61,0,3.02,1.34,3.44,3.1c0.42,1.74-0.33,3.11-1.96,3.11
			S325.17,518.07,324.74,516.31z M328.77,516.31c-0.26-1.09-1-1.91-1.8-1.91c-0.8,0-1.13,0.8-0.86,1.92c0.27,1.1,0.99,1.91,1.8,1.91
			C328.72,518.22,329.04,517.41,328.77,516.31z"/>
		<path fill="#26529F" d="M319.74,544.04l-1,0.26l-0.54-1.08l1.62-0.52l0.91,0l1.47,6.05l-1.32,0L319.74,544.04z"/>
		<path fill="#26529F" d="M324.48,545.74c-0.42-1.74,0.34-3.11,1.96-3.11c1.61,0,3.02,1.34,3.44,3.1c0.42,1.74-0.33,3.11-1.96,3.11
			C326.3,548.84,324.91,547.5,324.48,545.74z M328.51,545.73c-0.26-1.09-1-1.91-1.8-1.91c-0.8,0-1.13,0.8-0.86,1.92
			c0.27,1.1,0.99,1.91,1.8,1.91C328.46,547.65,328.78,546.84,328.51,545.73z"/>
		<path fill="#FF912B" d="M336.85,502.25c-0.42-1.74,0.34-3.11,1.96-3.11c1.61,0,3.02,1.34,3.44,3.1c0.42,1.74-0.33,3.11-1.96,3.11
			C338.67,505.36,337.28,504.01,336.85,502.25z M340.88,502.25c-0.26-1.09-1-1.91-1.8-1.91c-0.8,0-1.13,0.8-0.86,1.92
			c0.27,1.1,0.99,1.91,1.8,1.91C340.83,504.16,341.15,503.35,340.88,502.25z"/>
		<path fill="#26529F" d="M324.04,500.56l-1,0.26l-0.54-1.08l1.62-0.52l0.91,0l1.47,6.05l-1.32,0L324.04,500.56z"/>
		<path fill="#26529F" d="M328.78,502.27c-0.42-1.74,0.34-3.11,1.96-3.11c1.61,0,3.02,1.34,3.44,3.1c0.42,1.74-0.33,3.11-1.96,3.11
			C330.6,505.37,329.21,504.03,328.78,502.27z M332.81,502.26c-0.26-1.09-1-1.91-1.8-1.91c-0.8,0-1.13,0.8-0.86,1.92
			c0.27,1.1,0.99,1.91,1.8,1.91C332.76,504.17,333.08,503.37,332.81,502.26z"/>
		<path fill="#FF912B" d="M339.58,575.08c-0.42-1.74,0.34-3.11,1.96-3.11c1.61,0,3.02,1.34,3.44,3.1c0.42,1.74-0.33,3.11-1.96,3.11
			C341.4,578.19,340.01,576.84,339.58,575.08z M343.61,575.07c-0.26-1.09-1-1.91-1.8-1.91c-0.8,0-1.13,0.8-0.86,1.92
			c0.27,1.1,0.99,1.91,1.8,1.91C343.56,576.99,343.88,576.18,343.61,575.07z"/>
		<path fill="#26529F" d="M323.09,558.19l-1,0.26l-0.54-1.08l1.62-0.52l0.91,0l1.47,6.05l-1.32,0L323.09,558.19z"/>
		<path fill="#26529F" d="M327.83,559.9c-0.42-1.74,0.34-3.11,1.96-3.11c1.61,0,3.02,1.34,3.44,3.1c0.42,1.74-0.33,3.11-1.96,3.11
			S328.26,561.66,327.83,559.9z M331.86,559.89c-0.26-1.09-1-1.91-1.8-1.91c-0.8,0-1.13,0.8-0.86,1.92c0.27,1.1,0.99,1.91,1.8,1.91
			C331.81,561.8,332.13,561,331.86,559.89z"/>
		<path fill="#26529F" d="M335.9,559.88c-0.42-1.74,0.34-3.11,1.96-3.11c1.61,0,3.02,1.34,3.44,3.1c0.42,1.74-0.33,3.11-1.96,3.11
			C337.72,562.99,336.33,561.64,335.9,559.88z M339.93,559.88c-0.26-1.09-1-1.91-1.8-1.91c-0.8,0-1.13,0.8-0.86,1.92
			c0.27,1.1,0.99,1.91,1.8,1.91C339.88,561.79,340.2,560.98,339.93,559.88z"/>
		<path fill="#26529F" d="M344.6,558.16l-1,0.26l-0.54-1.08l1.62-0.52l0.91,0l1.47,6.05l-1.32,0L344.6,558.16z"/>
		<path fill="#26529F" d="M326.77,573.39l-1,0.26l-0.54-1.08l1.62-0.52l0.91,0l1.47,6.05l-1.32,0L326.77,573.39z"/>
		<path fill="#26529F" d="M331.51,575.09c-0.42-1.74,0.34-3.11,1.96-3.11c1.61,0,3.02,1.34,3.44,3.1c0.42,1.74-0.33,3.11-1.96,3.11
			S331.94,576.85,331.51,575.09z M335.54,575.09c-0.26-1.09-1-1.91-1.8-1.91c-0.8,0-1.13,0.8-0.86,1.92c0.27,1.1,0.99,1.91,1.8,1.91
			C335.49,577,335.81,576.19,335.54,575.09z"/>
		<path fill="#26529F" d="M346.72,608.78c-0.42-1.74,0.34-3.11,1.96-3.11c1.61,0,3.02,1.34,3.44,3.1c0.42,1.74-0.33,3.11-1.96,3.11
			C348.54,611.88,347.15,610.54,346.72,608.78z M350.75,608.77c-0.26-1.09-1-1.91-1.8-1.91c-0.8,0-1.13,0.8-0.86,1.92
			c0.27,1.1,0.99,1.91,1.8,1.91C350.7,610.69,351.02,609.88,350.75,608.77z"/>
		<path fill="#26529F" d="M355.41,607.05l-1,0.26l-0.54-1.08l1.62-0.52l0.91,0l1.47,6.05l-1.32,0L355.41,607.05z"/>
		<path fill="#26529F" d="M333.91,607.09l-1,0.26l-0.54-1.08l1.62-0.52l0.91,0l1.47,6.05l-1.32,0L333.91,607.09z"/>
		<path fill="#26529F" d="M338.65,608.79c-0.42-1.74,0.34-3.11,1.96-3.11c1.61,0,3.02,1.34,3.44,3.1c0.42,1.74-0.33,3.11-1.96,3.11
			C340.47,611.9,339.08,610.55,338.65,608.79z M342.68,608.78c-0.26-1.09-1-1.91-1.8-1.91c-0.8,0-1.13,0.8-0.86,1.92
			c0.27,1.1,0.99,1.91,1.8,1.91C342.63,610.7,342.95,609.89,342.68,608.78z"/>
		<path fill="#FF912B" d="M360.15,608.75c-0.42-1.74,0.34-3.11,1.96-3.11c1.61,0,3.02,1.34,3.44,3.1c0.42,1.74-0.33,3.11-1.96,3.11
			C361.97,611.86,360.58,610.51,360.15,608.75z M364.18,608.75c-0.26-1.09-1-1.91-1.8-1.91c-0.8,0-1.13,0.8-0.86,1.92
			c0.27,1.1,0.99,1.91,1.8,1.91C364.13,610.66,364.45,609.86,364.18,608.75z"/>
		<path fill="#FF912B" d="M368.22,608.74c-0.42-1.74,0.34-3.11,1.96-3.11c1.61,0,3.02,1.34,3.44,3.1c0.42,1.74-0.33,3.11-1.96,3.11
			C370.04,611.85,368.65,610.5,368.22,608.74z M372.25,608.73c-0.26-1.09-1-1.91-1.8-1.91c-0.8,0-1.13,0.8-0.86,1.92
			c0.27,1.1,0.99,1.91,1.8,1.91C372.2,610.65,372.52,609.84,372.25,608.73z"/>
		<path fill="#26529F" d="M336.75,619.62c-0.42-1.74,0.34-3.11,1.96-3.11c1.61,0,3.02,1.34,3.44,3.1c0.42,1.74-0.33,3.11-1.96,3.11
			C338.57,622.72,337.17,621.38,336.75,619.62z M340.78,619.61c-0.26-1.09-1-1.91-1.8-1.91c-0.8,0-1.13,0.8-0.86,1.92
			c0.27,1.1,0.99,1.91,1.8,1.91C340.73,621.53,341.04,620.72,340.78,619.61z"/>
		<path fill="#26529F" d="M345.44,617.89l-1,0.26l-0.54-1.08l1.62-0.52l0.91,0l1.47,6.05l-1.32,0L345.44,617.89z"/>
		<path fill="#26529F" d="M350.18,619.59c-0.42-1.74,0.34-3.11,1.96-3.11c1.61,0,3.02,1.34,3.44,3.1c0.42,1.74-0.33,3.11-1.96,3.11
			C352,622.7,350.6,621.35,350.18,619.59z M354.2,619.59c-0.26-1.09-1-1.91-1.8-1.91c-0.8,0-1.13,0.8-0.86,1.92
			c0.27,1.1,0.99,1.91,1.8,1.91C354.16,621.5,354.47,620.69,354.2,619.59z"/>
		<path fill="#26529F" d="M358.25,619.58c-0.42-1.74,0.34-3.11,1.96-3.11c1.61,0,3.02,1.34,3.44,3.1c0.42,1.74-0.33,3.11-1.96,3.11
			S358.67,621.34,358.25,619.58z M362.28,619.57c-0.26-1.09-1-1.91-1.8-1.91c-0.8,0-1.13,0.8-0.86,1.92c0.27,1.1,0.99,1.91,1.8,1.91
			C362.23,621.49,362.54,620.68,362.28,619.57z"/>
		<path fill="#26529F" d="M590.94,608.78c-0.42-1.74,0.34-3.11,1.96-3.11c1.61,0,3.02,1.34,3.44,3.1c0.42,1.74-0.33,3.11-1.96,3.11
			C592.76,611.88,591.37,610.54,590.94,608.78z M594.97,608.77c-0.26-1.09-1-1.91-1.8-1.91c-0.8,0-1.13,0.8-0.86,1.92
			c0.27,1.1,0.99,1.91,1.8,1.91C594.92,610.69,595.24,609.88,594.97,608.77z"/>
		<path fill="#26529F" d="M599.63,607.05l-1,0.26l-0.54-1.08l1.62-0.52l0.91,0l1.47,6.05l-1.32,0L599.63,607.05z"/>
		<path fill="#26529F" d="M578.13,607.09l-1,0.26l-0.54-1.08l1.62-0.52l0.91,0l1.47,6.05l-1.32,0L578.13,607.09z"/>
		<path fill="#26529F" d="M582.87,608.79c-0.42-1.74,0.34-3.11,1.96-3.11c1.61,0,3.02,1.34,3.44,3.1c0.42,1.74-0.33,3.11-1.96,3.11
			C584.69,611.9,583.3,610.55,582.87,608.79z M586.9,608.78c-0.26-1.09-1-1.91-1.8-1.91c-0.8,0-1.13,0.8-0.86,1.92
			c0.27,1.1,0.99,1.91,1.8,1.91C586.85,610.7,587.17,609.89,586.9,608.78z"/>
		<path fill="#FF912B" d="M604.37,608.75c-0.42-1.74,0.34-3.11,1.96-3.11c1.61,0,3.02,1.34,3.44,3.1c0.42,1.74-0.33,3.11-1.96,3.11
			C606.19,611.86,604.8,610.51,604.37,608.75z M608.4,608.75c-0.26-1.09-1-1.91-1.8-1.91c-0.8,0-1.13,0.8-0.86,1.92
			c0.27,1.1,0.99,1.91,1.8,1.91C608.35,610.66,608.67,609.86,608.4,608.75z"/>
		<path fill="#FF912B" d="M612.44,608.74c-0.42-1.74,0.34-3.11,1.96-3.11c1.61,0,3.02,1.34,3.44,3.1c0.42,1.74-0.33,3.11-1.96,3.11
			C614.26,611.85,612.87,610.5,612.44,608.74z M616.47,608.73c-0.26-1.09-1-1.91-1.8-1.91c-0.8,0-1.13,0.8-0.86,1.92
			c0.27,1.1,0.99,1.91,1.8,1.91C616.42,610.65,616.74,609.84,616.47,608.73z"/>
		<path fill="#26529F" d="M558.66,619.62c-0.42-1.74,0.34-3.11,1.96-3.11c1.61,0,3.02,1.34,3.44,3.1c0.42,1.74-0.33,3.11-1.96,3.11
			C560.48,622.72,559.08,621.38,558.66,619.62z M562.69,619.61c-0.26-1.09-1-1.91-1.8-1.91c-0.8,0-1.13,0.8-0.86,1.92
			c0.27,1.1,0.99,1.91,1.8,1.91C562.64,621.53,562.95,620.72,562.69,619.61z"/>
		<path fill="#26529F" d="M567.35,617.89l-1,0.26l-0.54-1.08l1.62-0.52l0.91,0l1.47,6.05l-1.32,0L567.35,617.89z"/>
		<path fill="#26529F" d="M572.09,619.59c-0.42-1.74,0.34-3.11,1.96-3.11c1.61,0,3.02,1.34,3.44,3.1c0.42,1.74-0.33,3.11-1.96,3.11
			C573.91,622.7,572.51,621.35,572.09,619.59z M576.11,619.59c-0.26-1.09-1-1.91-1.8-1.91c-0.8,0-1.13,0.8-0.86,1.92
			c0.27,1.1,0.99,1.91,1.8,1.91C576.07,621.5,576.38,620.69,576.11,619.59z"/>
		<path fill="#26529F" d="M580.16,619.58c-0.42-1.74,0.34-3.11,1.96-3.11c1.61,0,3.02,1.34,3.44,3.1c0.42,1.74-0.33,3.11-1.96,3.11
			C581.98,622.69,580.59,621.34,580.16,619.58z M584.19,619.57c-0.26-1.09-1-1.91-1.8-1.91c-0.8,0-1.13,0.8-0.86,1.92
			c0.27,1.1,0.99,1.91,1.8,1.91C584.14,621.49,584.45,620.68,584.19,619.57z"/>
		<path fill="#FF912B" d="M356.97,647.99c-0.42-1.74,0.34-3.11,1.96-3.11c1.61,0,3.02,1.34,3.44,3.1c0.42,1.74-0.33,3.11-1.96,3.11
			C358.79,651.09,357.4,649.75,356.97,647.99z M361,647.98c-0.26-1.09-1-1.91-1.8-1.91c-0.8,0-1.13,0.8-0.86,1.92
			c0.27,1.1,0.99,1.91,1.8,1.91C360.95,649.9,361.27,649.09,361,647.98z"/>
		<path fill="#FF912B" d="M365.67,646.26l-1,0.26l-0.54-1.08l1.62-0.52l0.91,0l1.47,6.05l-1.32,0L365.67,646.26z"/>
		<path fill="#26529F" d="M340.49,631.1l-1,0.26l-0.54-1.08l1.62-0.52l0.91,0l1.47,6.05l-1.32,0L340.49,631.1z"/>
		<path fill="#26529F" d="M345.22,632.8c-0.42-1.74,0.34-3.11,1.96-3.11c1.61,0,3.02,1.34,3.44,3.1c0.42,1.74-0.33,3.11-1.96,3.11
			C347.04,635.91,345.65,634.56,345.22,632.8z M349.25,632.8c-0.26-1.09-1-1.91-1.8-1.91c-0.8,0-1.13,0.8-0.86,1.92
			c0.27,1.1,0.99,1.91,1.8,1.91C349.2,634.71,349.52,633.9,349.25,632.8z"/>
		<path fill="#26529F" d="M353.29,632.79c-0.42-1.74,0.34-3.11,1.96-3.11c1.61,0,3.02,1.34,3.44,3.1c0.42,1.74-0.33,3.11-1.96,3.11
			C355.12,635.9,353.72,634.55,353.29,632.79z M357.32,632.78c-0.26-1.09-1-1.91-1.8-1.91c-0.8,0-1.13,0.8-0.86,1.92
			c0.27,1.1,0.99,1.91,1.8,1.91C357.27,634.7,357.59,633.89,357.32,632.78z"/>
		<path fill="#26529F" d="M361.99,631.07l-1,0.26l-0.54-1.08l1.62-0.52l0.91,0l1.47,6.05l-1.32,0L361.99,631.07z"/>
		<path fill="#26529F" d="M576.8,631.1l-1,0.26l-0.54-1.08l1.62-0.52l0.91,0l1.47,6.05l-1.32,0L576.8,631.1z"/>
		<path fill="#26529F" d="M581.53,632.8c-0.42-1.74,0.34-3.11,1.96-3.11c1.61,0,3.02,1.34,3.44,3.1c0.42,1.74-0.33,3.11-1.96,3.11
			C583.35,635.91,581.96,634.56,581.53,632.8z M585.56,632.8c-0.26-1.09-1-1.91-1.8-1.91c-0.8,0-1.13,0.8-0.86,1.92
			c0.27,1.1,0.99,1.91,1.8,1.91C585.51,634.71,585.83,633.9,585.56,632.8z"/>
		<path fill="#26529F" d="M589.61,632.79c-0.42-1.74,0.34-3.11,1.96-3.11c1.61,0,3.02,1.34,3.44,3.1c0.42,1.74-0.33,3.11-1.96,3.11
			C591.43,635.9,590.03,634.55,589.61,632.79z M593.63,632.78c-0.26-1.09-1-1.91-1.8-1.91c-0.8,0-1.13,0.8-0.86,1.92
			c0.27,1.1,0.99,1.91,1.8,1.91C593.58,634.7,593.9,633.89,593.63,632.78z"/>
		<path fill="#26529F" d="M598.3,631.07l-1,0.26l-0.54-1.08l1.62-0.52l0.91,0l1.47,6.05l-1.32,0L598.3,631.07z"/>
		<path fill="#26529F" d="M344.17,646.3l-1,0.26l-0.54-1.08l1.62-0.52l0.91,0l1.47,6.05l-1.32,0L344.17,646.3z"/>
		<path fill="#26529F" d="M348.9,648c-0.42-1.74,0.34-3.11,1.96-3.11c1.61,0,3.02,1.34,3.44,3.1c0.42,1.74-0.33,3.11-1.96,3.11
			C350.72,651.11,349.33,649.76,348.9,648z M352.93,647.99c-0.26-1.09-1-1.91-1.8-1.91c-0.8,0-1.13,0.8-0.86,1.92
			c0.27,1.1,0.99,1.91,1.8,1.91C352.88,649.91,353.2,649.1,352.93,647.99z"/>
		<path fill="#26529F" d="M370.4,647.96c-0.42-1.74,0.34-3.11,1.96-3.11c1.61,0,3.02,1.34,3.44,3.1c0.42,1.74-0.33,3.11-1.96,3.11
			C372.22,651.07,370.83,649.72,370.4,647.96z M374.43,647.96c-0.26-1.09-1-1.91-1.8-1.91c-0.8,0-1.13,0.8-0.86,1.92
			c0.27,1.1,0.99,1.91,1.8,1.91C374.38,649.87,374.7,649.06,374.43,647.96z"/>
		<path fill="#26529F" d="M378.48,647.95c-0.42-1.74,0.34-3.11,1.96-3.11c1.61,0,3.02,1.34,3.44,3.1c0.42,1.74-0.33,3.11-1.96,3.11
			C380.3,651.06,378.9,649.71,378.48,647.95z M382.5,647.94c-0.26-1.09-1-1.91-1.8-1.91c-0.8,0-1.13,0.8-0.86,1.92
			c0.27,1.1,0.99,1.91,1.8,1.91C382.45,649.86,382.77,649.05,382.5,647.94z"/>
		<path fill="#FF912B" d="M360.09,658.72c-0.42-1.74,0.34-3.11,1.96-3.11c1.61,0,3.02,1.34,3.44,3.1c0.42,1.74-0.33,3.11-1.96,3.11
			C361.91,661.82,360.51,660.48,360.09,658.72z M364.11,658.71c-0.26-1.09-1-1.91-1.8-1.91c-0.8,0-1.13,0.8-0.86,1.92
			c0.27,1.1,0.99,1.91,1.8,1.91C364.07,660.63,364.38,659.82,364.11,658.71z"/>
		<path fill="#FF912B" d="M368.78,656.99l-1,0.26l-0.54-1.08l1.62-0.52l0.91,0l1.47,6.05l-1.32,0L368.78,656.99z"/>
		<path fill="#26529F" d="M352.01,658.73c-0.42-1.74,0.34-3.11,1.96-3.11c1.61,0,3.02,1.34,3.44,3.1c0.42,1.74-0.33,3.11-1.96,3.11
			C353.83,661.84,352.44,660.49,352.01,658.73z M356.04,658.72c-0.26-1.09-1-1.91-1.8-1.91c-0.8,0-1.13,0.8-0.86,1.92
			c0.27,1.1,0.99,1.91,1.8,1.91C355.99,660.64,356.31,659.83,356.04,658.72z"/>
		<path fill="#26529F" d="M373.52,658.69c-0.42-1.74,0.34-3.11,1.96-3.11c1.61,0,3.02,1.34,3.44,3.1c0.42,1.74-0.33,3.11-1.96,3.11
			S373.94,660.45,373.52,658.69z M377.54,658.69c-0.26-1.09-1-1.91-1.8-1.91c-0.8,0-1.13,0.8-0.86,1.92c0.27,1.1,0.99,1.91,1.8,1.91
			C377.49,660.6,377.81,659.79,377.54,658.69z"/>
		<path fill="#26529F" d="M381.59,658.68c-0.42-1.74,0.34-3.11,1.96-3.11c1.61,0,3.02,1.34,3.44,3.1c0.42,1.74-0.33,3.11-1.96,3.11
			C383.41,661.79,382.01,660.44,381.59,658.68z M385.62,658.67c-0.26-1.09-1-1.91-1.8-1.91c-0.8,0-1.13,0.8-0.86,1.92
			c0.27,1.1,0.99,1.91,1.8,1.91C385.57,660.59,385.88,659.78,385.62,658.67z"/>
		<path fill="#FF912B" d="M409.36,658.72c-0.42-1.74,0.34-3.11,1.96-3.11c1.61,0,3.02,1.34,3.44,3.1c0.42,1.74-0.33,3.11-1.96,3.11
			C411.18,661.82,409.79,660.48,409.36,658.72z M413.39,658.71c-0.26-1.09-1-1.91-1.8-1.91c-0.8,0-1.13,0.8-0.86,1.92
			c0.27,1.1,0.99,1.91,1.8,1.91C413.34,660.63,413.66,659.82,413.39,658.71z"/>
		<path fill="#FF912B" d="M418.06,656.99l-1,0.26l-0.54-1.08l1.62-0.52l0.91,0l1.47,6.05l-1.32,0L418.06,656.99z"/>
		<path fill="#26529F" d="M401.29,658.73c-0.42-1.74,0.34-3.11,1.96-3.11c1.61,0,3.02,1.34,3.44,3.1c0.42,1.74-0.33,3.11-1.96,3.11
			C403.11,661.84,401.72,660.49,401.29,658.73z M405.32,658.72c-0.26-1.09-1-1.91-1.8-1.91c-0.8,0-1.13,0.8-0.86,1.92
			c0.27,1.1,0.99,1.91,1.8,1.91C405.27,660.64,405.59,659.83,405.32,658.72z"/>
		<path fill="#26529F" d="M422.79,658.69c-0.42-1.74,0.34-3.11,1.96-3.11c1.61,0,3.02,1.34,3.44,3.1c0.42,1.74-0.33,3.11-1.96,3.11
			S423.22,660.45,422.79,658.69z M426.82,658.69c-0.26-1.09-1-1.91-1.8-1.91c-0.8,0-1.13,0.8-0.86,1.92c0.27,1.1,0.99,1.91,1.8,1.91
			C426.77,660.6,427.09,659.79,426.82,658.69z"/>
		<path fill="#26529F" d="M430.87,658.68c-0.42-1.74,0.34-3.11,1.96-3.11c1.61,0,3.02,1.34,3.44,3.1c0.42,1.74-0.33,3.11-1.96,3.11
			C432.69,661.79,431.29,660.44,430.87,658.68z M434.89,658.67c-0.26-1.09-1-1.91-1.8-1.91c-0.8,0-1.13,0.8-0.86,1.92
			c0.27,1.1,0.99,1.91,1.8,1.91C434.84,660.59,435.16,659.78,434.89,658.67z"/>
		<path fill="#FF912B" d="M521.55,658.72c-0.42-1.74,0.34-3.11,1.96-3.11c1.61,0,3.02,1.34,3.44,3.1c0.42,1.74-0.33,3.11-1.96,3.11
			C523.37,661.82,521.98,660.48,521.55,658.72z M525.58,658.71c-0.26-1.09-1-1.91-1.8-1.91c-0.8,0-1.13,0.8-0.86,1.92
			c0.27,1.1,0.99,1.91,1.8,1.91C525.53,660.63,525.85,659.82,525.58,658.71z"/>
		<path fill="#FF912B" d="M530.24,656.99l-1,0.26l-0.54-1.08l1.62-0.52l0.91,0l1.47,6.05l-1.32,0L530.24,656.99z"/>
		<path fill="#26529F" d="M513.48,658.73c-0.42-1.74,0.34-3.11,1.96-3.11c1.61,0,3.02,1.34,3.44,3.1c0.42,1.74-0.33,3.11-1.96,3.11
			C515.3,661.84,513.91,660.49,513.48,658.73z M517.51,658.72c-0.26-1.09-1-1.91-1.8-1.91c-0.8,0-1.13,0.8-0.86,1.92
			c0.27,1.1,0.99,1.91,1.8,1.91C517.46,660.64,517.78,659.83,517.51,658.72z"/>
		<path fill="#26529F" d="M534.98,658.69c-0.42-1.74,0.34-3.11,1.96-3.11c1.61,0,3.02,1.34,3.44,3.1c0.42,1.74-0.33,3.11-1.96,3.11
			C536.8,661.8,535.41,660.45,534.98,658.69z M539.01,658.69c-0.26-1.09-1-1.91-1.8-1.91c-0.8,0-1.13,0.8-0.86,1.92
			c0.27,1.1,0.99,1.91,1.8,1.91C538.96,660.6,539.28,659.79,539.01,658.69z"/>
		<path fill="#26529F" d="M543.05,658.68c-0.42-1.74,0.34-3.11,1.96-3.11c1.61,0,3.02,1.34,3.44,3.1c0.42,1.74-0.33,3.11-1.96,3.11
			C544.87,661.79,543.48,660.44,543.05,658.68z M547.08,658.67c-0.26-1.09-1-1.91-1.8-1.91c-0.8,0-1.13,0.8-0.86,1.92
			c0.27,1.1,0.99,1.91,1.8,1.91C547.03,660.59,547.35,659.78,547.08,658.67z"/>
		<path fill="#FF912B" d="M570.83,658.72c-0.42-1.74,0.34-3.11,1.96-3.11c1.61,0,3.02,1.34,3.44,3.1c0.42,1.74-0.33,3.11-1.96,3.11
			C572.65,661.82,571.26,660.48,570.83,658.72z M574.86,658.71c-0.26-1.09-1-1.91-1.8-1.91c-0.8,0-1.13,0.8-0.86,1.92
			c0.27,1.1,0.99,1.91,1.8,1.91C574.81,660.63,575.13,659.82,574.86,658.71z"/>
		<path fill="#FF912B" d="M579.52,656.99l-1,0.26l-0.54-1.08l1.62-0.52l0.91,0l1.47,6.05l-1.32,0L579.52,656.99z"/>
		<path fill="#26529F" d="M562.76,658.73c-0.42-1.74,0.34-3.11,1.96-3.11c1.61,0,3.02,1.34,3.44,3.1c0.42,1.74-0.33,3.11-1.96,3.11
			C564.58,661.84,563.18,660.49,562.76,658.73z M566.79,658.72c-0.26-1.09-1-1.91-1.8-1.91c-0.8,0-1.13,0.8-0.86,1.92
			c0.27,1.1,0.99,1.91,1.8,1.91C566.74,660.64,567.05,659.83,566.79,658.72z"/>
		<path fill="#26529F" d="M584.26,658.69c-0.42-1.74,0.34-3.11,1.96-3.11c1.61,0,3.02,1.34,3.44,3.1c0.42,1.74-0.33,3.11-1.96,3.11
			C586.08,661.8,584.69,660.45,584.26,658.69z M588.29,658.69c-0.26-1.09-1-1.91-1.8-1.91c-0.8,0-1.13,0.8-0.86,1.92
			c0.27,1.1,0.99,1.91,1.8,1.91C588.24,660.6,588.55,659.79,588.29,658.69z"/>
		<path fill="#26529F" d="M592.33,658.68c-0.42-1.74,0.34-3.11,1.96-3.11c1.61,0,3.02,1.34,3.44,3.1c0.42,1.74-0.33,3.11-1.96,3.11
			C594.15,661.79,592.76,660.44,592.33,658.68z M596.36,658.67c-0.26-1.09-1-1.91-1.8-1.91c-0.8,0-1.13,0.8-0.86,1.92
			c0.27,1.1,0.99,1.91,1.8,1.91C596.31,660.59,596.63,659.78,596.36,658.67z"/>
		<path fill="#26529F" d="M386.55,647.94c-0.42-1.74,0.34-3.11,1.96-3.11c1.61,0,3.02,1.34,3.44,3.1c0.42,1.74-0.33,3.11-1.96,3.11
			C388.37,651.04,386.97,649.7,386.55,647.94z M390.58,647.93c-0.26-1.09-1-1.91-1.8-1.91c-0.8,0-1.13,0.8-0.86,1.92
			c0.27,1.1,0.99,1.91,1.8,1.91C390.53,649.85,390.84,649.04,390.58,647.93z"/>
		<path fill="#26529F" d="M394.62,647.92c-0.42-1.74,0.34-3.11,1.96-3.11c1.61,0,3.02,1.34,3.44,3.1c0.42,1.74-0.33,3.11-1.96,3.11
			C396.44,651.03,395.05,649.68,394.62,647.92z M398.65,647.92c-0.26-1.09-1-1.91-1.8-1.91c-0.8,0-1.13,0.8-0.86,1.92
			c0.27,1.1,0.99,1.91,1.8,1.91C398.6,649.83,398.92,649.02,398.65,647.92z"/>
		<path fill="#26529F" d="M542.19,647.94c-0.42-1.74,0.34-3.11,1.96-3.11c1.61,0,3.02,1.34,3.44,3.1c0.42,1.74-0.33,3.11-1.96,3.11
			C544.01,651.04,542.62,649.7,542.19,647.94z M546.22,647.93c-0.26-1.09-1-1.91-1.8-1.91c-0.8,0-1.13,0.8-0.86,1.92
			c0.27,1.1,0.99,1.91,1.8,1.91C546.17,649.85,546.49,649.04,546.22,647.93z"/>
		<path fill="#26529F" d="M550.26,647.92c-0.42-1.74,0.34-3.11,1.96-3.11c1.61,0,3.02,1.34,3.44,3.1c0.42,1.74-0.33,3.11-1.96,3.11
			C552.08,651.03,550.69,649.68,550.26,647.92z M554.29,647.92c-0.26-1.09-1-1.91-1.8-1.91c-0.8,0-1.13,0.8-0.86,1.92
			c0.27,1.1,0.99,1.91,1.8,1.91C554.24,649.83,554.56,649.02,554.29,647.92z"/>
	</g>
</g>
</svg>
