<?xml version="1.0" encoding="utf-8"?>
<!-- Generator: Adobe Illustrator 24.1.1, SVG Export Plug-In . SVG Version: 6.00 Build 0)  -->
<svg version="1.1" xmlns="http://www.w3.org/2000/svg" xmlns:xlink="http://www.w3.org/1999/xlink" x="0px" y="0px"
	 viewBox="0 0 450 450" enable-background="new 0 0 450 450" xml:space="preserve">
<g id="Layer_3">
	<g>
		<g opacity="0.5">
			<path fill="#958FED" d="M176.71,244.42h-35.88v-48.27h35.88V244.42z M141.83,243.42h33.88v-46.27h-33.88V243.42z"/>
		</g>
		<g opacity="0.5">
			<path fill="#958FED" d="M298.64,103.43h-31.36V67.55h31.36V103.43z M268.29,102.43h29.36V68.55h-29.36V102.43z"/>
		</g>
		<g opacity="0.5">
			<path fill="#958FED" d="M264.01,62.19h-31.36V48.06h31.36V62.19z M233.65,61.19h29.36V49.06h-29.36V61.19z"/>
		</g>
		<g opacity="0.5">
			<path fill="#FED27B" d="M173.22,240.21h-14.95v-18.43h14.95V240.21z M159.27,239.21h12.95v-16.43h-12.95V239.21z"/>
		</g>
		<g opacity="0.5">
			<rect x="194.09" y="102.17" fill="#FED27B" width="66.61" height="1"/>
		</g>
		<g opacity="0.5">
			<polygon fill="#FED27B" points="216.5,94.96 194.09,94.96 194.09,93.96 215.5,93.96 215.5,59 216.5,59 			"/>
		</g>
		<g opacity="0.5">
			<path fill="#FED27B" d="M209.82,74.73h-16.23V58.5h16.23V74.73z M194.59,73.73h14.23V59.5h-14.23V73.73z"/>
		</g>
		<g opacity="0.5">
			<rect x="132.52" y="215.1" fill="#958FED" width="29.3" height="1"/>
		</g>
		<g opacity="0.5">
			<rect x="132.52" y="219.99" fill="#FED27B" width="14.41" height="1"/>
		</g>
		<g opacity="0.5">
			<path fill="#958FED" d="M68.16,105.89H50.58L41.8,90.67l8.79-15.22h17.57l8.79,15.22L68.16,105.89z M51.16,104.89h16.42
				l8.21-14.22l-8.21-14.22H51.16l-8.21,14.22L51.16,104.89z"/>
		</g>
		<g opacity="0.5">
			<path fill="#FED27B" d="M61.76,102.38c-3.37,0-6.11-2.74-6.11-6.11s2.74-6.11,6.11-6.11s6.11,2.74,6.11,6.11
				S65.13,102.38,61.76,102.38z M61.76,91.17c-2.82,0-5.11,2.29-5.11,5.11s2.29,5.11,5.11,5.11s5.11-2.29,5.11-5.11
				S64.58,91.17,61.76,91.17z"/>
		</g>
		<g opacity="0.5">
			<path fill="#FED27B" d="M81.15,76.56L68.48,54.63h25.32L81.15,76.56z M70.22,55.63l10.93,18.93l10.93-18.93H70.22z"/>
		</g>
		<g opacity="0.5">
			<path fill="#FED27B" d="M308.27,101.59l-6.96-12.05h13.92L308.27,101.59z M303.04,90.53l5.23,9.05l5.23-9.05H303.04z"/>
		</g>
		<g opacity="0.5">
			<path fill="#958FED" d="M185.28,61.22h-30.95l15.47-26.8L185.28,61.22z M156.06,60.22h27.48l-13.74-23.8L156.06,60.22z"/>
		</g>
		<g opacity="0.5">
			<rect x="101.37" y="64.85" fill="#958FED" width="48.86" height="1"/>
		</g>
		<g opacity="0.5">
			<rect x="101" y="58.5" fill="#FED27B" width="23.09" height="1"/>
		</g>
		<g opacity="0.5">
			<rect x="30.95" y="59" fill="#FED27B" width="1" height="91.45"/>
		</g>
		<g opacity="0.5">
			<polygon fill="#FED27B" points="37,150.11 36,150.11 36,114.23 63.36,114.23 63.36,115.23 37,115.23 			"/>
		</g>
		<g opacity="0.5">
			<path fill="#FED27B" d="M84.53,126.84c-3.48,0-6.31-2.83-6.31-6.31c0-3.48,2.83-6.31,6.31-6.31c3.48,0,6.31,2.83,6.31,6.31
				C90.84,124.01,88.01,126.84,84.53,126.84z M84.53,115.23c-2.93,0-5.31,2.38-5.31,5.31c0,2.93,2.38,5.31,5.31,5.31
				c2.93,0,5.31-2.38,5.31-5.31C89.84,117.61,87.46,115.23,84.53,115.23z"/>
		</g>
		<g opacity="0.5">
			<path fill="#958FED" d="M230.12,95.81c-4.75,0-8.62-3.87-8.62-8.62c0-4.75,3.87-8.62,8.62-8.62c4.75,0,8.62,3.87,8.62,8.62
				C238.74,91.94,234.88,95.81,230.12,95.81z M230.12,79.57c-4.2,0-7.62,3.42-7.62,7.62c0,4.2,3.42,7.62,7.62,7.62
				c4.2,0,7.62-3.42,7.62-7.62C237.74,82.99,234.32,79.57,230.12,79.57z"/>
		</g>
		<g opacity="0.5">
			<path fill="#958FED" d="M64.19,234.69c-2.45,0-4.44-1.99-4.44-4.44c0-2.45,1.99-4.44,4.44-4.44c2.45,0,4.44,1.99,4.44,4.44
				C68.63,232.7,66.64,234.69,64.19,234.69z M64.19,226.82c-1.9,0-3.44,1.54-3.44,3.44c0,1.89,1.54,3.44,3.44,3.44
				c1.89,0,3.44-1.54,3.44-3.44C67.63,228.36,66.09,226.82,64.19,226.82z"/>
		</g>
		<g opacity="0.5">
			<polygon fill="#FED27B" points="53.15,229 52.15,229 52.15,163.03 66.87,163.03 66.87,126.34 67.87,126.34 67.87,164.03 
				53.15,164.03 			"/>
		</g>
		<g opacity="0.5">
			<polygon fill="#958FED" points="48.17,197.2 47.17,197.2 47.17,158.22 62.27,158.22 62.27,143.47 63.27,143.47 63.27,159.22 
				48.17,159.22 			"/>
		</g>
		<g opacity="0.5">
			<rect x="407.37" y="125.43" fill="#FED27B" width="29.47" height="1"/>
		</g>
		<g opacity="0.5">
			<rect x="421.61" y="105.72" fill="#FED27B" width="1" height="40.41"/>
		</g>
		<g opacity="0.5">
			<path fill="#FED27B" d="M426.43,131.5h-9.12v-11.14h9.12V131.5z M418.31,130.5h7.12v-9.14h-7.12V130.5z"/>
		</g>
		<g opacity="0.5">
			<rect x="260.53" y="78.57" fill="#FED27B" width="22.44" height="1"/>
		</g>
		<g opacity="0.5">
			<polygon fill="#FED27B" points="282.47,76.06 259.72,76.06 259.72,75.06 281.47,75.06 281.47,48.56 282.47,48.56 			"/>
		</g>
		<g opacity="0.5">
			<rect x="175.71" y="257.96" fill="#FED27B" width="1" height="82.65"/>
		</g>
		<g opacity="0.5">
			<polygon fill="#958FED" points="170,284.5 150.23,284.5 150.23,283.5 169,283.5 169,258.66 170,258.66 			"/>
		</g>
		<g opacity="0.5">
			<path fill="#958FED" d="M140.65,311.62c-4.21,0-7.64-3.43-7.64-7.64c0-4.21,3.43-7.64,7.64-7.64s7.64,3.43,7.64,7.64
				C148.3,308.19,144.87,311.62,140.65,311.62z M140.65,297.34c-3.66,0-6.64,2.98-6.64,6.64c0,3.66,2.98,6.64,6.64,6.64
				s6.64-2.98,6.64-6.64C147.3,300.32,144.32,297.34,140.65,297.34z"/>
		</g>
		<g opacity="0.5">
			<path fill="#FED27B" d="M316.3,78.9c-2.04,0-3.7-1.66-3.7-3.7c0-2.04,1.66-3.7,3.7-3.7c2.04,0,3.7,1.66,3.7,3.7
				C320,77.24,318.34,78.9,316.3,78.9z M316.3,72.5c-1.49,0-2.7,1.21-2.7,2.7c0,1.49,1.21,2.7,2.7,2.7c1.49,0,2.7-1.21,2.7-2.7
				C319,73.71,317.79,72.5,316.3,72.5z"/>
		</g>
		<g opacity="0.5">
			<path fill="#958FED" d="M422.06,175.88c-3.45,0-6.25-2.8-6.25-6.25c0-3.45,2.8-6.25,6.25-6.25c3.45,0,6.25,2.8,6.25,6.25
				C428.32,173.08,425.51,175.88,422.06,175.88z M422.06,164.38c-2.9,0-5.25,2.36-5.25,5.25c0,2.9,2.36,5.25,5.25,5.25
				c2.9,0,5.25-2.36,5.25-5.25C427.32,166.73,424.96,164.38,422.06,164.38z"/>
		</g>
		<g opacity="0.5">
			<path fill="#FED27B" d="M31.45,243.03c-3.45,0-6.25-2.8-6.25-6.25c0-3.45,2.8-6.25,6.25-6.25s6.25,2.8,6.25,6.25
				C37.7,240.22,34.89,243.03,31.45,243.03z M31.45,231.53c-2.9,0-5.25,2.36-5.25,5.25c0,2.9,2.36,5.25,5.25,5.25
				s5.25-2.36,5.25-5.25C36.7,233.88,34.34,231.53,31.45,231.53z"/>
		</g>
		<g opacity="0.5">
			<path fill="#FED27B" d="M185.02,72.11c-2.04,0-3.7-1.66-3.7-3.7c0-2.04,1.66-3.7,3.7-3.7s3.7,1.66,3.7,3.7
				C188.72,70.45,187.06,72.11,185.02,72.11z M185.02,65.71c-1.49,0-2.7,1.21-2.7,2.7c0,1.49,1.21,2.7,2.7,2.7
				c1.49,0,2.7-1.21,2.7-2.7C187.72,66.92,186.51,65.71,185.02,65.71z"/>
		</g>
		<g opacity="0.5">
			<path fill="#FED27B" d="M400.11,229.5c-8.33,0-15.11-6.78-15.11-15.11c0-8.33,6.78-15.11,15.11-15.11
				c8.33,0,15.11,6.78,15.11,15.11C415.22,222.72,408.44,229.5,400.11,229.5z M400.11,200.28c-7.78,0-14.11,6.33-14.11,14.11
				c0,7.78,6.33,14.11,14.11,14.11c7.78,0,14.11-6.33,14.11-14.11C414.22,206.61,407.89,200.28,400.11,200.28z"/>
		</g>
		<g opacity="0.5">
			<path fill="#FED27B" d="M392.56,183.03h-14.13l7.06-12.23L392.56,183.03z M380.17,182.03h10.66l-5.33-9.23L380.17,182.03z"/>
		</g>
		<g opacity="0.5">
			<path fill="#958FED" d="M429.87,309.84h-14.13l7.06-12.23L429.87,309.84z M417.48,308.84h10.66l-5.33-9.23L417.48,308.84z"/>
		</g>
		<g opacity="0.5">
			<path fill="#FED27B" d="M49.73,288.21H18.36l15.68-27.17L49.73,288.21z M20.09,287.21h27.9l-13.95-24.17L20.09,287.21z"/>
		</g>
		<g opacity="0.5">
			<path fill="#958FED" d="M172.52,182.9h-6.04l-3.02-5.23l3.02-5.23h6.04l3.02,5.23L172.52,182.9z M167.06,181.9h4.89l2.44-4.23
				l-2.44-4.23h-4.89l-2.44,4.23L167.06,181.9z"/>
		</g>
		<g opacity="0.5">
			<path fill="#FED27B" d="M157.26,339.27H145.8l-5.73-9.93l5.73-9.93h11.47l5.73,9.93L157.26,339.27z M146.38,338.27h10.31
				l5.16-8.93l-5.16-8.93h-10.31l-5.16,8.93L146.38,338.27z"/>
		</g>
		<g opacity="0.5">
			<path fill="#FED27B" d="M152.02,272.25h-10.45l-5.22-9.05l5.22-9.05h10.45l5.22,9.05L152.02,272.25z M142.15,271.25h9.29
				l4.65-8.05l-4.65-8.05h-9.29l-4.65,8.05L142.15,271.25z"/>
		</g>
		<g opacity="0.5">
			<path fill="#958FED" d="M367.87,93.61h-20.53l-10.26-17.78l10.26-17.78h20.53l10.26,17.78L367.87,93.61z M347.92,92.61h19.37
				l9.69-16.78l-9.69-16.78h-19.37l-9.69,16.78L347.92,92.61z"/>
		</g>
		<g opacity="0.5">
			<path fill="#FED27B" d="M62.81,284.36h-8.95l-4.48-7.75l4.48-7.75h8.95l4.48,7.75L62.81,284.36z M54.44,283.36h7.8l3.9-6.75
				l-3.9-6.75h-7.8l-3.9,6.75L54.44,283.36z"/>
		</g>
		<g opacity="0.5">
			<path fill="#FED27B" d="M407.82,190.23h-8.21v-8.2h8.21V190.23z M400.61,189.23h6.21v-6.2h-6.21V189.23z"/>
		</g>
		<g opacity="0.5">
			<path fill="#FED27B" d="M42.88,198.92H27v-15.88h15.88V198.92z M28,197.92h13.88v-13.88H28V197.92z"/>
		</g>
		<g opacity="0.5">
			<path fill="#FED27B" d="M171.22,299.79h-7.68v-7.68h7.68V299.79z M164.54,298.79h5.68v-5.68h-5.68V298.79z"/>
		</g>
		<g opacity="0.5">
			<rect x="330.19" y="100.99" fill="#FED27B" width="52.38" height="1"/>
		</g>
		<g opacity="0.5">
			<rect x="331.77" y="65.62" fill="#FED27B" width="1" height="23.27"/>
		</g>
		<g opacity="0.5">
			<rect x="357.11" y="42.98" fill="#FED27B" width="1" height="23.5"/>
		</g>
		<g opacity="0.5">
			<rect x="362.07" y="42.98" fill="#FED27B" width="1" height="39.5"/>
		</g>
		<g opacity="0.5">
			<rect x="403.71" y="210.49" fill="#FED27B" width="30.79" height="1"/>
		</g>
		<g opacity="0.5">
			<rect x="418.61" y="185.21" fill="#958FED" width="1" height="55.77"/>
		</g>
		<g opacity="0.5">
			<rect x="385.5" y="157.9" fill="#FED27B" width="14.61" height="1"/>
		</g>
		<g opacity="0.5">
			<rect x="399.61" y="123.76" fill="#FED27B" width="1" height="34.64"/>
		</g>
		<g opacity="0.5">
			<rect x="392.31" y="101.49" fill="#958FED" width="1" height="49.01"/>
		</g>
		<g opacity="0.5">
			<rect x="155.17" y="330.13" fill="#958FED" width="25.1" height="1"/>
		</g>
		<g opacity="0.5">
			<rect x="170.72" y="323.65" fill="#FED27B" width="9.55" height="1"/>
		</g>
		<g opacity="0.5">
			<rect x="39.12" y="241.7" fill="#958FED" width="1" height="46.56"/>
		</g>
		<g opacity="0.5">
			<rect x="54.72" y="276.06" fill="#FED27B" width="1" height="23.29"/>
		</g>
		<g opacity="0.5">
			<rect x="19.22" y="204.17" fill="#FED27B" width="28.44" height="1"/>
		</g>
		<g opacity="0.5">
			<rect x="31.45" y="210.49" fill="#958FED" width="10.93" height="1"/>
		</g>
		<g opacity="0.5">
			<path fill="#FED27B" d="M404.86,271.83H391.2v-13.67h13.67V271.83z M392.2,270.83h11.67v-11.67H392.2V270.83z"/>
		</g>
		<g opacity="0.5">
			<path fill="#FED27B" d="M426.14,293.1h-28.61V264.5h28.61V293.1z M398.53,292.1h26.61V265.5h-26.61V292.1z"/>
		</g>
		<g opacity="0.5">
			<path fill="#FED27B" d="M386.82,108.33H375.7V97.2h11.12V108.33z M376.7,107.33h9.12V98.2h-9.12V107.33z"/>
		</g>
		<g opacity="0.5">
			<path fill="#958FED" d="M404.36,324.84c-5.84,0-10.58-4.75-10.58-10.58c0-5.84,4.75-10.58,10.58-10.58
				c5.84,0,10.58,4.75,10.58,10.58C414.95,320.09,410.2,324.84,404.36,324.84z M404.36,304.67c-5.29,0-9.58,4.3-9.58,9.58
				c0,5.29,4.3,9.58,9.58,9.58c5.29,0,9.58-4.3,9.58-9.58C413.95,308.97,409.65,304.67,404.36,304.67z"/>
		</g>
		<g opacity="0.5">
			<rect x="403.86" y="281.95" fill="#FED27B" width="1" height="38.17"/>
		</g>
		<g opacity="0.5">
			<rect x="408.12" y="286.53" fill="#FED27B" width="1" height="55.12"/>
		</g>
		<g opacity="0.5">
			<rect x="408.62" y="236.28" fill="#FED27B" width="28.38" height="1"/>
		</g>
		<g opacity="0.5">
			<rect x="392.81" y="243.42" fill="#958FED" width="19.03" height="1"/>
		</g>
		<g opacity="0.5">
			<rect x="401.82" y="52.25" fill="#FED27B" width="1" height="57.55"/>
		</g>
		<g opacity="0.5">
			<rect x="411.33" y="52.25" fill="#FED27B" width="1" height="32.32"/>
		</g>
		<g opacity="0.5">
			<rect x="409.27" y="86.04" fill="#FED27B" width="19.67" height="1"/>
		</g>
		<g opacity="0.5">
			<rect x="250.28" y="55.83" fill="#FED27B" width="81.99" height="1"/>
		</g>
	</g>
</g>
<g id="Layer_1">
	<g>
		<rect x="191.1" y="112.21" fill="#A6988B" width="185.1" height="254.15"/>
		<polygon fill="#ECE4DA" points="185.02,127.95 185.02,366.36 251.44,366.36 251.44,367.15 370.12,367.15 370.12,127.95 		"/>
		<path fill="#A6988B" d="M362.27,361.04c1.37,0,2.48-1.22,2.48-2.72c0-1.5-1.11-2.72-2.48-2.72c-1.37,0-2.48,1.22-2.48,2.72
			C359.79,359.82,360.9,361.04,362.27,361.04z"/>
		<path fill="#A6988B" d="M328.36,361.04c1.37,0,2.48-1.22,2.48-2.72c0-1.5-1.11-2.72-2.48-2.72c-1.37,0-2.48,1.22-2.48,2.72
			C325.88,359.82,326.99,361.04,328.36,361.04z"/>
		<path fill="#A6988B" d="M294.44,361.04c1.37,0,2.48-1.22,2.48-2.72c0-1.5-1.11-2.72-2.48-2.72s-2.48,1.22-2.48,2.72
			C291.96,359.82,293.07,361.04,294.44,361.04z"/>
		<path fill="#A6988B" d="M260.53,361.04c1.37,0,2.48-1.22,2.48-2.72c0-1.5-1.11-2.72-2.48-2.72c-1.37,0-2.48,1.22-2.48,2.72
			C258.05,359.82,259.16,361.04,260.53,361.04z"/>
		<path fill="#A6988B" d="M226.61,361.04c1.37,0,2.48-1.22,2.48-2.72c0-1.5-1.11-2.72-2.48-2.72c-1.37,0-2.48,1.22-2.48,2.72
			C224.13,359.82,225.24,361.04,226.61,361.04z"/>
		<path fill="#A6988B" d="M192.69,361.04c1.37,0,2.48-1.22,2.48-2.72c0-1.5-1.11-2.72-2.48-2.72c-1.37,0-2.48,1.22-2.48,2.72
			C190.21,359.82,191.32,361.04,192.69,361.04z"/>
		<path fill="#A6988B" d="M362.27,361.04c1.37,0,2.48-1.22,2.48-2.72c0-1.5-1.11-2.72-2.48-2.72c-1.37,0-2.48,1.22-2.48,2.72
			C359.79,359.82,360.9,361.04,362.27,361.04z"/>
		<path fill="#A6988B" d="M328.36,361.04c1.37,0,2.48-1.22,2.48-2.72c0-1.5-1.11-2.72-2.48-2.72c-1.37,0-2.48,1.22-2.48,2.72
			C325.88,359.82,326.99,361.04,328.36,361.04z"/>
		<path fill="#A6988B" d="M294.44,361.04c1.37,0,2.48-1.22,2.48-2.72c0-1.5-1.11-2.72-2.48-2.72s-2.48,1.22-2.48,2.72
			C291.96,359.82,293.07,361.04,294.44,361.04z"/>
		<path fill="#A6988B" d="M260.53,361.04c1.37,0,2.48-1.22,2.48-2.72c0-1.5-1.11-2.72-2.48-2.72c-1.37,0-2.48,1.22-2.48,2.72
			C258.05,359.82,259.16,361.04,260.53,361.04z"/>
		<path fill="#A6988B" d="M226.61,361.04c1.37,0,2.48-1.22,2.48-2.72c0-1.5-1.11-2.72-2.48-2.72c-1.37,0-2.48,1.22-2.48,2.72
			C224.13,359.82,225.24,361.04,226.61,361.04z"/>
		<rect x="185.02" y="112.21" fill="#ECE4DA" width="185.1" height="239.2"/>
		<path fill="#A6988B" d="M192.87,118.32c-1.37,0-2.48,1.22-2.48,2.72c0,1.5,1.11,2.72,2.48,2.72c1.37,0,2.48-1.22,2.48-2.72
			C195.35,119.54,194.24,118.32,192.87,118.32z"/>
		<path fill="#A6988B" d="M226.78,118.32c-1.37,0-2.48,1.22-2.48,2.72c0,1.5,1.11,2.72,2.48,2.72c1.37,0,2.48-1.22,2.48-2.72
			C229.26,119.54,228.15,118.32,226.78,118.32z"/>
		<path fill="#A6988B" d="M260.7,118.32c-1.37,0-2.48,1.22-2.48,2.72c0,1.5,1.11,2.72,2.48,2.72c1.37,0,2.48-1.22,2.48-2.72
			C263.18,119.54,262.07,118.32,260.7,118.32z"/>
		<path fill="#A6988B" d="M294.62,118.32c-1.37,0-2.48,1.22-2.48,2.72c0,1.5,1.11,2.72,2.48,2.72c1.37,0,2.48-1.22,2.48-2.72
			C297.1,119.54,295.98,118.32,294.62,118.32z"/>
		<path fill="#A6988B" d="M328.53,118.32c-1.37,0-2.48,1.22-2.48,2.72c0,1.5,1.11,2.72,2.48,2.72c1.37,0,2.48-1.22,2.48-2.72
			C331.01,119.54,329.9,118.32,328.53,118.32z"/>
		<path fill="#A6988B" d="M362.45,118.32c-1.37,0-2.48,1.22-2.48,2.72c0,1.5,1.11,2.72,2.48,2.72c1.37,0,2.48-1.22,2.48-2.72
			C364.93,119.54,363.82,118.32,362.45,118.32z"/>
		<g>
			<path fill="#A6988B" d="M192.69,361.04c1.37,0,2.48-1.22,2.48-2.72c0-1.5-1.11-2.72-2.48-2.72c-1.37,0-2.48,1.22-2.48,2.72
				C190.21,359.82,191.32,361.04,192.69,361.04z"/>
			<path fill="#A6988B" d="M192.72,321.71c-1.37,0-2.48,1.22-2.48,2.72c0,1.5,1.11,2.72,2.48,2.72c1.37,0,2.48-1.22,2.48-2.72
				C195.2,322.93,194.09,321.71,192.72,321.71z"/>
			<path fill="#A6988B" d="M192.74,287.81c-1.37,0-2.48,1.22-2.48,2.72c0,1.5,1.11,2.72,2.48,2.72c1.37,0,2.48-1.22,2.48-2.72
				C195.22,289.03,194.11,287.81,192.74,287.81z"/>
			<path fill="#A6988B" d="M192.77,253.91c-1.37,0-2.48,1.22-2.48,2.72c0,1.5,1.11,2.72,2.48,2.72c1.37,0,2.48-1.22,2.48-2.72
				C195.25,255.13,194.14,253.91,192.77,253.91z"/>
			<path fill="#A6988B" d="M192.79,220.02c-1.37,0-2.48,1.22-2.48,2.72c0,1.5,1.11,2.72,2.48,2.72c1.37,0,2.48-1.22,2.48-2.72
				C195.27,221.23,194.16,220.02,192.79,220.02z"/>
			<path fill="#A6988B" d="M192.82,186.12c-1.37,0-2.48,1.22-2.48,2.72c0,1.5,1.11,2.72,2.48,2.72c1.37,0,2.48-1.22,2.48-2.72
				C195.3,187.34,194.19,186.12,192.82,186.12z"/>
			<path fill="#A6988B" d="M192.84,152.22c-1.37,0-2.48,1.22-2.48,2.72c0,1.5,1.11,2.72,2.48,2.72c1.37,0,2.48-1.22,2.48-2.72
				C195.32,153.44,194.21,152.22,192.84,152.22z"/>
			<path fill="#A6988B" d="M192.87,118.32c-1.37,0-2.48,1.22-2.48,2.72c0,1.5,1.11,2.72,2.48,2.72c1.37,0,2.48-1.22,2.48-2.72
				C195.35,119.54,194.24,118.32,192.87,118.32z"/>
		</g>
		<g>
			<path fill="#A6988B" d="M362.19,361.04c1.37,0,2.48-1.22,2.48-2.72c0-1.5-1.11-2.72-2.48-2.72c-1.37,0-2.48,1.22-2.48,2.72
				C359.71,359.82,360.82,361.04,362.19,361.04z"/>
			<path fill="#A6988B" d="M362.21,321.71c-1.37,0-2.48,1.22-2.48,2.72c0,1.5,1.11,2.72,2.48,2.72c1.37,0,2.48-1.22,2.48-2.72
				C364.69,322.93,363.58,321.71,362.21,321.71z"/>
			<path fill="#A6988B" d="M362.24,287.81c-1.37,0-2.48,1.22-2.48,2.72c0,1.5,1.11,2.72,2.48,2.72c1.37,0,2.48-1.22,2.48-2.72
				C364.71,289.03,363.6,287.81,362.24,287.81z"/>
			<path fill="#A6988B" d="M362.26,253.91c-1.37,0-2.48,1.22-2.48,2.72c0,1.5,1.11,2.72,2.48,2.72c1.37,0,2.48-1.22,2.48-2.72
				C364.74,255.13,363.63,253.91,362.26,253.91z"/>
			<path fill="#A6988B" d="M362.29,220.02c-1.37,0-2.48,1.22-2.48,2.72c0,1.5,1.11,2.72,2.48,2.72c1.37,0,2.48-1.22,2.48-2.72
				C364.76,221.23,363.65,220.02,362.29,220.02z"/>
			<ellipse fill="#A6988B" cx="362.31" cy="188.84" rx="2.48" ry="2.72"/>
			<ellipse fill="#A6988B" cx="362.33" cy="154.94" rx="2.48" ry="2.72"/>
			<path fill="#A6988B" d="M362.36,118.32c-1.37,0-2.48,1.22-2.48,2.72c0,1.5,1.11,2.72,2.48,2.72c1.37,0,2.48-1.22,2.48-2.72
				C364.84,119.54,363.73,118.32,362.36,118.32z"/>
		</g>
		<path fill="#A6988B" d="M226.78,118.32c-1.37,0-2.48,1.22-2.48,2.72c0,1.5,1.11,2.72,2.48,2.72c1.37,0,2.48-1.22,2.48-2.72
			C229.26,119.54,228.15,118.32,226.78,118.32z"/>
		<path fill="#A6988B" d="M260.7,118.32c-1.37,0-2.48,1.22-2.48,2.72c0,1.5,1.11,2.72,2.48,2.72c1.37,0,2.48-1.22,2.48-2.72
			C263.18,119.54,262.07,118.32,260.7,118.32z"/>
		<path fill="#A6988B" d="M294.62,118.32c-1.37,0-2.48,1.22-2.48,2.72c0,1.5,1.11,2.72,2.48,2.72c1.37,0,2.48-1.22,2.48-2.72
			C297.1,119.54,295.98,118.32,294.62,118.32z"/>
		<path fill="#A6988B" d="M328.53,118.32c-1.37,0-2.48,1.22-2.48,2.72c0,1.5,1.11,2.72,2.48,2.72c1.37,0,2.48-1.22,2.48-2.72
			C331.01,119.54,329.9,118.32,328.53,118.32z"/>
		<path fill="#A6988B" d="M362.45,118.32c-1.37,0-2.48,1.22-2.48,2.72c0,1.5,1.11,2.72,2.48,2.72c1.37,0,2.48-1.22,2.48-2.72
			C364.93,119.54,363.82,118.32,362.45,118.32z"/>
		<g>
			<rect x="201.68" y="128.01" fill="#68605A" width="145.85" height="223.39"/>
			<g>
				<g>
					<rect x="228.34" y="132.73" fill="#FFFFFF" width="102.47" height="213.95"/>
					<rect x="246.65" y="128.01" fill="#ECE4DA" width="102.47" height="223.39"/>
					<rect x="251.66" y="128" fill="#A6988B" width="102.47" height="223.41"/>
					<rect x="265.54" y="249.5" fill="#A6988B" width="3.77" height="12.72"/>
					<rect x="272.71" y="249.5" fill="#A6988B" width="3.77" height="12.72"/>
					<rect x="279.89" y="249.5" fill="#A6988B" width="3.77" height="12.72"/>
					<rect x="287.06" y="249.5" fill="#A6988B" width="3.77" height="12.72"/>
					<polygon opacity="0.15" fill="#FFFFFF" points="295.98,130.04 281.97,130.04 352.26,305.42 352.26,268.23 					"/>
					<polygon opacity="0.15" fill="#FFFFFF" points="253.52,130.04 253.52,169.95 322.26,349.37 352.26,349.37 352.26,317.52 
						277.14,130.04 					"/>
					<g>
						<rect x="350.97" y="139.86" fill="#FFFFFF" width="6.2" height="19.39"/>
						<rect x="350.97" y="199.96" fill="#FFFFFF" width="6.2" height="19.39"/>
						<rect x="350.97" y="260.06" fill="#FFFFFF" width="6.2" height="19.39"/>
						<rect x="350.97" y="320.16" fill="#FFFFFF" width="6.2" height="19.39"/>
					</g>
					<g>
						<path fill="#A6988B" d="M242.76,155.37c0,2.91-2.15,5.26-4.81,5.26c-2.65,0-4.81-2.36-4.81-5.26c0-2.91,2.15-5.26,4.81-5.26
							C240.61,150.11,242.76,152.46,242.76,155.37z"/>
						<path fill="#A6988B" d="M242.76,197.54c0,2.91-2.15,5.26-4.81,5.26c-2.65,0-4.81-2.36-4.81-5.26s2.15-5.26,4.81-5.26
							C240.61,192.27,242.76,194.63,242.76,197.54z"/>
						<path fill="#A6988B" d="M242.76,239.71c0,2.91-2.15,5.26-4.81,5.26c-2.65,0-4.81-2.36-4.81-5.26c0-2.91,2.15-5.26,4.81-5.26
							C240.61,234.44,242.76,236.8,242.76,239.71z"/>
						<path fill="#A6988B" d="M242.76,281.87c0,2.91-2.15,5.26-4.81,5.26c-2.65,0-4.81-2.36-4.81-5.26c0-2.91,2.15-5.26,4.81-5.26
							C240.61,276.61,242.76,278.97,242.76,281.87z"/>
						<path fill="#A6988B" d="M242.76,324.04c0,2.91-2.15,5.26-4.81,5.26c-2.65,0-4.81-2.36-4.81-5.26c0-2.91,2.15-5.26,4.81-5.26
							C240.61,318.78,242.76,321.13,242.76,324.04z"/>
					</g>
				</g>
				<path fill="#ECE4DA" d="M261.47,135.74c0,1.55-0.78,2.8-1.74,2.8c-0.96,0-1.74-1.25-1.74-2.8c0-1.55,0.78-2.8,1.74-2.8
					C260.69,132.94,261.47,134.2,261.47,135.74z"/>
				<path fill="#ECE4DA" d="M261.47,156.23c0,1.55-0.78,2.8-1.74,2.8c-0.96,0-1.74-1.25-1.74-2.8c0-1.55,0.78-2.8,1.74-2.8
					C260.69,153.43,261.47,154.68,261.47,156.23z"/>
				<path fill="#ECE4DA" d="M261.47,176.72c0,1.55-0.78,2.8-1.74,2.8c-0.96,0-1.74-1.25-1.74-2.8c0-1.55,0.78-2.8,1.74-2.8
					C260.69,173.92,261.47,175.17,261.47,176.72z"/>
				<path fill="#ECE4DA" d="M261.47,197.2c0,1.55-0.78,2.8-1.74,2.8c-0.96,0-1.74-1.25-1.74-2.8c0-1.55,0.78-2.8,1.74-2.8
					C260.69,194.4,261.47,195.66,261.47,197.2z"/>
				<path fill="#ECE4DA" d="M261.47,217.69c0,1.55-0.78,2.8-1.74,2.8c-0.96,0-1.74-1.25-1.74-2.8c0-1.55,0.78-2.8,1.74-2.8
					C260.69,214.89,261.47,216.14,261.47,217.69z"/>
				<path fill="#ECE4DA" d="M261.47,238.18c0,1.55-0.78,2.8-1.74,2.8c-0.96,0-1.74-1.25-1.74-2.8c0-1.55,0.78-2.8,1.74-2.8
					C260.69,235.38,261.47,236.63,261.47,238.18z"/>
				<path fill="#ECE4DA" d="M261.47,258.66c0,1.55-0.78,2.8-1.74,2.8c-0.96,0-1.74-1.25-1.74-2.8c0-1.55,0.78-2.8,1.74-2.8
					C260.69,255.86,261.47,257.12,261.47,258.66z"/>
				<path fill="#ECE4DA" d="M261.47,279.15c0,1.55-0.78,2.8-1.74,2.8c-0.96,0-1.74-1.25-1.74-2.8c0-1.55,0.78-2.8,1.74-2.8
					C260.69,276.35,261.47,277.6,261.47,279.15z"/>
				<path fill="#ECE4DA" d="M261.47,299.64c0,1.55-0.78,2.8-1.74,2.8c-0.96,0-1.74-1.25-1.74-2.8c0-1.55,0.78-2.8,1.74-2.8
					C260.69,296.84,261.47,298.09,261.47,299.64z"/>
				<path fill="#ECE4DA" d="M261.47,320.12c0,1.55-0.78,2.8-1.74,2.8c-0.96,0-1.74-1.25-1.74-2.8c0-1.55,0.78-2.8,1.74-2.8
					C260.69,317.32,261.47,318.58,261.47,320.12z"/>
				<path fill="#ECE4DA" d="M261.47,340.61c0,1.55-0.78,2.8-1.74,2.8c-0.96,0-1.74-1.25-1.74-2.8c0-1.55,0.78-2.8,1.74-2.8
					C260.69,337.81,261.47,339.06,261.47,340.61z"/>
				<path fill="#A6988B" d="M347.52,135.74c0,1.55-0.78,2.8-1.74,2.8c-0.96,0-1.74-1.25-1.74-2.8c0-1.55,0.78-2.8,1.74-2.8
					C346.74,132.94,347.52,134.2,347.52,135.74z"/>
				<path fill="#ECE4DA" d="M347.52,156.23c0,1.55-0.78,2.8-1.74,2.8c-0.96,0-1.74-1.25-1.74-2.8c0-1.55,0.78-2.8,1.74-2.8
					C346.74,153.43,347.52,154.68,347.52,156.23z"/>
				<path fill="#ECE4DA" d="M347.52,176.72c0,1.55-0.78,2.8-1.74,2.8c-0.96,0-1.74-1.25-1.74-2.8c0-1.55,0.78-2.8,1.74-2.8
					C346.74,173.92,347.52,175.17,347.52,176.72z"/>
				<path fill="#ECE4DA" d="M347.52,197.2c0,1.55-0.78,2.8-1.74,2.8c-0.96,0-1.74-1.25-1.74-2.8c0-1.55,0.78-2.8,1.74-2.8
					C346.74,194.4,347.52,195.66,347.52,197.2z"/>
				<path fill="#ECE4DA" d="M347.52,217.69c0,1.55-0.78,2.8-1.74,2.8c-0.96,0-1.74-1.25-1.74-2.8c0-1.55,0.78-2.8,1.74-2.8
					C346.74,214.89,347.52,216.14,347.52,217.69z"/>
				<path fill="#ECE4DA" d="M347.52,238.18c0,1.55-0.78,2.8-1.74,2.8c-0.96,0-1.74-1.25-1.74-2.8c0-1.55,0.78-2.8,1.74-2.8
					C346.74,235.38,347.52,236.63,347.52,238.18z"/>
				<path fill="#ECE4DA" d="M347.52,258.66c0,1.55-0.78,2.8-1.74,2.8c-0.96,0-1.74-1.25-1.74-2.8c0-1.55,0.78-2.8,1.74-2.8
					C346.74,255.86,347.52,257.12,347.52,258.66z"/>
				<path fill="#ECE4DA" d="M347.52,279.15c0,1.55-0.78,2.8-1.74,2.8c-0.96,0-1.74-1.25-1.74-2.8c0-1.55,0.78-2.8,1.74-2.8
					C346.74,276.35,347.52,277.6,347.52,279.15z"/>
				<path fill="#ECE4DA" d="M347.52,299.64c0,1.55-0.78,2.8-1.74,2.8c-0.96,0-1.74-1.25-1.74-2.8c0-1.55,0.78-2.8,1.74-2.8
					C346.74,296.84,347.52,298.09,347.52,299.64z"/>
				<path fill="#ECE4DA" d="M347.52,320.12c0,1.55-0.78,2.8-1.74,2.8c-0.96,0-1.74-1.25-1.74-2.8c0-1.55,0.78-2.8,1.74-2.8
					C346.74,317.32,347.52,318.58,347.52,320.12z"/>
				<path fill="#A6988B" d="M347.52,340.61c0,1.55-0.78,2.8-1.74,2.8c-0.96,0-1.74-1.25-1.74-2.8c0-1.55,0.78-2.8,1.74-2.8
					C346.74,337.81,347.52,339.06,347.52,340.61z"/>
				<path fill="#ECE4DA" d="M278.68,135.74c0,1.55-0.78,2.8-1.74,2.8c-0.96,0-1.74-1.25-1.74-2.8c0-1.55,0.78-2.8,1.74-2.8
					C277.9,132.94,278.68,134.2,278.68,135.74z"/>
				<path fill="#ECE4DA" d="M295.89,135.74c0,1.55-0.78,2.8-1.74,2.8c-0.96,0-1.74-1.25-1.74-2.8c0-1.55,0.78-2.8,1.74-2.8
					C295.11,132.94,295.89,134.2,295.89,135.74z"/>
				<path fill="#ECE4DA" d="M313.1,135.74c0,1.55-0.78,2.8-1.74,2.8c-0.96,0-1.74-1.25-1.74-2.8c0-1.55,0.78-2.8,1.74-2.8
					C312.32,132.94,313.1,134.2,313.1,135.74z"/>
				<path fill="#ECE4DA" d="M330.31,135.74c0,1.55-0.78,2.8-1.74,2.8c-0.96,0-1.74-1.25-1.74-2.8c0-1.55,0.78-2.8,1.74-2.8
					C329.53,132.94,330.31,134.2,330.31,135.74z"/>
				<path fill="#ECE4DA" d="M347.52,135.74c0,1.55-0.78,2.8-1.74,2.8c-0.96,0-1.74-1.25-1.74-2.8c0-1.55,0.78-2.8,1.74-2.8
					C346.74,132.94,347.52,134.2,347.52,135.74z"/>
				<path fill="#ECE4DA" d="M278.68,340.61c0,1.55-0.78,2.8-1.74,2.8c-0.96,0-1.74-1.25-1.74-2.8c0-1.55,0.78-2.8,1.74-2.8
					C277.9,337.81,278.68,339.06,278.68,340.61z"/>
				<path fill="#ECE4DA" d="M295.89,340.61c0,1.55-0.78,2.8-1.74,2.8c-0.96,0-1.74-1.25-1.74-2.8c0-1.55,0.78-2.8,1.74-2.8
					C295.11,337.81,295.89,339.06,295.89,340.61z"/>
				<path fill="#ECE4DA" d="M313.1,340.61c0,1.55-0.78,2.8-1.74,2.8c-0.96,0-1.74-1.25-1.74-2.8c0-1.55,0.78-2.8,1.74-2.8
					C312.32,337.81,313.1,339.06,313.1,340.61z"/>
				<path fill="#ECE4DA" d="M330.31,340.61c0,1.55-0.78,2.8-1.74,2.8c-0.96,0-1.74-1.25-1.74-2.8c0-1.55,0.78-2.8,1.74-2.8
					C329.53,337.81,330.31,339.06,330.31,340.61z"/>
				<path fill="#ECE4DA" d="M347.52,340.61c0,1.55-0.78,2.8-1.74,2.8c-0.96,0-1.74-1.25-1.74-2.8c0-1.55,0.78-2.8,1.74-2.8
					C346.74,337.81,347.52,339.06,347.52,340.61z"/>
			</g>
		</g>
		<g>
			<polygon fill="#FFFFFF" points="281.85,240.94 275.49,227.18 277.49,226.06 283.85,239.83 			"/>
			<polygon fill="#FFFFFF" points="277.49,223.04 275.49,221.93 281.85,208.16 283.85,209.28 			"/>
			<rect x="269.62" y="217.58" fill="#ECE4DA" width="7.53" height="13.13"/>
			<path fill="#ECE4DA" d="M279.34,224.14c0,3.62-0.98,6.56-2.19,6.56c-1.21,0-2.19-2.94-2.19-6.56c0-3.62,0.98-6.56,2.19-6.56
				C278.36,217.58,279.34,220.51,279.34,224.14z"/>
			<path fill="#ECE4DA" d="M271.81,224.14c0,3.62-0.98,6.56-2.19,6.56c-1.21,0-2.19-2.94-2.19-6.56c0-3.62,0.98-6.56,2.19-6.56
				C270.83,217.58,271.81,220.51,271.81,224.14z"/>
			<path fill="#FFFFFF" d="M279.34,246.53c-5.75,0-8.38-11.66-8.38-22.49c0-10.83,2.62-22.49,8.38-22.49
				c5.75,0,8.38,11.66,8.38,22.49C287.72,234.88,285.1,246.53,279.34,246.53z M279.32,206.47c-1.02,0.3-3.86,6.16-3.86,17.57
				c0,11.32,2.79,17.18,3.88,17.57c1.1-0.39,3.88-6.25,3.88-17.57C283.22,212.63,280.39,206.77,279.32,206.47z"/>
		</g>
	</g>
	<g>
		<g>
			<g>
				<path fill="#FCBEA7" d="M141.58,155.41c-0.05,0.12-0.1,0.25-0.17,0.37c-0.08,0.17-0.18,0.34-0.26,0.51
					c-0.79,1.62-1.28,3.01-1.9,4.48c-0.02,0.05-0.02,0.07-0.03,0.1c-0.01,0.03-0.02,0.08-0.06,0.21c-0.05,0.14-0.12,0.39-0.27,0.86
					c-0.02,0.08-0.05,0.17-0.09,0.28c-0.02,0.06-0.04,0.12-0.06,0.18c-0.14,0.42-0.36,1-0.6,1.62c-0.52,1.29-1.18,2.72-1.69,3.17
					l-0.01,0.11l-0.08,0.99l-0.26,3.24c-0.35-0.08-0.7-0.14-1.05-0.21c-0.54-0.1-1.07-0.18-1.62-0.24c-1.35-0.16-2.72-0.2-4.11-0.02
					c0-0.18,0.01-0.38,0.04-0.57c0.16-1.14,0.24-2.24,0.27-3.21c0.01-0.33,0.02-0.65,0.02-0.96c0-0.06,0-0.13,0-0.19
					c-0.05-0.09-0.11-0.19-0.18-0.29c-0.37-0.65-0.86-1.55-1.43-2.3c-0.04-0.05-0.08-0.1-0.12-0.15c-0.06-0.08-0.12-0.15-0.18-0.22
					c-0.25-0.3-0.48-0.91-0.65-1.51c-0.02-0.06-0.03-0.12-0.05-0.17c-0.11-0.4-0.19-0.79-0.23-1.05c-0.06-0.38-0.22-0.73-0.32-1.1
					c-0.24-0.92-0.08-1.92-0.41-2.81c-0.04-0.09-0.08-0.19-0.12-0.28c-0.04-0.1-0.09-0.19-0.14-0.28c-0.06-0.12-0.11-0.22-0.17-0.33
					c-0.14-0.3-0.37-0.65-0.37-0.98c0-0.05,0.01-0.08,0.02-0.1c0.01-0.02,0.02-0.03,0.03-0.05c0.11-0.2,0.4-0.5,0.9-0.37
					c0.42,0.1,0.77,0.35,1.06,0.67c0.09,0.1,0.17,0.21,0.24,0.31c0.09,0.13,0.16,0.25,0.23,0.38c0.01,0.03,0.03,0.06,0.04,0.08
					c0.29,0.61,0.44,1.28,0.62,1.93c0.15,0.54,0.35,1.11,0.81,1.43c0.09,0.06,0.19,0.11,0.29,0.16c0.41-0.39,0.72-0.92,0.88-1.47
					c0.31-1.04,0.23-2.15,0.32-3.23c0.08-1.02,0.4-3.54,0.61-4.83c0.05-0.31,0.09-0.55,0.13-0.68c0.04-0.15,0.06-0.26,0.1-0.37
					c0.02-0.05,0.04-0.1,0.05-0.15c0.06-0.15,0.12-0.28,0.22-0.41c0.08-0.11,0.18-0.21,0.31-0.25c0.27-0.09,0.57,0.08,0.74,0.31
					c0.15,0.19,0.23,0.41,0.27,0.63c0.02,0.12,0.03,0.25,0.04,0.38c0.01,0.39-0.06,0.81-0.09,1.21c-0.19,2.34-0.1,4.23-0.17,6.33
					c0,0.19,0,0.46,0.03,0.67c0.1,0.01,0.2,0.01,0.3,0.02c0.33-1,0.39-2.08,0.58-3.12c0.22-1.19,0.88-4.41,1.19-5.58
					c0.04-0.16,0.07-0.27,0.1-0.35c0.05-0.13,0.1-0.25,0.14-0.37c0.09-0.2,0.19-0.39,0.33-0.55c0.09-0.1,0.21-0.2,0.34-0.24
					c0.28-0.07,0.72,0.11,0.83,0.38c0.1,0.26,0.14,0.53,0.15,0.81c0,0.14-0.01,0.28-0.02,0.42c-0.04,0.44-0.14,0.88-0.21,1.29
					c-0.45,2.47-0.57,4.47-0.89,6.69c-0.03,0.26-0.04,0.71-0.05,0.89c0.08,0.02,0.16,0.04,0.24,0.07c0.23-0.65,0.41-1.33,0.6-1.95
					c0.37-1.23,1.51-4.61,1.78-5.13c0.06-0.12,0.12-0.23,0.18-0.33c0.08-0.15,0.18-0.28,0.3-0.4c0.02-0.02,0.05-0.04,0.07-0.06
					c0.1-0.09,0.23-0.16,0.36-0.18c0.29-0.03,0.54,0.2,0.66,0.46c0.15,0.32,0.15,0.65,0.09,1c-0.02,0.13-0.06,0.28-0.1,0.41
					c-0.08,0.27-0.18,0.55-0.26,0.82c-0.69,2.24-1.19,4.03-1.72,6.06c-0.03,0.12-0.04,0.28-0.03,0.44c0.03,0.02,0.05,0.04,0.08,0.06
					c0.47-0.97,1.98-3.69,2.26-4.08c0.1-0.13,0.17-0.23,0.25-0.32c0.09-0.1,0.19-0.19,0.31-0.27c0.02-0.02,0.05-0.03,0.07-0.04
					c0.08-0.04,0.16-0.06,0.25-0.06c0.24,0.01,0.41,0.24,0.48,0.47C141.75,154.8,141.69,155.11,141.58,155.41z"/>
			</g>
		</g>
		<path opacity="0.5" fill="#FED27B" d="M131.02,168.6c-0.34-0.99-0.12-2.22,0.69-2.88c-1.56-0.52-2.73-2.07-2.81-3.71
			c-0.5,0-0.92-0.42-1.11-0.88c-1.44-3.61-0.51-4.68-2.48-6.47c0,0.33,0.23,0.68,0.37,0.98c0.05,0.11,0.1,0.21,0.16,0.32
			c0.05,0.1,0.1,0.19,0.14,0.29c0.04,0.09,0.08,0.18,0.12,0.28c0.33,0.89,0.17,1.89,0.41,2.81c0.1,0.37,0.26,0.72,0.32,1.1
			c0.05,0.26,0.13,0.65,0.23,1.05c0.02,0.06,0.03,0.11,0.05,0.17c0.17,0.6,0.39,1.21,0.65,1.51c0.06,0.07,0.12,0.14,0.18,0.22
			c0.04,0.05,0.08,0.1,0.12,0.15c0.57,0.76,1.06,1.66,1.43,2.3c0.06,0.11,0.12,0.2,0.17,0.29c0,0.06,0,0.13,0,0.2
			c0,0.3-0.01,0.62-0.02,0.95c-0.03,0.98-0.11,2.08-0.27,3.21c-0.03,0.19-0.04,0.38-0.04,0.57c1.39-0.18,2.76-0.14,4.11,0.01
			c-0.12-0.06-0.24-0.12-0.36-0.18C132.18,170.37,131.36,169.59,131.02,168.6z"/>
		<path opacity="0.5" fill="#FED27B" d="M137.5,165.13c-0.27,0.47-0.55,0.94-0.94,1.31c-0.39,0.37-0.92,0.63-1.46,0.56
			c0.57,0.82,0.79,1.87,0.6,2.85c-0.1,0.53-0.33,1.03-0.64,1.47c0.35,0.06,0.7,0.13,1.05,0.21l0.26-3.24l0.08-0.99l0.01-0.11
			c0.51-0.44,1.16-1.87,1.68-3.16C137.93,164.39,137.72,164.76,137.5,165.13z"/>
		<path fill="#2F2523" d="M129.2,168.77c2.59,0.16,5.07,0.59,7.43,1.28l-0.75,5.18l-8.03-1.57L129.2,168.77z"/>
		<path opacity="0.1" fill="#1D1D1B" d="M132.1,167.18c-0.02,0.01-0.03,0.02-0.05,0.03L132.1,167.18z"/>
	</g>
	<rect y="351.4" fill="#ECE4DA" width="450" height="98.6"/>
	<g>
		<path fill="#3E3433" d="M72.2,174.15c-6.22,7.54-8.59,20.33-11.15,31.21c-0.8,3.42,0.49,7.07,3.43,8.98
			c5.91,3.84,12.85,4.4,17.87,4.18L72.2,174.15z"/>
		<path opacity="0.4" fill="#958FED" d="M72.19,184.51c-3.17,8.9-0.61,18.84-4.83,23.39c7.23,2.68,14.12,2.38,20.76,8.73
			C80.25,206.01,72.19,184.51,72.19,184.51z"/>
		<g>
			<g>
				<path fill="#2F2524" d="M78.74,349.44c0,0.21,0.02,0.44,0.03,0.67h15.4l-0.02-0.26c0-0.08-0.01-0.15-0.03-0.24
					c0-0.05,0-0.11-0.02-0.17c-0.08-0.8-0.23-1.48-0.42-2.07c-0.8-2.38-2.48-3.16-4.6-3.42c-0.74-0.09-1.53-0.11-2.36-0.12H86.1
					c-3.65,0-6.68,0.35-7.24,4.09C78.77,348.37,78.74,348.88,78.74,349.44z"/>
				<polygon fill="#2F2524" points="78.72,349.44 78.77,350.11 78.87,351.85 94.27,351.85 94.16,350.11 94.15,349.85 94.15,349.59 
					94.13,349.44 				"/>
			</g>
			<g>
				<path fill="#2F2524" d="M111.47,348.58c0.02,0.27,0.03,0.56,0.06,0.86l0.03,0.67h24.98v-0.06c-0.01-0.21-0.05-0.41-0.09-0.61
					c-0.7-3.57-5.19-5.42-10.25-6.16c-3.86-0.56-8.02-0.48-11.1-0.03c-1.04,0.15-1.97,0.35-2.69,0.58
					C111.94,343.98,111.29,344.23,111.47,348.58z"/>
				<polygon fill="#2F2524" points="111.53,349.44 111.56,350.11 111.67,351.85 136.65,351.85 136.54,350.11 136.54,350.05 
					136.49,349.44 				"/>
			</g>
			<path fill="#3E3433" d="M77.57,346.5c0,0.64,0.5,1.1,1.29,1.41c1.33,0.5,3.55,0.62,6.02,0.54c0.46-0.04,0.94-0.06,1.39-0.08
				c2.61-0.2,5.3-0.6,7.41-1.02c0.7-0.14,1.33-0.24,1.87-0.38l1.29-37.61l0.04-1.49l0.6-17.17l4.98-33.03v-0.72l5.36,32.81
				l0.08,0.56c-0.02,7.89-0.32,16.44-0.4,24.74c-0.14,13.05,0.22,25.52,2.89,34.01c0.14-0.08,0.28-0.14,0.44-0.18
				c0.2-0.14,0.4-0.22,0.64-0.32c1.16-0.44,2.51-0.84,3.98-1.24c3.59-0.98,7.81-1.97,10.74-3.98v-0.08l-1.53-51.9l-1.61-28.63
				l-0.24-4.18l-0.52-8.83l-0.02-0.3l-0.3-5.54l-0.42-7.11l-0.2-3.43l-0.06-1.33l-0.14-2.29l-0.14-2.31v-0.06l-0.14-2.71H78.76
				c-0.08,1.02-0.16,2.01-0.18,3.03c-0.04,0.68-0.06,1.37-0.06,2.05c-0.02,2.51,0.1,4.94,0.32,7.31c0.04,0.4,0.08,0.82,0.14,1.2
				c0.28,2.45,0.7,4.8,1.22,7.09c0.16,0.7,0.34,1.37,0.52,2.05c0.26,1.06,0.54,2.11,0.88,3.13c-0.04,0.78-0.08,1.55-0.1,2.35
				c-0.04,0.98-0.08,1.97-0.12,2.97l-0.22,4.2c-0.06,1.33-0.12,2.65-0.18,3.96c-0.44,8.71-0.82,17.05-0.76,23.43
				c0,0.66,0.02,1.27,0.04,1.87c0.06,2.37-0.14,6.18-0.48,10.74C78.68,315.26,76.21,338.97,77.57,346.5z"/>
			<path fill="#111640" d="M78.98,238.25c0.28,2.44,0.69,4.8,1.22,7.09c0.16,0.69,0.33,1.37,0.51,2.04
				c0.26,1.06,0.55,2.11,0.89,3.14c-0.08,1.76-0.16,3.53-0.24,5.33l-0.2,4.2c-0.06,1.33-0.14,2.64-0.19,3.96
				c4.08-0.33,9.04-0.26,14.2-0.15c1.9,3.75,1.66,8.43,1.24,12.72c-0.17,1.83-0.36,3.69-1.04,5.41c-0.68,1.72-1.91,3.3-3.62,3.96
				c1.81,1.62,2.82,3.98,3.32,6.36c0.5,2.38,0.52,4.83,0.68,7.27c0.19,3.28,0.63,6.55,1.11,9.79l0.06-1.5l0.6-17.16l4.98-33.04
				v-0.71l5.35,32.82l0.09,0.55c-0.02,7.9-0.32,16.44-0.41,24.75c0.02,0.15,0.03,0.3,0.06,0.45c0.3-3.17,0.53-6.35,0.68-9.54
				c0.07-1.48,0.12-2.98,0.54-4.41c0.27-0.94,0.7-1.83,1.02-2.76c1.12-3.28,0.8-7.02,2.51-10.05c0.15-0.26,0.32-0.54,0.36-0.85
				c0.05-0.35-0.08-0.69-0.2-1.02c-2.63-7.28-3.61-15.13-2.91-22.84c5.11-0.07,9.83-0.39,13.5-1.3l-0.24-4.19l-0.53-9.12l-0.32-5.54
				l-0.41-7.12c-7.57-0.11-15.14,1.03-22.72,1.39C92.22,238.48,85.59,238.2,78.98,238.25z"/>
			<polygon fill="#EBB677" points="96.29,160.96 100.42,160.32 101.03,164.28 96.49,164.14 			"/>
			<path fill="#FCBEA7" d="M83.92,164.48l-0.72-13.22c5.66-0.2,13.22-0.6,14.53-0.9c0,0,0.6,9.61,1.22,13.71
				C101.46,174.6,89.07,176.1,83.92,164.48z"/>
			<path fill="#FCBEA7" d="M81.45,153.71c-1.42-2.41-1.58-3.53-2.08-6.32c-1.52-12.82,6.07-12.14,10.8-12.85
				c5.57-0.59,11.36,2.36,12.93,10.81c-0.15,0.88-0.39,1.61-0.39,1.61l2.54,4.47c0.42,0.74,0.08,1.67-0.71,1.98l-1.17,0.52
				c0.11,0.86,0.76,4.51,0.76,4.51c0.25,2.17-0.18,5.68-3.1,5.85c-1.19-0.18-4.07-2.13-5.59-9.75
				C93.39,154.59,82.49,155.48,81.45,153.71z"/>
			<path fill="#3E3433" d="M83.72,159.25c15.23,1.73,11.22-5.21,11.38-6.77c-0.01-0.48,2.42-0.4,2.41-0.86
				c-0.2-7.83-3.33-12.57,3.04-12.61c2.29-0.76,2.51-8.4-11.88-5.82c-6.36,1.14-10.81,5.4-11.01,11.86
				C77.48,151.34,81.07,158.41,83.72,159.25z"/>
			<path fill="#FCBEA7" d="M91.87,151.51c0.31,2,1.94,4.11,2.93,3.96c0.99-0.15,0.82-1.84,0.52-3.84c-0.19-1.32-0.41-3.15-1.56-3.4
				C92.76,148,91.42,148.58,91.87,151.51z"/>
			<path fill="#3E3433" d="M70.67,179.51c-0.02,0.28,0,0.58,0.02,0.88v0.1l0.82,9.78l0.06,0.34c0,0,3.69,34.86,2.41,56.96
				c-0.47,8.5,5.93,3.1,35.78,7.29c5.44,0.78,10.46-3.19,10.82-8.67v-0.08c2.36-21.27-2.26-53.19-6.61-70.98
				c-1.49-2.71-1.02-4.76-3.88-6.26c-0.06-0.02-0.14-0.06-0.26-0.1c-0.26-0.1-0.7-0.24-1.26-0.42c-0.04-0.02-0.1-0.04-0.16-0.04
				c-2.95-0.96-8.75-2.71-8.75-2.71l-0.28,0.02l-0.16,0.02L85,166.57l-2.63,0.18l-6.39,3.69C72.71,172.32,70.71,175.79,70.67,179.51
				z"/>
			<path fill="#2F2523" d="M97.4,163.2c-3.91-0.75-12.55-0.13-13.99,0.47l-1.06,3.06c1.02,1.74,10.19,1.7,17.31-1.11l-0.3-0.78
				C99.04,163.99,98.3,163.37,97.4,163.2z"/>
			<path opacity="0.4" fill="#958FED" d="M106.61,182.08c2.03,14.22,4.12,28.63,7.55,42.57c1.75,7.13,3.85,14.12,6.47,20.94
				c0.52,1.39,1.08,2.77,1.65,4.14l-0.02-0.3l-0.3-5.54l-0.42-7.11l-0.2-3.43l-0.06-1.33c-0.02-1.16-0.02-2.29-0.06-3.47
				c-0.04-1.31-0.1-2.63-0.16-3.92c-0.04-0.94-0.1-1.89-0.16-2.83c-0.08-1.14-0.16-2.25-0.24-3.37c-0.04-0.5-0.08-1-0.14-1.51
				c-0.04-0.62-0.1-1.24-0.16-1.85c-0.04-0.54-0.1-1.1-0.16-1.65s-0.12-1.1-0.18-1.65c0-0.06-0.02-0.14-0.02-0.2
				C114.04,202.72,111.39,191.79,106.61,182.08z"/>
			<path fill="#3E3433" d="M101.97,179.62c0.01,0.04,0.02,0.07,0.04,0.11c4.84,11.23,13.14,30.55,21.03,30.55
				c11.31,0,13.57-35.53,13.82-37.3l-8.39-3.13c-2.61,6.53-6.69,17.39-6.69,17.39c-4.22-8.37-4.39-10.82-7.32-14.92
				C110.41,166.67,97.33,168.38,101.97,179.62z"/>
		</g>
	</g>
	<g>
		<g>
			<path fill="#111640" d="M176.12,126.34H105.3c-2.3,0-4.16-1.72-4.16-3.85V79.42c0-2.12,1.86-3.85,4.16-3.85h70.82
				c2.3,0,4.16,1.72,4.16,3.85v43.08C180.27,124.62,178.41,126.34,176.12,126.34z"/>
			<path fill="#958FED" d="M172.05,126.34h-70.82c-2.3,0-4.16-1.72-4.16-3.85V79.42c0-2.12,1.86-3.85,4.16-3.85h70.82
				c2.3,0,4.16,1.72,4.16,3.85v43.08C176.21,124.62,174.35,126.34,172.05,126.34z"/>
			<path fill="#ECE4DA" d="M172.72,79.42v43.08c0,0.1-0.23,0.35-0.66,0.35h-70.83c-0.43,0-0.66-0.24-0.66-0.35V79.42
				c0-0.1,0.23-0.35,0.66-0.35h70.83C172.49,79.07,172.72,79.31,172.72,79.42z"/>
		</g>
	</g>
	<g>
		<rect x="126.1" y="83.11" fill="#FFFFFF" width="18.32" height="22.28"/>
		<g>
			<g>
				<path fill="#958FED" d="M144.43,105.39c-0.04-0.89-0.11-1.76-0.24-2.6l-3.28,0.24v2.35H144.43z"/>
				<path fill="#958FED" d="M129.54,105.39l0.08-0.99l-3.19-2.29c-0.12,0.51-0.27,1.77-0.32,3.28H129.54z"/>
				<path fill="#3E3433" d="M131.57,96.99l-3.37-0.88c-0.98,1.6-1.65,4.49-1.98,7.49l3.4,0.81L131.57,96.99z"/>
				<path fill="#3E3433" d="M140.85,104.4l3.38-1.29c-0.46-2.86-1.02-6.23-1.84-7.01l-3.37,0.88L140.85,104.4z"/>
				<path fill="#3E3433" d="M129.13,103.04c0.06,0.72,0.06,1.52,0.04,2.35h12.26c-0.02-0.89-0.02-1.75,0.05-2.51
					c0.03-0.37,0.08-0.72,0.15-1.03c0.28-1.25,0.39-2.85,0.76-5.74c-1.56-0.65-3.6-1.53-3.94-1.85c-0.33,0.13-0.95,0.21-1.57,0.27
					c-0.62,0.06-1.25,0.1-1.59,0.13c-0.68-0.07-2.5-0.14-3.16-0.4c-0.34,0.32-2.38,1.21-3.94,1.85c0.37,2.89,0.48,4.49,0.76,5.74
					C129.04,102.21,129.09,102.62,129.13,103.04z"/>
				<path fill="#FED27B" d="M133.14,92.54l0.01,0.66c0,0,0.01,0.53,0.01,0.53l0,0.17c0,0,0.01,0.32,0.01,0.32l0.04,2.25l1.33-0.03
					l0.23-0.04l0.63,2.7l0.58-2.68l1.37-0.03l0.06-2.17l0.01-0.27l0-0.15l0.02-0.55c0,0,0.02-0.58,0.02-0.58L133.14,92.54z"/>
				<path fill="#111640" d="M133.22,97.7c-0.75-1.06-1.2-2.17-1.3-3.33l1.24-0.69c0.23,1.07,0.47,2.09,1.61,2.71L133.22,97.7z"/>
				<path fill="#111640" d="M137.38,97.7c0.75-1.06,1.2-2.17,1.3-3.33l-1.24-0.69c-0.23,1.07-0.31,2.1-1.45,2.73L137.38,97.7z"/>
				<g>
					<path opacity="0.4" fill="#958FED" d="M129.17,105.39h1.57c-0.18-0.29-0.32-0.56-0.44-0.84c-0.65-1.53-0.73-3.22-0.81-4.88
						c-0.03-0.58-0.05-1.16-0.08-1.75c-0.08,0-0.2,3.03-0.28,5.12C129.18,103.76,129.19,104.57,129.17,105.39z"/>
					<path opacity="0.4" fill="#958FED" d="M140.83,104.63c-0.03,0.26-0.07,0.51-0.12,0.76h0.72c-0.02-0.89-0.02-1.75,0.06-2.51
						c-0.25-2.24-0.69-3.82-0.74-4.21C140.81,99.43,141.14,102.13,140.83,104.63z"/>
				</g>
				<path opacity="0.5" fill="#FED27B" d="M137.45,92.67l-0.02,0.57c0,0-0.02,0.55-0.02,0.55c-0.19,0.33-0.35,0.58-0.5,0.79
					c-0.43,0.58-0.78,0.72-1.59,0.73c-0.82,0.01-1.18-0.13-1.61-0.71c-0.16-0.22-0.34-0.5-0.56-0.87l-0.01-0.53
					c0,0-0.01-0.66-0.01-0.66L137.45,92.67z"/>
				<g>
					<path fill="#FED27B" d="M135.27,84.96c1.93-0.01,3.47,1.26,3.33,3.55c-0.02,0.27-0.05,0.52-0.1,0.79
						c0.43-0.24,0.81,0.18,0.66,0.83c-0.11,0.46-0.33,1.08-0.58,1.17c-0.3,0.11-0.4-0.08-0.42-0.08c-0.14,0.66-0.19,1.25-0.43,1.6
						c-0.28,0.42-0.49,0.73-0.69,0.96c-0.45,0.53-0.83,0.67-1.7,0.67c-0.88,0.01-1.26-0.12-1.72-0.65c-0.2-0.23-0.42-0.54-0.71-0.95
						c-0.24-0.35-0.3-0.94-0.45-1.6c-0.02,0.01-0.11,0.2-0.41,0.09c-0.26-0.09-0.49-0.7-0.6-1.16c-0.16-0.65,0.21-1.08,0.64-0.84
						c-0.06-0.27-0.09-0.52-0.11-0.79C131.81,86.27,133.33,84.98,135.27,84.96z"/>
					<path fill="#3E3433" d="M138.05,85.63c0.74,0.86,0.98,1.83,0.69,3.61c-0.29,0.16-0.44,0.38-0.55,1.26
						c-0.21,0.06-0.3,0.07-0.49,0.14c1.15-4.71-0.67-4.8-1.17-4.89c-0.41-0.08-2.08-0.07-2.48,0.02c-0.5,0.1-2.32,0.21-1.11,4.91
						c-0.19-0.06-0.28-0.08-0.5-0.13c-0.12-0.88-0.28-1.1-0.57-1.26c-0.31-1.78,0-2.67,0.64-3.61
						C133.38,84.35,136.72,84.08,138.05,85.63z"/>
					<path fill="#3E3433" d="M134.11,84.97c-0.25,0-0.46,0.09-0.68,0.21c-0.3,0.16-1.06,1.27-0.9,1.52
						c0.64,1.05,2.64,1.35,4.05,1.39c-0.15-0.12-0.42-0.36-0.47-0.58c0.76,0.34,1.63,0.41,2.44,0.2c-0.25-0.69-0.52-1.4-1.06-1.9
						c-0.43-0.41-1.01-0.63-1.6-0.74C135.31,84.96,134.71,84.97,134.11,84.97z"/>
				</g>
			</g>
		</g>
	</g>
	<rect x="146.93" y="83.23" fill="#111640" width="19.78" height="2.37"/>
	<rect x="146.93" y="89.09" fill="#111640" width="14.02" height="2.37"/>
	<rect x="146.93" y="100.79" fill="#111640" width="19.78" height="2.37"/>
	<rect x="105.65" y="107.83" fill="#111640" width="60.7" height="1.97"/>
	<rect x="105.65" y="112.69" fill="#111640" width="49.52" height="1.97"/>
	<rect x="105.65" y="117.56" fill="#111640" width="60.7" height="1.97"/>
	<g>
		<path fill="#958FED" d="M121.96,105.48h-14.38c-0.74,0-1.34-0.6-1.34-1.34V84.5c0-0.74,0.6-1.34,1.34-1.34h14.38
			c0.74,0,1.34,0.6,1.34,1.34v19.65C123.29,104.88,122.7,105.48,121.96,105.48z"/>
		<g>
			<path fill="#FFFFFF" d="M121.41,86.01v2.16c0,0.29-0.24,0.52-0.52,0.52h-12.23c-0.2,0-0.38-0.12-0.46-0.28
				c-0.04-0.07-0.06-0.15-0.06-0.24v-2.16c0-0.29,0.23-0.52,0.52-0.52h12.23C121.17,85.49,121.41,85.72,121.41,86.01z"/>
			<path fill="#FFFFFF" d="M121.41,90.28v2.16c0,0.29-0.24,0.52-0.52,0.52h-12.23c-0.29,0-0.52-0.23-0.52-0.52v-2.16
				c0-0.29,0.23-0.52,0.52-0.52h12.23C121.17,89.76,121.41,89.99,121.41,90.28z"/>
			<path fill="#111640" d="M112.47,87.86c-0.02,0-0.04-0.01-0.06-0.02c-0.02-0.01-0.03-0.03-0.03-0.05v-1.44
				c0-0.02,0.01-0.04,0.03-0.05c0.02-0.01,0.04-0.01,0.06-0.01c0.02,0,0.04,0.01,0.06,0.01c0.02,0.01,0.03,0.03,0.03,0.05v1.34h0.58
				c0.02,0,0.03,0.01,0.04,0.03c0.01,0.02,0.01,0.04,0.01,0.06c0,0.02,0,0.04-0.01,0.06c-0.01,0.02-0.02,0.03-0.04,0.03H112.47z"/>
			<path fill="#111640" d="M113.8,87.88c-0.06,0-0.12-0.01-0.18-0.02c-0.06-0.02-0.11-0.04-0.15-0.08c-0.04-0.04-0.07-0.09-0.1-0.14
				c-0.02-0.06-0.04-0.13-0.04-0.22v-0.64c0-0.09,0.01-0.16,0.04-0.22c0.02-0.06,0.06-0.11,0.1-0.14c0.04-0.04,0.09-0.06,0.15-0.08
				c0.06-0.02,0.12-0.02,0.18-0.02c0.06,0,0.12,0.01,0.18,0.02c0.06,0.02,0.11,0.04,0.15,0.08c0.04,0.04,0.07,0.09,0.1,0.14
				c0.02,0.06,0.04,0.13,0.04,0.22v0.64c0,0.09-0.01,0.16-0.04,0.22c-0.02,0.06-0.06,0.11-0.1,0.14c-0.04,0.04-0.09,0.06-0.15,0.08
				C113.93,87.87,113.87,87.88,113.8,87.88z M114.09,86.77c0-0.1-0.03-0.18-0.07-0.23c-0.05-0.05-0.12-0.07-0.21-0.07
				c-0.09,0-0.16,0.02-0.21,0.07c-0.05,0.05-0.07,0.13-0.07,0.23v0.64c0,0.1,0.02,0.18,0.07,0.23c0.05,0.05,0.12,0.07,0.21,0.07
				c0.09,0,0.16-0.02,0.21-0.07c0.05-0.05,0.07-0.13,0.07-0.23V86.77z"/>
			<path fill="#111640" d="M115.28,86.71c-0.01-0.07-0.03-0.13-0.08-0.18c-0.04-0.04-0.11-0.07-0.2-0.07
				c-0.09,0-0.16,0.02-0.21,0.07c-0.05,0.05-0.07,0.13-0.07,0.23v0.64c0,0.1,0.02,0.18,0.07,0.23c0.05,0.05,0.12,0.07,0.21,0.07
				c0.09,0,0.16-0.02,0.21-0.07c0.05-0.05,0.07-0.13,0.07-0.23v-0.22h-0.25c-0.02,0-0.04-0.01-0.05-0.02
				c-0.01-0.01-0.02-0.03-0.02-0.05c0-0.02,0.01-0.04,0.02-0.05c0.01-0.02,0.03-0.02,0.05-0.02h0.37c0.02,0,0.04,0.01,0.05,0.02
				c0.02,0.05,0.02,0.35,0.02,0.35c0,0.09-0.01,0.16-0.04,0.22c-0.02,0.06-0.06,0.11-0.1,0.14c-0.04,0.04-0.09,0.06-0.15,0.08
				c-0.06,0.02-0.12,0.02-0.18,0.02c-0.06,0-0.12-0.01-0.18-0.02c-0.06-0.02-0.1-0.04-0.15-0.08c-0.04-0.04-0.07-0.09-0.1-0.14
				c-0.02-0.06-0.04-0.13-0.04-0.22v-0.64c0-0.09,0.01-0.16,0.04-0.22c0.02-0.06,0.06-0.11,0.1-0.14c0.04-0.04,0.09-0.06,0.15-0.08
				c0.06-0.02,0.11-0.02,0.18-0.02c0.07,0,0.13,0.01,0.19,0.03c0.06,0.02,0.11,0.04,0.15,0.08c0.04,0.03,0.07,0.07,0.09,0.12
				c0.02,0.05,0.03,0.1,0.03,0.16c0,0.03-0.01,0.06-0.02,0.07c-0.02,0.01-0.04,0.02-0.07,0.02c-0.02,0-0.04,0-0.06-0.01
				C115.29,86.75,115.28,86.73,115.28,86.71z"/>
			<path fill="#111640" d="M115.72,86.36c0-0.02,0.01-0.04,0.03-0.05c0.02-0.01,0.04-0.01,0.06-0.01c0.02,0,0.04,0.01,0.06,0.01
				c0.02,0.01,0.03,0.03,0.03,0.05v1.44c0,0.02-0.01,0.04-0.03,0.05c-0.02,0.01-0.04,0.02-0.06,0.02c-0.02,0-0.04-0.01-0.06-0.02
				c-0.02-0.01-0.03-0.03-0.03-0.05V86.36z"/>
			<path fill="#111640" d="M117.06,87.86c-0.02,0-0.05-0.01-0.07-0.02c-0.02-0.01-0.04-0.03-0.05-0.06l-0.56-1.07v1.09
				c0,0.02-0.01,0.04-0.03,0.05c-0.02,0.01-0.04,0.02-0.06,0.02c-0.02,0-0.04-0.01-0.06-0.02c-0.02-0.01-0.03-0.03-0.03-0.05v-1.44
				c0-0.02,0.01-0.04,0.03-0.05c0.02-0.01,0.04-0.01,0.06-0.01c0.03,0,0.06,0.01,0.08,0.03c0.02,0.02,0.04,0.05,0.06,0.08l0.53,1.04
				v-1.09c0-0.02,0.01-0.04,0.03-0.05c0.02-0.01,0.04-0.01,0.06-0.01c0.02,0,0.04,0.01,0.06,0.01c0.02,0.01,0.03,0.03,0.03,0.05
				v1.44c0,0.02-0.01,0.04-0.03,0.05C117.1,87.86,117.08,87.86,117.06,87.86z"/>
			<path fill="#111640" d="M110.07,90.64c0.03-0.06,0.05-0.06,0.07-0.06h0.4c0.06,0,0.12,0.01,0.18,0.02
				c0.06,0.02,0.1,0.04,0.14,0.08c0.04,0.04,0.07,0.08,0.1,0.14c0.02,0.06,0.04,0.13,0.04,0.21c0,0.1-0.01,0.17-0.04,0.23
				c-0.02,0.06-0.06,0.11-0.1,0.14s-0.09,0.06-0.15,0.08c-0.06,0.02-0.12,0.03-0.18,0.03h-0.29v0.55c0,0.02-0.01,0.04-0.03,0.05
				c-0.02,0.01-0.04,0.02-0.06,0.02c-0.02,0-0.04-0.01-0.06-0.02c-0.02-0.01-0.03-0.03-0.03-0.05V90.64z M110.25,90.74v0.63h0.29
				c0.09,0,0.16-0.02,0.21-0.07c0.05-0.05,0.07-0.13,0.07-0.23c0-0.13-0.03-0.21-0.07-0.26c-0.05-0.05-0.12-0.07-0.21-0.07H110.25z"
				/>
			<path fill="#111640" d="M111.13,92.14c-0.02,0-0.05-0.01-0.07-0.02c-0.02-0.01-0.04-0.03-0.04-0.05c0-0.02,0.44-1.44,0.44-1.44
				c0.01-0.02,0.02-0.04,0.04-0.05c0.02-0.01,0.04-0.01,0.07-0.01c0.02,0,0.05,0.01,0.07,0.02c0.02,0.01,0.04,0.03,0.04,0.05
				l0.44,1.42c0,0.04-0.01,0.05-0.03,0.07c-0.02,0.02-0.05,0.02-0.07,0.02c-0.06-0.04-0.16-0.36-0.16-0.36h-0.56l-0.09,0.32
				C111.18,92.12,111.16,92.14,111.13,92.14z M111.81,91.63l-0.24-0.8l-0.24,0.8H111.81z"/>
			<path fill="#111640" d="M112.67,91.99c0.09,0,0.16-0.02,0.22-0.07c0.05-0.04,0.08-0.11,0.08-0.2c0-0.07-0.02-0.13-0.05-0.17
				c-0.04-0.04-0.08-0.08-0.13-0.1c-0.05-0.03-0.11-0.05-0.17-0.07c-0.06-0.02-0.12-0.05-0.17-0.08c-0.05-0.03-0.1-0.07-0.13-0.12
				c-0.03-0.05-0.05-0.12-0.05-0.21c0-0.08,0.01-0.14,0.04-0.19c0.03-0.05,0.07-0.09,0.11-0.12c0.05-0.03,0.1-0.05,0.15-0.06
				c0.06-0.01,0.11-0.02,0.16-0.02c0.04,0,0.08,0,0.12,0.01c0.04,0.01,0.08,0.01,0.12,0.03c0.04,0.01,0.07,0.03,0.09,0.04
				c0.02,0.02,0.04,0.04,0.04,0.06c0,0.02-0.01,0.04-0.02,0.06c-0.01,0.02-0.03,0.04-0.06,0.04c-0.06-0.02-0.08-0.03-0.1-0.04
				c-0.02-0.01-0.05-0.02-0.08-0.03c-0.03-0.01-0.07-0.01-0.12-0.01c-0.04,0-0.08,0-0.11,0.01c-0.03,0.01-0.07,0.02-0.09,0.04
				c-0.03,0.02-0.05,0.04-0.06,0.07c-0.02,0.03-0.02,0.06-0.02,0.1c0,0.06,0.02,0.11,0.05,0.14c0.03,0.03,0.08,0.06,0.13,0.09
				c0.05,0.02,0.11,0.05,0.17,0.07c0.06,0.02,0.12,0.05,0.17,0.09c0.05,0.04,0.1,0.08,0.13,0.14c0.04,0.06,0.05,0.14,0.05,0.23
				c0,0.08-0.01,0.14-0.04,0.2c-0.02,0.06-0.06,0.1-0.1,0.14c-0.04,0.04-0.09,0.06-0.15,0.08c-0.06,0.02-0.12,0.03-0.19,0.03
				c-0.07,0-0.13-0.01-0.19-0.02c-0.06-0.02-0.1-0.04-0.14-0.06s-0.07-0.05-0.09-0.08c-0.02-0.03-0.03-0.05-0.03-0.08
				c0-0.02,0.01-0.04,0.02-0.06c0.02-0.02,0.03-0.03,0.05-0.03c0.02,0,0.03,0.01,0.05,0.03c0.02,0.02,0.04,0.04,0.06,0.06
				c0.03,0.02,0.06,0.04,0.1,0.06C112.56,91.98,112.61,91.99,112.67,91.99z"/>
			<path fill="#111640" d="M113.74,91.99c0.09,0,0.16-0.02,0.22-0.07c0.05-0.04,0.08-0.11,0.08-0.2c0-0.07-0.02-0.13-0.05-0.17
				c-0.03-0.04-0.08-0.08-0.13-0.1c-0.05-0.03-0.11-0.05-0.17-0.07c-0.06-0.02-0.12-0.05-0.17-0.08c-0.05-0.03-0.1-0.07-0.13-0.12
				c-0.03-0.05-0.05-0.12-0.05-0.21c0-0.08,0.01-0.14,0.04-0.19c0.03-0.05,0.07-0.09,0.11-0.12s0.1-0.05,0.15-0.06
				c0.06-0.01,0.11-0.02,0.16-0.02c0.04,0,0.08,0,0.12,0.01c0.04,0.01,0.08,0.01,0.12,0.03c0.04,0.01,0.07,0.03,0.09,0.04
				c0.02,0.02,0.04,0.04,0.04,0.06c0,0.02-0.01,0.04-0.02,0.06c-0.01,0.02-0.03,0.04-0.06,0.04c-0.06-0.02-0.08-0.03-0.1-0.04
				c-0.02-0.01-0.05-0.02-0.08-0.03c-0.03-0.01-0.07-0.01-0.12-0.01c-0.04,0-0.08,0-0.11,0.01c-0.04,0.01-0.07,0.02-0.09,0.04
				c-0.03,0.02-0.05,0.04-0.06,0.07c-0.02,0.03-0.02,0.06-0.02,0.1c0,0.06,0.02,0.11,0.05,0.14c0.03,0.03,0.08,0.06,0.13,0.09
				c0.05,0.02,0.11,0.05,0.17,0.07c0.06,0.02,0.12,0.05,0.17,0.09c0.05,0.04,0.1,0.08,0.13,0.14c0.04,0.06,0.05,0.14,0.05,0.23
				c0,0.08-0.01,0.14-0.04,0.2c-0.02,0.06-0.06,0.1-0.1,0.14s-0.09,0.06-0.15,0.08c-0.06,0.02-0.12,0.03-0.19,0.03
				c-0.07,0-0.13-0.01-0.19-0.02c-0.06-0.02-0.1-0.04-0.14-0.06c-0.04-0.02-0.07-0.05-0.09-0.08c-0.02-0.03-0.03-0.05-0.03-0.08
				c0-0.02,0.01-0.04,0.02-0.06c0.02-0.02,0.03-0.03,0.05-0.03c0.02,0,0.03,0.01,0.05,0.03c0.02,0.02,0.04,0.04,0.06,0.06
				c0.03,0.02,0.06,0.04,0.1,0.06C113.63,91.98,113.68,91.99,113.74,91.99z"/>
			<path fill="#111640" d="M115.58,92.09c-0.01,0.02-0.02,0.04-0.04,0.05c-0.02,0.01-0.04,0.02-0.07,0.02
				c-0.02,0-0.05-0.01-0.07-0.02c-0.02-0.01-0.04-0.03-0.04-0.05l-0.18-0.71l-0.19,0.71c-0.01,0.02-0.02,0.04-0.04,0.05
				c-0.02,0.01-0.04,0.02-0.07,0.02c-0.03,0-0.05-0.01-0.07-0.02c-0.02-0.01-0.03-0.03-0.04-0.05l-0.42-1.42
				c0-0.04,0.01-0.06,0.03-0.07c0.02-0.01,0.05-0.02,0.07-0.02c0.07,0.04,0.43,1.31,0.43,1.31l0.2-0.78
				c0.01-0.02,0.02-0.03,0.04-0.04c0.02-0.01,0.04-0.01,0.06-0.01c0.02,0,0.04,0,0.06,0.01c0.02,0.01,0.03,0.02,0.03,0.04l0.21,0.78
				l0.36-1.27c0.09-0.04,0.12-0.03,0.14-0.02c0.02,0.01,0.04,0.03,0.04,0.05C116,90.67,115.58,92.09,115.58,92.09z"/>
			<path fill="#111640" d="M116.63,92.15c-0.06,0-0.12-0.01-0.18-0.02c-0.06-0.02-0.11-0.04-0.15-0.08
				c-0.04-0.04-0.07-0.09-0.1-0.14c-0.02-0.06-0.04-0.13-0.04-0.22v-0.64c0-0.09,0.01-0.16,0.04-0.22c0.02-0.06,0.06-0.11,0.1-0.14
				c0.04-0.04,0.09-0.06,0.15-0.08c0.06-0.02,0.12-0.02,0.18-0.02c0.06,0,0.12,0.01,0.18,0.02c0.06,0.02,0.11,0.04,0.15,0.08
				c0.04,0.04,0.07,0.09,0.1,0.14c0.02,0.06,0.04,0.13,0.04,0.22v0.64c0,0.09-0.01,0.16-0.04,0.22c-0.02,0.06-0.06,0.11-0.1,0.14
				c-0.04,0.04-0.09,0.06-0.15,0.08C116.76,92.14,116.7,92.15,116.63,92.15z M116.92,91.04c0-0.1-0.03-0.18-0.07-0.23
				c-0.05-0.05-0.12-0.07-0.21-0.07c-0.09,0-0.16,0.02-0.21,0.07c-0.05,0.05-0.07,0.13-0.07,0.23v0.64c0,0.1,0.02,0.18,0.07,0.23
				c0.05,0.05,0.12,0.07,0.21,0.07c0.09,0,0.16-0.02,0.21-0.07c0.05-0.05,0.07-0.13,0.07-0.23V91.04z"/>
			<path fill="#111640" d="M117.38,90.64c0.03-0.05,0.04-0.06,0.06-0.06h0.39c0.06,0,0.13,0.01,0.18,0.02
				c0.06,0.01,0.11,0.04,0.15,0.07c0.04,0.03,0.08,0.08,0.1,0.13c0.03,0.05,0.04,0.12,0.04,0.2c0,0.07-0.01,0.12-0.02,0.17
				c-0.02,0.05-0.04,0.09-0.07,0.12c-0.03,0.03-0.06,0.06-0.1,0.08c-0.04,0.02-0.08,0.04-0.13,0.04l0.32,0.6
				c0.01,0.05,0,0.08-0.03,0.09c-0.02,0.02-0.05,0.03-0.07,0.03c-0.02,0-0.03-0.01-0.05-0.02c-0.01-0.01-0.02-0.03-0.03-0.05
				l-0.32-0.63h-0.25v0.63c0,0.02-0.01,0.04-0.03,0.05c-0.02,0.01-0.04,0.02-0.06,0.02c-0.02,0-0.04-0.01-0.06-0.02
				c-0.02-0.01-0.03-0.03-0.03-0.05V90.64z M117.56,90.74v0.56h0.28c0.09,0,0.16-0.02,0.21-0.06c0.05-0.04,0.08-0.11,0.08-0.22
				c0-0.1-0.03-0.17-0.08-0.21c-0.05-0.04-0.13-0.06-0.21-0.06H117.56z"/>
			<path fill="#111640" d="M119,90.58c0.06,0,0.12,0.01,0.18,0.02c0.06,0.02,0.11,0.04,0.15,0.08c0.04,0.04,0.07,0.09,0.1,0.14
				c0.02,0.06,0.04,0.13,0.04,0.22v0.63c0,0.09-0.01,0.16-0.04,0.22c-0.02,0.06-0.06,0.11-0.1,0.14s-0.09,0.06-0.15,0.08
				c-0.06,0.02-0.12,0.02-0.18,0.02h-0.38c-0.02,0-0.04-0.01-0.06-0.02c-0.02-0.04-0.02-1.48-0.02-1.48
				c0.04-0.06,0.06-0.06,0.08-0.06H119z M118.72,90.74v1.24H119c0.09,0,0.16-0.02,0.21-0.07c0.05-0.05,0.07-0.13,0.07-0.23v-0.63
				c0-0.1-0.02-0.18-0.07-0.23c-0.05-0.05-0.12-0.07-0.21-0.07H118.72z"/>
		</g>
	</g>
	<g>
		<path fill="#FFFFFF" d="M117.87,99.2c0,1.91-1.55,3.47-3.47,3.47c-1.91,0-3.47-1.55-3.47-3.47c0-1.91,1.55-3.47,3.47-3.47
			C116.32,95.74,117.87,97.29,117.87,99.2z"/>
		<path fill="#111640" d="M114.41,101.49c-0.26,0-0.5-0.14-0.62-0.37l-1.45-2.67c-0.19-0.34-0.06-0.78,0.29-0.96
			c0.35-0.18,0.77-0.06,0.96,0.29l0.83,1.54l2.39-4.28c0.19-0.34,0.62-0.46,0.97-0.27c0.34,0.19,0.46,0.62,0.27,0.97l-3.02,5.41
			C114.9,101.35,114.67,101.49,114.41,101.49z"/>
	</g>
	<g>
		<path fill="#FED27B" d="M68.58,315.75c0,0.36,0.24,0.65,0.53,0.65c0.29,0,0.53-0.29,0.53-0.65l0-3.97c0-0.36-0.24-0.65-0.53-0.65
			c-0.29,0-0.53,0.29-0.53,0.65L68.58,315.75z"/>
		<path fill="#FED27B" d="M52.13,315.75c0,0.36,0.24,0.65,0.53,0.65c0.29,0,0.53-0.29,0.53-0.65l0-3.97c0-0.36-0.24-0.65-0.53-0.65
			c-0.29,0-0.53,0.29-0.53,0.65L52.13,315.75z"/>
		<path fill="#111640" d="M34.04,317.4l0.01,31.33c0,1.72,1.4,3.11,3.12,3.11l47.3-0.02c1.72,0,3.11-1.39,3.11-3.11l-0.01-31.33
			c0-1.72-1.39-3.12-3.11-3.12l-47.3,0.02C35.44,314.28,34.04,315.68,34.04,317.4z"/>
		<path fill="#E8935A" d="M34.04,317.4l0,10.54c0,3.37,2.73,6.1,6.1,6.1l41.35-0.02c3.37,0,6.09-2.73,6.09-6.1l0-10.54
			c0-1.72-1.39-3.12-3.11-3.12l-47.3,0.02C35.44,314.28,34.04,315.68,34.04,317.4z"/>
		<g>
			<path fill="#FED27B" d="M59.7,339.44l2.24,0c0.79,0,1.42-0.64,1.42-1.42l0-8.67l-5.08,0l0,8.67
				C58.28,338.8,58.92,339.44,59.7,339.44z"/>
			<rect x="57.9" y="334.32" fill="#958FED" width="5.84" height="1.3"/>
			<path fill="#FED27B" d="M57.14,333.06l7.36,0c0.54,0,0.99-0.44,0.99-0.99l0-1.74c0-0.54-0.44-0.99-0.99-0.99l-7.36,0
				c-0.54,0-0.99,0.44-0.99,0.99l0,1.74C56.15,332.62,56.59,333.06,57.14,333.06z"/>
			<path fill="#FFFFFF" d="M58.87,338.03c0,0.44,0.36,0.8,0.8,0.8l2.3,0c0.44,0,0.8-0.36,0.8-0.8l0-2.41l-3.91,0L58.87,338.03z"/>
			<g>
				<path fill="#111640" d="M57.08,331.26c0,0.35,0.28,0.63,0.63,0.63c0.35,0,0.63-0.28,0.63-0.63c0-0.35-0.28-0.63-0.63-0.63
					C57.36,330.64,57.08,330.92,57.08,331.26z"/>
				<path fill="#111640" d="M63.3,331.26c0,0.35,0.28,0.63,0.63,0.63c0.35,0,0.63-0.28,0.63-0.63c0-0.35-0.28-0.63-0.63-0.63
					C63.58,330.63,63.3,330.91,63.3,331.26z"/>
			</g>
			<path fill="#111640" d="M59.37,336.24c0,0.14,0.11,0.26,0.26,0.26l2.39,0c0.14,0,0.26-0.11,0.26-0.26c0-0.14-0.11-0.26-0.26-0.26
				l-2.39,0C59.48,335.98,59.37,336.1,59.37,336.24L59.37,336.24z"/>
			<path fill="#111640" d="M59.37,337.22c0,0.14,0.11,0.26,0.26,0.26l2.39,0c0.14,0,0.26-0.11,0.26-0.26c0-0.14-0.11-0.26-0.26-0.26
				l-2.39,0C59.48,336.97,59.37,337.08,59.37,337.22L59.37,337.22z"/>
			<path fill="#111640" d="M59.37,338.2c0,0.14,0.11,0.26,0.26,0.26l2.39,0c0.14,0,0.26-0.11,0.26-0.26c0-0.14-0.11-0.26-0.26-0.26
				l-2.39,0C59.48,337.94,59.37,338.06,59.37,338.2L59.37,338.2z"/>
		</g>
		<path fill="#111640" d="M51.69,311.97c0.44,0.54,1.28,0.59,1.92,0.2c4.4-2.75,10-2.75,14.41-0.01c0.64,0.4,1.48,0.34,1.92-0.2
			c0.44-0.54,0.2-1.46-0.59-1.94c-5.22-3.25-11.86-3.25-17.08,0.01C51.49,310.51,51.25,311.43,51.69,311.97L51.69,311.97z"/>
	</g>
	<g>
		<path fill="#FCBEA7" d="M272.97,208.83l0.18-4.65l3.41-4.15c4.21-0.4,7.89-0.47,11.27,0.92l5.14,1.5v4.91l-6.36-1.68
			c0,0-0.87,0.92-3.53,0.4c-1.36-0.27-5.23-2.64-5.23-2.64C275.49,203.71,274.26,206.4,272.97,208.83z"/>
		<path fill="#FED27B" d="M281.36,203.7c-2.49,1.76-6.19,2.46-6.19,3.56c1.34,2.21,5.43-0.81,8.23-1.1L281.36,203.7z"/>
		<g>
			<polygon fill="#FFFFFF" points="293.76,210.99 293.41,202.12 288.96,201.29 288.96,209.82 			"/>
		</g>
		<path fill="#3E3433" d="M333.12,170.24c-11.13,5.98-9.48,6.67-18.11,32.87l-22.92-1.24v10.54c11.21,1.74,23.74,5.16,31.55,3.02
			l18.74-30.13L333.12,170.24z"/>
		<path fill="#FFFFFF" d="M368.61,242.4l-41.33-4.76c0.61-7.16,6.73-67.29,6.73-67.29l5.06-0.81l15.23-2.45
			C354.3,167.1,368.71,235.92,368.61,242.4z"/>
		<g>
			<g>
				<g>
					<g>
						<path fill="#2E2623" d="M341.35,343.94c0.54,0.16,1.32,0.46,1.26,6.19h-25.79C316.82,342.36,335.16,342.13,341.35,343.94z"/>
						<rect x="316.82" y="349.48" fill="#2E2623" width="25.79" height="2.37"/>
					</g>
				</g>
				<path fill="#3E3433" d="M327.01,245.96l0.55,97.38l15.05,6.13l3.12-89.97l0.03,0.37l5.94,90.25h15.9l-0.01-0.65
					c0-0.01-2.16-73.99-2.16-73.99l-0.57-19.68l-0.12-3.82l-0.2-6.02c0-0.51-0.16-5.06-0.44-10.88h-36.71
					C327.16,239.89,327.01,245.52,327.01,245.96z"/>
				<path fill="#3E3433" d="M364.1,235.12c0-2.03,0.07-2.79,0-3.82h-36.55c-0.21,0.72-0.08,1.91,0,3.82H364.1z"/>
				<rect x="338.34" y="231.68" fill="#3E3433" width="4.29" height="3.06"/>
				<g>
					<g>
						<path fill="#2E2623" d="M367.6,350.13h-15.9c0-5.99,3.56-6.19,7.95-6.19c0.29,0,0.58,0,0.86,0.01
							c3.82,0.07,6.82,0.77,7.07,5.51C367.59,349.69,367.6,349.9,367.6,350.13z"/>
						<rect x="351.7" y="349.48" fill="#2E2623" width="15.9" height="2.37"/>
					</g>
				</g>
				<path opacity="0.07" fill="#3E3433" d="M359.65,249.55c-0.52,0.3-1.09,0.58-1.69,0.84C358.53,250.1,359.09,249.82,359.65,249.55
					z"/>
				<path fill="#3E3433" d="M360.51,343.95c-0.28-0.01-0.57-0.01-0.86-0.01c-4.39,0-7.95,0.2-7.95,6.19l-5.94-90.26l-0.03-0.37
					l-3.12,89.98l-15.04-6.14h0.12c6.68-0.18,12.09-5.28,12.35-11.67l3.68-71.77c-1.37-4.2-5.85-7.25-10.44-9.82
					c6.05,3.48,17.74,3.3,24.68,0.31c-5.15,2.58-10.07,5.54-10.65,9.38l6.35,69.09C354.18,334.52,356.61,339.8,360.51,343.95z"/>
			</g>
		</g>
		<path fill="#FCBEA7" d="M351.13,164.83l-1.25-12.69c-5.42,0.64-12.68,1.37-13.96,1.27c0,0,0.84,9.23,0.85,13.23
			C335.91,177.04,347.93,176.65,351.13,164.83z"/>
		<path fill="#3E3433" d="M346.1,235.08v7.36c0,5.86,4.95,10.48,10.8,10.08l7.84-0.53l6.89-0.48c0.15-11.06-0.41-29.1-0.93-46.05
			c-0.17-5.57-0.35-11.02-0.48-16.06l0.23-3.91c-0.09-1.2-0.45-2.16-0.79-3.11c-0.25-0.76-0.48-1.5-0.55-2.35
			c-0.37-4.45-1.35-0.05-1.72-4.13c0-0.03,0.17-2.12,0.16-2.15L356.18,168c0-0.01-1.88-0.89-1.88-0.89l-0.68,0.11
			c-0.72,1.32-1.42,2.95-2.04,4.83c-2.19,6.58-3.73,16.38-4.59,27.93c-0.12,1.63-0.24,3.3-0.33,5.01c-0.17,3.1-0.29,6.34-0.36,9.64
			c-0.01,0.07-0.01,0.16-0.01,0.25c-0.01,0.35-0.01,0.68-0.01,1c-0.03,0.93-0.05,1.87-0.07,2.8c0,0.31-0.01,0.6-0.01,0.89
			c0,0.77-0.03,1.54-0.03,2.31c0,0.67-0.01,1.34-0.03,2v1.22C346.11,227.59,346.1,231.21,346.1,235.08z"/>
		<path fill="#3E3433" d="M327.92,174.07l0.78-0.47l5.3-3.24l0.73-0.12l-1.35,72.3c-0.09,4.84-1.54,8.63-6.36,8.27l-2.73-0.42
			C324.9,243.23,327.84,177.7,327.92,174.07z"/>
		<polygon fill="#FB4213" points="341.98,178.95 338.7,178.61 337.61,172.09 343.12,172.3 		"/>
		<path fill="#DADADA" d="M339.94,172.15l-4.52,5.19c-0.69-3.15-1.59-5.74-1.24-7.66l2.61-2.83
			C336.53,169.03,337.63,171.42,339.94,172.15z"/>
		<path fill="#FFFFFF" d="M339.94,172.15l5.59,6.46c3.81-3.75,7.77-7.9,8.77-11.51l-3.31-3.63
			C351,166.72,344.26,172.32,339.94,172.15z"/>
		<polygon fill="#FB4213" points="341.98,178.95 338.7,178.61 337.02,208.7 340.37,213.96 343.94,209.72 		"/>
		<path fill="#2F2523" d="M346.64,204.98c2.79-9.94,9.68-28.26,9.68-28.26s-4.38-2.28-4.08-2.62l4.81,0.17l-0.87-6.26l-4.42-3.67
			C348.29,175.84,346.35,192.27,346.64,204.98z"/>
		<path fill="#2F2523" d="M333.79,204.67c-2.79-9.94-4.56-28.56-4.56-28.56s4.14-1.53,3.83-1.87l-3.49-0.42l2.09-2.77l5.37-5.11
			C335.84,177.42,334.08,191.96,333.79,204.67z"/>
		<g>
			<path fill="#FCBEA7" d="M352.98,156.15c1.3-2.36,1.42-3.45,1.82-6.15c1.09-12.39-6.19-11.52-10.76-12.07
				c-5.37-0.41-10.87,2.6-12.14,10.77c0.17,0.84,0.42,1.54,0.42,1.54l-2.31,4.38c-0.78,1.47,0.3,2.57,1.88,2.35
				c-0.08,0.83-0.14,3.9-0.14,3.9c-0.29,3.17,1.5,5.89,4.32,5.97c8.11,0.23,9.98-3.11,10.26-10.24
				C348.31,156.6,352.03,157.88,352.98,156.15z"/>
			<path fill="#3E3433" d="M350.99,163.47c-6.56,0.95-2.76-10.08-2.76-10.08s-1.36-0.72-2.14,0.04c-1.35-0.18-1.76-1.23-2.98-1.47
				c0.55-8.16,2.92-10.46-8.94-9.42c-5.61-2.68,0.77-7.79,11.27-5.94c6.13,1.08,10.87,4.88,10.93,11.1
				C356.42,151.61,356.09,158.68,350.99,163.47z"/>
			<path fill="#FCBEA7" d="M349.63,153.69c-0.24,1.93-2.15,3.96-3.41,3.81c-1.26-0.16-1.17-1.79-0.95-3.73
				c0.15-1.28,0.29-3.05,1.72-3.28C348.25,150.28,349.98,150.86,349.63,153.69z"/>
		</g>
		<path fill="#111640" d="M364.86,255.8l-0.12-3.82l6.89-0.48c0.15-11.06-0.41-29.1-0.93-46.05l-10.31-13.11v34.18l-1.15,8.56
			l-2.34,17.44l8.53,22.97L364.86,255.8z"/>
		<path fill="#FCBEA7" d="M366.32,256.07c0.06-0.59,0.36-1.13,0.53-1.7c0.16-0.53,0.21-1.09,0.41-1.6c0.47-1.25,1.65-3.3,2.78-4.01
			c1.59-0.99,3.57-0.78,5.27,0.95c0.49,0.5,0.83,1.13,1.06,1.8c0.58,1.75,1.16,3.49,1.75,5.24c0.29,0.88,0.59,1.8,0.49,2.72
			c-0.09,0.84-0.5,1.61-0.9,2.35c-0.78,1.43-0.89,1.31-1.66,2.75c-0.15,0.28-0.31,0.57-0.56,0.78c-0.3,0.25-0.7,0.4-1.1,0.42
			c-0.03,0.06-0.06,0.13-0.09,0.19c-0.06,0.17-0.12,0.34-0.24,0.47c-0.15,0.16-0.39,0.22-0.61,0.19c-0.22-0.03-0.42-0.13-0.6-0.26
			c-0.13,0.11-0.2,0.27-0.25,0.44c-0.04,0.14-0.08,0.28-0.17,0.39c-0.14,0.17-0.38,0.23-0.6,0.24c-0.21,0.01-0.42-0.02-0.62-0.08
			c-0.17-0.05-0.34-0.15-0.43-0.29c-0.12,0.33-0.18,0.63-0.82,0.71c-0.8,0.1-1.41-0.7-1.12-1.45c0.48-1.26,0.96-2.52,1.44-3.78
			c0.27-0.7,0.53-1.41,0.55-2.16c0.01-0.47-0.08-0.93-0.17-1.39c-0.22-1.1-0.62-2.05-0.84-3.15c-0.72,0.55-0.74,1.37-0.79,2.27
			c-0.05,0.9,0.01,1.84-0.35,2.67c-0.21,0.49-0.64,0.92-1.13,1.12c-0.48,0.19-1-0.2-0.95-0.71c0.11-1.25,0.07-2.51-0.14-3.75
			C366.37,256.99,366.27,256.53,366.32,256.07z"/>
		
			<rect x="367.44" y="245.64" transform="matrix(0.9999 -0.0165 0.0165 0.9999 -4.0554 6.1831)" fill="#FFFFFF" width="9.49" height="5.79"/>
		<path fill="#3E3433" d="M364.13,212.83l-5.26-28.72c0-14.75,13.44-13.82,15.72,0.54l3.83,27.73l-0.14,36.15H366.1L364.13,212.83z"
			/>
	</g>
	<linearGradient id="SVGID_1_" gradientUnits="userSpaceOnUse" x1="219.7194" y1="440.3274" x2="219.7194" y2="234.6408">
		<stop  offset="0" style="stop-color:#FFFFFF"/>
		<stop  offset="0.1174" style="stop-color:#FBFBFB"/>
		<stop  offset="0.2419" style="stop-color:#EEEEEE"/>
		<stop  offset="0.3698" style="stop-color:#D9D9D9"/>
		<stop  offset="0.5001" style="stop-color:#BBBBBB"/>
		<stop  offset="0.6322" style="stop-color:#959595"/>
		<stop  offset="0.7658" style="stop-color:#666666"/>
		<stop  offset="0.898" style="stop-color:#2F2F2F"/>
		<stop  offset="1" style="stop-color:#000000"/>
	</linearGradient>
	<path opacity="0.75" fill="url(#SVGID_1_)" d="M136.86,416.98l-8.39,1.14c-2.61-2.38-6.69-6.33-6.69-6.33
		c-4.22,3.05-4.39,3.94-7.32,5.43c-0.71,0.36-1.71,0.64-2.83,0.83c-0.37,0.15-0.86,0.29-1.54,0.42c-0.06,0.01-0.14,0.02-0.26,0.04
		c-0.26,0.04-0.7,0.09-1.26,0.15c-0.04,0.01-0.1,0.01-0.16,0.01c-2.94,0.35-8.72,0.98-8.74,0.99l-0.3,0.28
		c-0.09,0.08-0.2,0.16-0.34,0.22l2.01-0.02c2.92,0.06,3.35,1.34,3.1,2.13c0,0-0.66,1.33-0.76,1.64l1.17,0.19
		c0.79,0.11,1.12,0.45,0.71,0.72l-2.54,1.63c0,0,0.23,0.27,0.39,0.59c-0.49,0.95-1.38,1.71-2.55,2.3c2.3,0.28,2.51,3.06-11.88,2.12
		c-6.36-0.42-10.81-1.97-11.01-4.32c-0.19-2.26,3.32-4.8,5.96-5.16l0.24-1.57c-0.18-0.02-0.35-0.03-0.45-0.05l-1.06-1.12
		c0.01-0.01-6.38-1.35-6.38-1.35c-1.59-0.33-2.86-0.81-3.77-1.36c-6.22-2.74-8.59-7.4-11.15-11.36c-0.8-1.24,0.49-2.57,3.43-3.27
		c2.93-0.69,6.12-1.09,9.2-1.31c0.53-3.6,0.81-7.57,0.3-10.79c-0.25-1.64,1.43-1.86,7.51-1.93c-0.01-0.08-0.02-0.17-0.03-0.26
		c-0.03-0.28-0.07-0.55-0.1-0.83l-0.12-0.92l-0.09-0.61c-0.03-0.24-0.06-0.48-0.09-0.72c-0.03-0.24-0.07-0.48-0.1-0.73
		c-0.43-3.17-0.81-6.21-0.75-8.53c0-0.24,0.02-0.46,0.04-0.68c0.06-0.86-0.14-2.25-0.48-3.91c-1.1-5.54-3.57-14.17-2.21-16.92
		c0-0.23,0.5-0.4,1.29-0.51c-0.09-0.17-0.12-0.35-0.12-0.56c-0.01,0,0.03-0.24,0.03-0.24l0.11-0.63h15.4l-0.11,0.63l-0.02,0.09v0.09
		l-0.01,0.05c-0.11,0.29-0.26,0.54-0.45,0.76c0.7,0.05,1.34,0.09,1.88,0.14l1.29,13.7l0.02,0.24l0.03,0.31l0.6,6.25l4.98,12.03v0.25
		l3.02-6.72l2.33-5.21l0.04-0.08l0.05-0.12c-0.02-2.66-0.27-5.53-0.37-8.34c-0.01-0.22-0.02-0.45-0.03-0.67
		c-0.14-4.75,0.22-9.29,2.89-12.38c0.14,0.03,0.28,0.05,0.44,0.07c0.2,0.05,0.4,0.08,0.63,0.12c0.02-0.1,0.03-0.2,0.06-0.32
		l0.03-0.24l0.11-0.63h24.98l-0.11,0.63c0,0.02-0.05,0.24-0.05,0.24c-0.74,1.3-5.24,1.97-10.29,2.24c0,0-1.54,18.9-1.54,18.9
		l-1.61,10.42l-0.23,1.48c-0.01,0.04-0.54,3.36-0.54,3.36l-0.13,0.84l-0.17,1.18l-0.33,2.04l-0.09,0.55c0,0-0.2,1.25-0.2,1.25
		l-0.06,0.49c-0.02,0.42-0.02,0.83-0.06,1.26c-0.04,0.48-0.1,0.96-0.16,1.43c-0.04,0.34-0.1,0.69-0.16,1.03
		c-0.08,0.41-0.16,0.82-0.24,1.23c-0.04,0.18-0.08,0.36-0.14,0.55c-0.04,0.22-0.1,0.45-0.16,0.67c-0.04,0.2-0.1,0.4-0.16,0.6
		c-0.06,0.2-0.12,0.4-0.18,0.6c0,0.02-0.02,0.05-0.02,0.07c-0.09,0.29-0.16,0.57-0.24,0.85c1.09-0.24,2.18-0.38,3.27-0.38
		C134.35,403.4,136.61,416.33,136.86,416.98z M376.93,389.47l0.05-1.02l-0.68,0c0.02-0.02,0.05-0.03,0.07-0.05
		c0.58-0.64,1.16-1.27,1.75-1.91c0.29-0.32,0.59-0.65,0.49-0.99c-0.09-0.31-0.5-0.59-0.9-0.86c-0.78-0.52-0.89-0.48-1.66-1
		c-0.15-0.1-0.31-0.21-0.56-0.28c-0.3-0.09-0.7-0.15-1.1-0.15c-0.03-0.02-0.06-0.05-0.09-0.07c-0.06-0.06-0.12-0.12-0.24-0.17
		c-0.15-0.06-0.39-0.08-0.61-0.07c-0.22,0.01-0.42,0.05-0.6,0.1c-0.13-0.04-0.2-0.1-0.25-0.16c-0.04-0.05-0.08-0.1-0.17-0.14
		c-0.14-0.06-0.38-0.08-0.6-0.09c-0.21,0-0.42,0.01-0.62,0.03c-0.17,0.02-0.34,0.05-0.43,0.11c-0.12-0.12-0.18-0.23-0.82-0.26
		c-0.8-0.04-1.41,0.25-1.12,0.53c0.48,0.46,0.96,0.92,1.44,1.38c0.27,0.25,0.53,0.51,0.55,0.79c0.01,0.17-0.08,0.34-0.17,0.51
		c-0.22,0.4-0.62,0.74-0.83,1.15c-0.72-0.2-0.74-0.5-0.79-0.83c-0.05-0.33,0.01-0.67-0.35-0.97c-0.21-0.18-0.64-0.34-1.13-0.41
		c-0.48-0.07-1,0.07-0.95,0.26c0.11,0.45,0.07,0.91-0.14,1.36c-0.07,0.17-0.17,0.33-0.12,0.5c0.06,0.22,0.36,0.41,0.53,0.62
		c0.16,0.19,0.21,0.4,0.41,0.58c0.11,0.11,0.27,0.23,0.44,0.36l-2.97-0.08l0.12-1.39l0.57-7.17c0,0,2.16-26.94,2.16-26.94
		c0.01,0,0.01-0.21,0.01-0.21c0-0.03,0-0.65,0-0.65h-15.9v0.63c0,0-5.94,32.87-5.94,32.87l-0.03,0.12l-2.95-30.88l-0.18-1.87
		c0,0,0-0.86,0-0.86h-25.79v0.86c0.57,1.32,5.36,1.99,10.74,2.24l-0.52,33.69c-0.02,0-2.75,0.15-2.75,0.15
		c0.31,1.3,1.18,7.85,2,14.28l-2.65-1.55c-7.81-0.78-20.34,0.46-31.55,1.1v0.67l-3.13,0.28v1.28l-2.35,0.23c0,0-0.82-0.3-3.22-0.16
		c-2.79-0.11-6.88-1.21-8.22-0.41c0,0.32,2.42,0.55,4.66,0.97c-1.08,0.22-1.97,0.42-1.97,0.42c-2.37-0.09-3.59-1.07-4.89-1.96
		l0.18,1.69l3.41,1.51c4.21,0.14,7.89,0.17,11.27-0.34l1.14-0.12l3.13-0.21l22.92-0.45c8.23,9.1,7.12,9.75,16.64,11.68l4.41,1.53
		c-2.82,0.03-4.61,1.02-4.32,2.17c0,0,0.06,1.12,0.14,1.42c-1.58-0.08-2.66,0.32-1.88,0.86l2.31,1.59c0,0-0.24,0.25-0.42,0.56
		c0.4,0.92,1.2,1.66,2.27,2.25c-5.61,0.97,0.77,2.84,11.27,2.16c6.13-0.39,10.87-1.78,10.93-4.04c0.04-1.42-0.29-4-5.39-5.74
		l0.78-0.31l4.42-1.34c0,0,11.35-2.09,11.35-2.09c3.1-0.42,6.08-1.76,7.05-3.97l3.83-10.1l-0.14-13.16H376.93z"/>
	<linearGradient id="SVGID_2_" gradientUnits="userSpaceOnUse" x1="299.6043" y1="445.5521" x2="299.6043" y2="226.1053">
		<stop  offset="0" style="stop-color:#FFFFFF"/>
		<stop  offset="0.1174" style="stop-color:#FBFBFB"/>
		<stop  offset="0.2419" style="stop-color:#EEEEEE"/>
		<stop  offset="0.3698" style="stop-color:#D9D9D9"/>
		<stop  offset="0.5001" style="stop-color:#BBBBBB"/>
		<stop  offset="0.6322" style="stop-color:#959595"/>
		<stop  offset="0.7658" style="stop-color:#666666"/>
		<stop  offset="0.898" style="stop-color:#2F2F2F"/>
		<stop  offset="1" style="stop-color:#000000"/>
	</linearGradient>
	<rect x="229.09" y="351.15" opacity="0.75" fill="url(#SVGID_2_)" width="141.03" height="85.15"/>
</g>
</svg>
