<?xml version="1.0" encoding="utf-8"?>
<!-- Generator: Adobe Illustrator 24.1.1, SVG Export Plug-In . SVG Version: 6.00 Build 0)  -->
<svg version="1.1" id="Layer_1" xmlns="http://www.w3.org/2000/svg" xmlns:xlink="http://www.w3.org/1999/xlink" x="0px" y="0px"
	 viewBox="0 0 908.94 225.16" enable-background="new 0 0 908.94 225.16" xml:space="preserve">
<path display="none" fill="#FFFFFF" d="M672.77,242.82H281.78c-62.42,0-113.01-50.6-113.01-113.01V-79.81
	c0-62.42,50.6-113.01,113.01-113.01h390.99c62.42,0,113.01,50.6,113.01,113.01v209.62C785.78,192.23,735.19,242.82,672.77,242.82z"
	/>
<g display="none">
	<path display="inline" fill="#393939" d="M27.37-21.94h-39.97c-19.45,0-35.27,15.82-35.27,35.27v28.21h36.83
		c6.49,0,11.76,5.26,11.76,11.76s-5.26,11.76-11.76,11.76c-10.7,0-25.32,0-36.83,0v39.18h36.83c6.49,0,11.76,5.26,11.76,11.76
		s-5.26,11.76-11.76,11.76c-19.09,0-7.93,0-36.83,0v39.18h36.83c6.49,0,11.76,5.26,11.76,11.76s-5.26,11.76-11.76,11.76
		c-10.7,0-25.32,0-36.83,0v39.18h36.83c6.49,0,11.76,5.26,11.76,11.76s-5.26,11.76-11.76,11.76c-19.09,0-7.93,0-36.83,0v39.18h36.83
		c6.49,0,11.76,5.26,11.76,11.76s-5.26,11.76-11.76,11.76c-10.7,0-25.32,0-36.83,0v28.21c0,19.45,15.82,35.27,35.27,35.27h39.97
		V-21.94z"/>
	<path display="inline" fill="#FE943E" d="M99.82,247.84V118.42h176.76V13.33c0-19.45-15.82-35.27-35.27-35.27H50.88V379.3h190.43
		c19.45,0,35.27-15.82,35.27-35.27v-96.2H99.82z"/>
</g>
<g display="none">
	<path display="inline" d="M457.61-25.84V3.94h253.67v-29.77H457.61z M460.09-14.89l-0.01-10.74l1.96-0.01l0.01,10.74L460.09-14.89z
		 M464.24-17.59l-0.01-8.05l1.96-0.01l0.01,8.05L464.24-17.59z M468.4-14.92l-0.01-10.74l1.96-0.01l0.01,10.74L468.4-14.92z
		 M472.55-17.63l-0.01-8.05l1.96-0.01l0.01,8.05L472.55-17.63z M476.7-14.96l-0.01-10.74l1.96-0.01l0.01,10.74L476.7-14.96z
		 M480.85-17.67l-0.01-8.05l1.96-0.01l0.01,8.05L480.85-17.67z M485.01-15l-0.01-10.74l1.96-0.01l0.01,10.74L485.01-15z
		 M489.16-17.7l-0.01-8.05l1.96-0.01l0.01,8.05L489.16-17.7z M493.31-15.04l-0.01-10.74l1.96-0.01l0.01,10.74L493.31-15.04z
		 M497.46-17.74l-0.01-8.05l1.96-0.01l0.01,8.05L497.46-17.74z M501.61-15.07l-0.01-10.74l1.96-0.01l0.01,10.74L501.61-15.07z
		 M505.76-17.77l-0.01-8.05l1.96-0.01l0.01,8.05L505.76-17.77z M526.85-14.89l-0.01-10.74l1.96-0.01l0.01,10.74L526.85-14.89z
		 M531-17.59l-0.01-8.05l1.96-0.01l0.01,8.05L531-17.59z M535.16-14.92l-0.01-10.74l1.96-0.01l0.01,10.74L535.16-14.92z
		 M539.3-17.63l-0.01-8.05l1.96-0.01l0.01,8.05L539.3-17.63z M543.46-14.96l-0.01-10.74l1.96-0.01l0.01,10.74L543.46-14.96z
		 M547.61-17.67l-0.01-8.05l1.96-0.01l0.01,8.05L547.61-17.67z M551.77-15l-0.01-10.74l1.96-0.01l0.01,10.74L551.77-15z
		 M555.92-17.7l-0.01-8.05l1.96-0.01l0.01,8.05L555.92-17.7z M560.07-15.04l-0.01-10.74l1.96-0.01l0.01,10.74L560.07-15.04z
		 M564.22-17.74l-0.01-8.05l1.96-0.01l0.01,8.05L564.22-17.74z M568.37-15.07l-0.01-10.74l1.96-0.01l0.01,10.74L568.37-15.07z
		 M572.52-17.77l-0.01-8.05l1.96-0.01l0.01,8.05L572.52-17.77z M596.72-14.89l-0.01-10.74l1.96-0.01l0.01,10.74L596.72-14.89z
		 M600.87-17.59l-0.01-8.05l1.96-0.01l0.01,8.05L600.87-17.59z M605.03-14.92l-0.01-10.74l1.96-0.01l0.01,10.74L605.03-14.92z
		 M609.18-17.63l-0.01-8.05l1.96-0.01l0.01,8.05L609.18-17.63z M613.33-14.96l-0.01-10.74l1.96-0.01l0.01,10.74L613.33-14.96z
		 M617.48-17.67l-0.01-8.05l1.96-0.01l0.01,8.05L617.48-17.67z M621.64-15l-0.01-10.74l1.96-0.01l0.01,10.74L621.64-15z
		 M625.79-17.7l-0.01-8.05l1.96-0.01l0.01,8.05L625.79-17.7z M629.94-15.04l-0.01-10.74l1.96-0.01l0.01,10.74L629.94-15.04z
		 M634.09-17.74l-0.01-8.05l1.96-0.01l0.01,8.05L634.09-17.74z M638.25-15.07l-0.01-10.74l1.96-0.01l0.01,10.74L638.25-15.07z
		 M642.4-17.77l-0.01-8.05l1.96-0.01l0.01,8.05L642.4-17.77z M693.4-5.08c-3.28,2.99-8.38,2.74-11.37-0.54
		c-2.99-3.28-2.74-8.38,0.54-11.37s8.38-2.74,11.37,0.54C696.92-13.17,696.68-8.07,693.4-5.08z"/>
</g>
<path display="none" fill="#393939" d="M771.03,148.95H390.39c-1.26,0-2.28-1.02-2.28-2.28l0,0c0-1.26,1.02-2.28,2.28-2.28h380.64
	c1.26,0,2.28,1.02,2.28,2.28l0,0C773.31,147.93,772.29,148.95,771.03,148.95z"/>
<g>
	<g>
		<g>
			<path fill="#FE943E" d="M250.93,54.72v161.26H220.3l-80.4-97.91v97.91h-36.86V54.72h30.87l80.17,97.91V54.72H250.93z"/>
			<path fill="#FE943E" d="M294,176.54c-8.84-4.65-15.76-11.1-20.73-19.36c-4.98-8.26-7.47-17.62-7.47-28.11
				c0-10.48,2.49-19.85,7.47-28.11c4.98-8.25,11.89-14.71,20.73-19.36c8.84-4.65,18.83-6.98,29.97-6.98
				c11.14,0,21.09,2.33,29.87,6.98c8.78,4.65,15.66,11.1,20.64,19.36c4.98,8.26,7.47,17.62,7.47,28.11
				c0,10.48-2.49,19.85-7.47,28.11c-4.98,8.26-11.86,14.71-20.64,19.36c-8.78,4.65-18.74,6.98-29.87,6.98
				C312.84,183.51,302.85,181.19,294,176.54z M343.33,150.4c5.04-5.31,7.57-12.41,7.57-21.32c0-8.91-2.52-16.02-7.57-21.32
				c-5.05-5.31-11.5-7.96-19.36-7.96c-7.86,0-14.35,2.65-19.46,7.96c-5.11,5.31-7.66,12.42-7.66,21.32c0,8.91,2.55,16.02,7.66,21.32
				c5.11,5.31,11.6,7.96,19.46,7.96C331.84,158.36,338.29,155.7,343.33,150.4z"/>
			<path fill="#FE943E" d="M553.43,137h-78.54c1.41,6.43,4.76,11.51,10.03,15.24c5.27,3.73,11.83,5.6,19.68,5.6
				c5.4,0,10.2-0.8,14.38-2.41c4.18-1.61,8.07-4.15,11.68-7.62l16.02,17.37c-9.78,11.19-24.06,16.79-42.84,16.79
				c-11.71,0-22.07-2.28-31.07-6.85c-9.01-4.57-15.95-10.9-20.84-19.01c-4.89-8.1-7.33-17.3-7.33-27.59
				c0-10.16,2.41-19.33,7.24-27.5c4.82-8.17,11.45-14.54,19.87-19.1c8.42-4.57,17.85-6.85,28.27-6.85c10.16,0,19.36,2.19,27.59,6.56
				c8.23,4.37,14.7,10.65,19.39,18.81c4.69,8.17,7.04,17.66,7.04,28.46C554,129.28,553.81,131.98,553.43,137z M482.99,103.62
				c-4.63,3.86-7.46,9.14-8.49,15.82h51.13c-1.03-6.56-3.86-11.8-8.49-15.73c-4.63-3.92-10.29-5.89-16.98-5.89
				C493.35,97.83,487.62,99.76,482.99,103.62z"/>
		</g>
	</g>
	<g>
		<path fill="#393939" d="M409.14,46.62l-20.52,92.15l38.97,8.69l20.53-92.15L409.14,46.62z M418.41,79.73l-11.07,49.7
			c-0.2,0.92-0.77,1.73-1.55,2.23c-0.8,0.51-1.76,0.68-2.68,0.46c-2.05-0.46-3.34-2.49-2.88-4.54l11.02-49.45
			c0.2-0.91,0.76-1.72,1.55-2.22c0.79-0.5,1.75-0.67,2.68-0.47l0.24,0.05C417.63,75.92,418.84,77.82,418.41,79.73z M420.28,66.51
			c-0.79,0.5-1.75,0.67-2.68,0.47l-0.25-0.05c-0.91-0.21-1.72-0.77-2.23-1.56c-0.5-0.8-0.67-1.76-0.47-2.68l0.54-2.45
			c0.43-1.91,2.33-3.12,4.25-2.69l3.72,0.83l-1.32,5.92C421.64,65.2,421.08,66,420.28,66.51z"/>
		
			<rect x="425.28" y="21.46" transform="matrix(0.2175 -0.9761 0.9761 0.2175 296.6373 452.8515)" display="none" fill="#393939" width="10.94" height="39.93"/>
		<path fill="#393939" d="M450.39,12.72l-23.18-6.9c-2-0.59-4.15-0.37-5.99,0.63c-1.84,0.99-3.21,2.68-3.79,4.68l-4.47,15.01
			l38.28,11.37l4.46-15C456.93,18.33,454.56,13.95,450.39,12.72z M445.92,27.72l-23.18-6.9l2.23-7.47l23.18,6.9L445.92,27.72z"/>
		<path fill="#393939" d="M387.47,143.97l8.71,36.94c0.34,1.42,1.45,2.52,2.88,2.84c1.43,0.32,2.9-0.21,3.82-1.35l23.57-29.75
			L387.47,143.97z M397.81,165.03l-3.33-14.13l22.65,5.08l-9.02,11.36L397.81,165.03z"/>
		<path fill="#393939" d="M463.51,54.01l-67.84-13.67c-1.4-0.28-2.3-1.64-2.02-3.04l1.3-6.45c0.28-1.4,1.64-2.3,3.04-2.02
			l67.84,13.67c1.4,0.28,2.3,1.64,2.02,3.04l-1.3,6.45C466.27,53.39,464.91,54.3,463.51,54.01z"/>
	</g>
	<path fill="#393939" d="M551.07,215.23H263.1c-1.26,0-2.28-1.02-2.28-2.28v-16.98c0-1.26,1.02-2.28,2.28-2.28h287.97
		c1.26,0,2.28,1.02,2.28,2.28v16.98C553.35,214.21,552.33,215.23,551.07,215.23z"/>
	<path fill="#393939" d="M657.35,215.23h-90.97c-1.26,0-2.28-1.02-2.28-2.28v-16.98c0-1.26,1.02-2.28,2.28-2.28h90.97
		c1.26,0,2.28,1.02,2.28,2.28v16.98C659.63,214.21,658.61,215.23,657.35,215.23z"/>
	<text transform="matrix(1 0 0 1 0.7165 98.1723)"><tspan x="0" y="0" fill="#393939" font-family="'Montserrat-Bold'" font-size="60.9868px">My</tspan><tspan x="94.71" y="0" fill="#393939" font-family="'Montserrat-Bold'" font-size="60.9868px" letter-spacing="-6"> </tspan></text>
	
		<text transform="matrix(1 0 0 1 556.7517 179.7246)" fill="#393939" font-family="'Montserrat-Bold'" font-size="187.6293px" letter-spacing="-10">app</text>
</g>
</svg>
