<?xml version="1.0" encoding="utf-8"?>
<!-- Generator: Adobe Illustrator 24.1.1, SVG Export Plug-In . SVG Version: 6.00 Build 0)  -->
<svg version="1.1" id="Layer_1" xmlns="http://www.w3.org/2000/svg" xmlns:xlink="http://www.w3.org/1999/xlink" x="0px" y="0px"
	 viewBox="0 0 1080 1080" enable-background="new 0 0 1080 1080" xml:space="preserve">
<g>
	<path fill="#FE943E" d="M436.64,274.85L323.38,783.31l215.05,47.94l113.31-508.49L436.64,274.85z M487.76,457.56l-61.09,274.23
		c-1.11,5.1-4.23,9.53-8.58,12.32c-4.4,2.83-9.71,3.73-14.81,2.54c-11.31-2.52-18.46-13.73-15.91-25.05l60.82-272.88
		c1.08-5.04,4.22-9.49,8.58-12.25s9.68-3.71,14.8-2.57l1.32,0.28C483.44,436.53,490.15,447.02,487.76,457.56z M498.08,384.58
		c-4.36,2.77-9.68,3.71-14.78,2.6l-1.4-0.3c-5.05-1.15-9.47-4.26-12.28-8.63c-2.76-4.4-3.67-9.74-2.6-14.78l3-13.52
		c2.38-10.57,12.86-17.23,23.43-14.86l20.53,4.56l-7.29,32.67C505.59,377.37,502.5,381.79,498.08,384.58z"/>
	<polygon display="none" fill="#FE943E" points="441.74,251.66 656.82,299.58 669.96,240.7 454.9,192.76 	"/>
	<path fill="#393939" d="M664.26,87.78L536.34,49.71c-11.03-3.27-22.93-2.06-33.06,3.46c-10.15,5.48-17.74,14.79-20.91,25.81
		l-24.67,82.81l211.21,62.75l24.59-82.77C700.34,118.78,687.23,94.6,664.26,87.78z M639.59,170.59l-127.9-38.08L524,91.26
		l127.88,38.06L639.59,170.59z"/>
	<path fill="#393939" d="M317.04,812.03l48.04,203.86c1.86,7.83,7.99,13.9,15.9,15.69c7.87,1.78,16.02-1.15,21.05-7.43
		l130.04-164.17L317.04,812.03z M374.1,928.24l-18.39-77.99l124.99,28.02l-49.75,62.69L374.1,928.24z"/>
	<path fill="#FE943E" d="M748.08,317.97l-397.24-80.04c-1.4-0.28-2.3-1.64-2.02-3.04l11.79-58.49c0.28-1.4,1.64-2.3,3.04-2.02
		l397.24,80.04c1.4,0.28,2.3,1.64,2.02,3.04l-11.79,58.49C750.84,317.34,749.48,318.25,748.08,317.97z"/>
</g>
</svg>
