<?xml version="1.0" encoding="utf-8"?>
<!-- Generator: Adobe Illustrator 24.1.1, SVG Export Plug-In . SVG Version: 6.00 Build 0)  -->
<svg version="1.1" id="Layer_1" xmlns="http://www.w3.org/2000/svg" xmlns:xlink="http://www.w3.org/1999/xlink" x="0px" y="0px"
	 viewBox="0 0 1000 543.39" enable-background="new 0 0 1000 543.39" xml:space="preserve">
<g>
	<path fill="#E8F2FA" d="M937.77,530.61c-56.63,0-881.57,0.17-882.05-1.08l-0.08-0.16c0,0-0.08-0.15-0.08-0.23
		c-0.32-0.62-127.11-175.76,70.01-297.68c77.12-47.7-4.83-79.2,56.5-132.3c70.48-61.03,147.4,6.48,225.77-21.19
		c13.85-4.88,27.74-12.75,41.65-24.81c7.83-6.78,16.41-12.72,25.6-17.84c1.41-0.79,2.83-1.56,4.27-2.31
		c5.5-2.86,11.2-5.45,17.08-7.78c3.95-1.56,7.97-3.01,12.06-4.33h0c6.5-2.11,13.17-3.93,19.99-5.46c9.68-2.19,19.65-3.81,29.82-4.91
		c4.43-0.48,8.9-0.86,13.41-1.15c87.57-5.53,186.12,25.56,236.98,71c10.24,9.15,56.8,56.49,20.1,121.57
		c-23.17,41.08,73.91,80.32,108.4,127.24C1024.91,448.46,938.57,529.05,937.77,530.61z"/>
	
		<rect x="467.16" y="223.22" transform="matrix(0.9785 -0.2065 0.2065 0.9785 -40.787 107.1446)" fill="#D5E7FF" width="51.53" height="51.53"/>
	
		<rect x="475.37" y="236.76" transform="matrix(0.9378 0.3472 -0.3472 0.9378 122.3101 -157.6489)" fill="#F3FAFF" width="51.53" height="51.53"/>
	<g>
		<path fill="#88ACF4" d="M466.29,193.15h-46.04c-8.63,0-15.7-7.06-15.7-15.7v-49.24c0-8.63,7.06-15.7,15.7-15.7h46.04
			c8.63,0,15.7,7.06,15.7,15.7v49.24C481.98,186.08,474.92,193.15,466.29,193.15z"/>
		<path fill="#DCEAFF" d="M464.29,189.66h-42.05c-7.89,0-14.34-6.45-14.34-14.34v-44.97c0-7.89,6.45-14.34,14.34-14.34h42.05
			c7.89,0,14.34,6.45,14.34,14.34v44.97C478.63,183.2,472.18,189.66,464.29,189.66z"/>
		<g>
			<g>
				<path fill="#88ACF4" d="M441.66,123.37c0-0.95,0.72-1.72,1.6-1.72c0.89,0,1.6,0.77,1.6,1.72c0,0.95-0.72,1.72-1.6,1.72
					C442.38,125.09,441.66,124.32,441.66,123.37z"/>
				<path fill="#88ACF4" d="M454.61,125.8c0.43-0.83,1.41-1.13,2.18-0.67c0.77,0.46,1.05,1.51,0.62,2.34
					c-0.43,0.83-1.41,1.13-2.18,0.67C454.45,127.68,454.18,126.64,454.61,125.8z"/>
				<path fill="#88ACF4" d="M465.69,135.26c0.74-0.52,1.74-0.29,2.22,0.51c0.48,0.8,0.27,1.86-0.48,2.38
					c-0.74,0.52-1.74,0.29-2.22-0.51C464.74,136.84,464.95,135.77,465.69,135.26z"/>
				<path fill="#88ACF4" d="M471.19,149.89c0.89,0,1.6,0.77,1.6,1.72c0,0.95-0.72,1.72-1.6,1.72c-0.89,0-1.6-0.77-1.6-1.72
					C469.58,150.66,470.3,149.89,471.19,149.89z"/>
				<path fill="#88ACF4" d="M468.38,166.88c0.63,0.67,0.63,1.76,0,2.43c-0.63,0.67-1.64,0.67-2.27,0c-0.63-0.67-0.63-1.76,0-2.43
					C466.74,166.21,467.76,166.21,468.38,166.88z"/>
				<path fill="#88ACF4" d="M458.31,177.72c0.63,0.67,0.63,1.76,0,2.43c-0.63,0.67-1.64,0.67-2.27,0c-0.63-0.67-0.63-1.76,0-2.43
					C456.67,177.04,457.68,177.04,458.31,177.72z"/>
				<path fill="#88ACF4" d="M441.66,183.3c0-0.95,0.72-1.72,1.6-1.72c0.89,0,1.6,0.77,1.6,1.72c0,0.95-0.72,1.72-1.6,1.72
					C442.38,185.02,441.66,184.25,441.66,183.3z"/>
			</g>
			<g>
				<path fill="#88ACF4" d="M431.88,125.8c-0.43-0.83-1.41-1.13-2.18-0.67c-0.77,0.46-1.05,1.51-0.62,2.34
					c0.43,0.83,1.41,1.13,2.18,0.67C432.03,127.68,432.31,126.64,431.88,125.8z"/>
				<path fill="#88ACF4" d="M420.79,135.26c-0.74-0.52-1.74-0.29-2.22,0.51c-0.48,0.8-0.27,1.86,0.48,2.38
					c0.74,0.52,1.74,0.29,2.22-0.51C421.75,136.84,421.53,135.77,420.79,135.26z"/>
				<path fill="#88ACF4" d="M415.3,149.89c-0.89,0-1.6,0.77-1.6,1.72c0,0.95,0.72,1.72,1.6,1.72c0.89,0,1.6-0.77,1.6-1.72
					C416.9,150.66,416.18,149.89,415.3,149.89z"/>
				<path fill="#88ACF4" d="M418.1,166.88c-0.63,0.67-0.63,1.76,0,2.43c0.63,0.67,1.64,0.67,2.27,0c0.63-0.67,0.63-1.76,0-2.43
					C419.74,166.21,418.73,166.21,418.1,166.88z"/>
				<path fill="#88ACF4" d="M428.17,177.72c-0.63,0.67-0.63,1.76,0,2.43c0.63,0.67,1.64,0.67,2.27,0c0.63-0.67,0.63-1.76,0-2.43
					C429.81,177.04,428.8,177.04,428.17,177.72z"/>
			</g>
		</g>
		<g>
			<path fill="#88ACF4" d="M442.83,151.62c0-0.95,0.72-1.72,1.6-1.72s1.6,0.77,1.6,1.72c0,0.95-0.72,1.72-1.6,1.72
				S442.83,152.57,442.83,151.62z"/>
			<g>
				<rect x="444.22" y="130.11" fill="#88ACF4" width="0.44" height="21.51"/>
			</g>
			<g>
				<polygon fill="#88ACF4" points="444.64,152.14 443.83,151.03 454.45,142.08 455.26,143.19 				"/>
			</g>
		</g>
	</g>
	<g>
		<g>
			<path fill="#97C0F8" d="M603.71,93.45l-2.13-1.17c-2.27-1.25-3.11-4.11-1.86-6.38l9.8-17.87c1.25-2.27,4.11-3.11,6.38-1.86
				l3.05,1.67c0.45,0.24,0.61,0.8,0.36,1.25c-0.24,0.45-0.8,0.61-1.25,0.36l-3.05-1.67c-1.38-0.76-3.13-0.25-3.89,1.13l-9.8,17.87
				c-0.76,1.38-0.25,3.13,1.13,3.89l2.13,1.17c1.38,0.76,3.13,0.25,3.89-1.13l6.51-11.86c0.24-0.45,0.8-0.61,1.25-0.36
				c0.45,0.24,0.61,0.8,0.36,1.25l-6.51,11.86C608.85,93.86,605.98,94.69,603.71,93.45z"/>
		</g>
		<g>
			<path fill="#97C0F8" d="M594.62,112.21l-3.82-2.09c-3.54-1.94-4.73-6.61-2.65-10.41l14.73-26.86c0.24-0.45,0.8-0.61,1.25-0.36
				c0.45,0.24,0.61,0.8,0.36,1.25l-14.73,26.86c-1.59,2.91-0.73,6.46,1.92,7.91l3.82,2.09c2.65,1.46,6.11,0.27,7.71-2.63
				l16.78-30.59c1.59-2.91,0.73-6.46-1.92-7.91c-0.45-0.24-0.61-0.8-0.36-1.25c0.24-0.45,0.8-0.61,1.25-0.36
				c3.54,1.94,4.73,6.61,2.65,10.41l-16.78,30.59C602.74,112.64,598.16,114.15,594.62,112.21z"/>
		</g>
	</g>
	<g>
		<g>
			<path fill="#FF8459" d="M753.36,169.81l1.69-1.75c1.8-1.87,4.78-1.92,6.65-0.12l14.66,14.15c1.87,1.8,1.92,4.78,0.12,6.65
				l-2.42,2.5c-0.35,0.37-0.94,0.38-1.3,0.02c-0.37-0.35-0.38-0.94-0.02-1.3l2.42-2.5c1.1-1.14,1.06-2.95-0.07-4.05l-14.66-14.15
				c-1.14-1.1-2.95-1.06-4.05,0.07l-1.69,1.75c-1.1,1.14-1.06,2.95,0.07,4.05l9.73,9.39c0.37,0.35,0.38,0.94,0.02,1.3
				c-0.35,0.37-0.94,0.38-1.3,0.02l-9.73-9.39C751.61,174.66,751.56,171.68,753.36,169.81z"/>
		</g>
		<g>
			<path fill="#FF8459" d="M737.64,156.11l3.02-3.13c2.81-2.91,7.63-2.83,10.74,0.18l22.04,21.27c0.37,0.35,0.38,0.94,0.02,1.3
				c-0.35,0.37-0.94,0.38-1.3,0.02l-22.04-21.27c-2.39-2.3-6.04-2.4-8.14-0.23l-3.02,3.13c-2.1,2.18-1.87,5.82,0.51,8.13
				l25.11,24.23c2.39,2.3,6.04,2.4,8.14,0.23c0.35-0.37,0.94-0.38,1.3-0.02c0.37,0.35,0.38,0.94,0.02,1.3
				c-2.81,2.91-7.63,2.83-10.74-0.18l-25.11-24.23C735.09,163.83,734.84,159.02,737.64,156.11z"/>
		</g>
	</g>
	<g>
		<path fill="#D5E7FF" d="M419.22,347.84c0,0-3.01-49.73-11.61-65.29h45.27v65.19L419.22,347.84z"/>
		<path fill="#B8C8FC" d="M441.85,347.84c0,0-3.01-49.73-11.61-65.29h45.27v65.19L441.85,347.84z"/>
		<g>
			<rect x="458.89" y="255.8" fill="#32478F" width="43.81" height="141.34"/>
			<rect x="502.7" y="255.8" fill="#2A3967" width="105.65" height="141.34"/>
			<circle fill="#DAE6FF" cx="480.79" cy="273.45" r="7.31"/>
			<circle fill="#6D76FF" cx="480.79" cy="273.45" r="5.17"/>
			<rect x="470.65" y="291.07" fill="#88ACF4" width="20.61" height="37.23"/>
		</g>
		<rect x="534.54" y="320.64" fill="#C8E1FF" width="84.07" height="27.1"/>
		<rect x="618.62" y="320.64" fill="#9BC7F7" width="84.07" height="27.1"/>
		<g>
			<rect x="534.54" y="333.89" fill="#88ACF4" width="20.98" height="0.59"/>
		</g>
		<g>
			<rect x="560.67" y="325.55" fill="#88ACF4" width="57.95" height="0.59"/>
		</g>
		<g>
			<rect x="534.54" y="341.19" fill="#88ACF4" width="37.09" height="0.59"/>
		</g>
		<rect x="508.47" y="293.54" fill="#D5E7FF" width="84.07" height="27.1"/>
		<rect x="592.54" y="293.54" fill="#B8C8FC" width="84.07" height="27.1"/>
		<g>
			<rect x="508.47" y="306.79" fill="#88ACF4" width="20.98" height="0.59"/>
		</g>
		<g>
			<rect x="534.59" y="298.45" fill="#88ACF4" width="57.95" height="0.59"/>
		</g>
		<g>
			<rect x="508.47" y="314.09" fill="#88ACF4" width="37.09" height="0.59"/>
		</g>
		<rect x="555.52" y="217.14" opacity="0.5" fill="#B6D7FF" width="84.07" height="27.1"/>
		<rect x="639.6" y="217.14" fill="#9BC7F7" width="84.07" height="27.1"/>
		<g>
			<rect x="555.52" y="230.39" fill="#88ACF4" width="20.98" height="0.59"/>
		</g>
		<g>
			<rect x="581.65" y="222.05" fill="#88ACF4" width="57.95" height="0.59"/>
		</g>
		<g>
			<rect x="555.52" y="237.31" fill="#88ACF4" width="37.09" height="0.59"/>
		</g>
		<rect x="529.45" y="190.04" fill="#F3FAFF" width="84.07" height="27.1"/>
		<rect x="613.52" y="190.04" fill="#B6D7FF" width="84.07" height="27.1"/>
		<g>
			<rect x="529.45" y="203.29" fill="#88ACF4" width="20.98" height="0.59"/>
		</g>
		<g>
			<rect x="609.18" y="203.29" fill="#88ACF4" width="20.98" height="0.59"/>
		</g>
		<g>
			<rect x="601.43" y="194.95" fill="#88ACF4" width="57.95" height="0.59"/>
		</g>
		<g>
			<rect x="529.45" y="210.59" fill="#88ACF4" width="37.09" height="0.59"/>
		</g>
		
			<rect x="624.16" y="244.2" transform="matrix(-1 -1.224647e-16 1.224647e-16 -1 1332.3932 537.7372)" fill="#B6D7FF" width="84.07" height="49.34"/>
		
			<rect x="540.09" y="244.2" transform="matrix(-1 -1.224647e-16 1.224647e-16 -1 1164.2466 537.7372)" fill="#F3FAFF" width="84.07" height="49.34"/>
		<g>
			<rect x="687.25" y="268.47" fill="#88ACF4" width="20.98" height="0.79"/>
		</g>
		<g>
			<rect x="566.54" y="253.47" fill="#32478F" width="115.57" height="0.43"/>
		</g>
		<g>
			<rect x="671.14" y="281.75" fill="#88ACF4" width="37.09" height="0.79"/>
		</g>
		<g>
			<rect x="599.75" y="262.31" fill="#32478F" width="39.85" height="0.43"/>
		</g>
		<g>
			<rect x="496.91" y="347.84" fill="#FF7536" width="247.53" height="182.89"/>
			<rect x="415.53" y="347.84" fill="#FF8459" width="196.26" height="182.89"/>
			<path fill="#2A3967" d="M529.52,377.69h-54.1c-2.25,0-4.09-1.84-4.09-4.09v-4c0-2.25,1.84-4.09,4.09-4.09h54.1
				c2.25,0,4.09,1.84,4.09,4.09v4C533.62,375.85,531.78,377.69,529.52,377.69z"/>
		</g>
		<g>
			
				<rect x="490.14" y="409.54" transform="matrix(0.9849 0.1729 -0.1729 0.9849 82.637 -82.3093)" fill="#97C0F8" width="47.06" height="47.06"/>
			
				<rect x="493.55" y="409.84" transform="matrix(0.9849 0.1729 -0.1729 0.9849 79.328 -83.1918)" fill="#88ACF4" width="47.06" height="7.6"/>
		</g>
		<g>
			
				<rect x="548.11" y="373.61" transform="matrix(0.9672 -0.2541 0.2541 0.9672 -82.143 158.269)" fill="#FFB600" width="47.06" height="47.06"/>
			
				<rect x="543.09" y="374.25" transform="matrix(0.9672 -0.2541 0.2541 0.9672 -77.4623 156.3756)" fill="#FF9F00" width="47.06" height="7.6"/>
		</g>
		<g>
			<path fill="#88ACF4" d="M416.7,296.97c-1.27-7.05-4.96-14.26-5-14.33l0.38-0.2c0.04,0.07,3.76,7.33,5.04,14.45L416.7,296.97z"/>
		</g>
		<g>
			<path fill="#88ACF4" d="M427.81,314.74c-2.65-18.99-8.22-31.97-8.27-32.1l0.39-0.17c0.06,0.13,5.64,13.17,8.3,32.21
				L427.81,314.74z"/>
		</g>
	</g>
	<g>
		<g>
			<g>
				<rect x="712.61" y="392.84" fill="#88ACF4" width="186.47" height="137.77"/>
				<rect x="651.31" y="392.84" fill="#97C0F8" width="147.85" height="137.77"/>
				<path fill="#32478F" d="M737.18,415.33h-40.75c-1.7,0-3.08-1.39-3.08-3.08v-3.01c0-1.7,1.39-3.08,3.08-3.08h40.75
					c1.7,0,3.08,1.39,3.08,3.08v3.01C740.26,413.94,738.88,415.33,737.18,415.33z"/>
				<rect x="644.06" y="369.39" fill="#B6D7FF" width="155.1" height="30.35"/>
				<rect x="799.16" y="369.39" fill="#75A3EF" width="104.58" height="30.35"/>
			</g>
			<g>
				
					<rect x="737.45" y="427.03" transform="matrix(0.9672 -0.2541 0.2541 0.9672 -89.7201 208.4084)" fill="#FF8459" width="49.03" height="49.04"/>
				
					<rect x="732.22" y="427.7" transform="matrix(0.9672 -0.2541 0.2541 0.9672 -84.8419 206.4347)" fill="#FF7536" width="49.03" height="7.92"/>
			</g>
		</g>
		<g>
			<polygon fill="#FF7536" points="747.25,307.54 786.13,276.24 843.82,283.29 843.82,307.54 			"/>
			
				<rect x="722.04" y="243.6" transform="matrix(-1.836970e-16 1 -1 -1.836970e-16 1029.7316 -445.9535)" fill="#FF8459" width="31.61" height="96.57"/>
			<path fill="#DAE6FF" d="M774.07,286.97c2.76,0,5,2.24,5,5c0,2.76-2.24,5-5,5c-2.76,0-5-2.24-5-5
				C769.07,289.2,771.31,286.97,774.07,286.97z"/>
			<path fill="#100259" d="M774.07,289.17c1.54,0,2.79,1.25,2.79,2.79s-1.25,2.79-2.79,2.79c-1.54,0-2.79-1.25-2.79-2.79
				S772.52,289.17,774.07,289.17z"/>
			
				<rect x="740.04" y="277.13" transform="matrix(-1.836970e-16 1 -1 -1.836970e-16 1039.1595 -455.0111)" fill="#B6D7FF" width="14.08" height="29.89"/>
		</g>
		<g>
			<rect x="695.36" y="338.54" fill="#DAE6FF" width="95.71" height="30.85"/>
			<g>
				<rect x="791.06" y="338.54" fill="#B1C5EA" width="95.71" height="30.85"/>
				<g>
					<rect x="695.36" y="353.63" fill="#32478F" width="23.88" height="0.67"/>
				</g>
				<g>
					<rect x="725.09" y="344.14" fill="#32478F" width="65.97" height="0.67"/>
				</g>
				<g>
					<rect x="695.36" y="361.94" fill="#32478F" width="42.22" height="0.67"/>
				</g>
			</g>
		</g>
		<g>
			<rect x="665.67" y="307.69" fill="#E7EFFF" width="95.71" height="30.85"/>
			<g>
				<rect x="761.38" y="307.69" fill="#B8C8FC" width="95.71" height="30.85"/>
				<g>
					<rect x="665.67" y="322.78" fill="#88ACF4" width="23.88" height="0.67"/>
				</g>
				<g>
					<rect x="695.41" y="313.29" fill="#88ACF4" width="65.97" height="0.67"/>
				</g>
				<g>
					<rect x="665.67" y="331.09" fill="#88ACF4" width="42.22" height="0.67"/>
				</g>
			</g>
		</g>
	</g>
	<g>
		<g>
			<path fill="#FF912B" d="M167.23,226.2c-1.7,0-2.88-0.41-3.48-1.27c-0.42-0.6-0.54-1.39-0.36-2.33
				c1.73-9.18,31.93-35.31,71.81-62.13c38.93-26.18,82.09-49.08,86.94-42.08c0.42,0.6,0.54,1.39,0.36,2.33
				c-1.73,9.18-31.93,35.31-71.81,62.13C216.58,205.79,179.23,226.2,167.23,226.2z M164.46,224.44c1.81,2.62,12.22-0.38,27.85-8.02
				c16.29-7.96,36.85-20.14,57.89-34.29c39.06-26.27,69.78-52.74,71.44-61.57c0.13-0.71,0.06-1.28-0.22-1.68
				c-1.81-2.62-12.22,0.38-27.85,8.02c-16.29,7.96-36.85,20.14-57.89,34.29c-39.06,26.27-69.78,52.74-71.44,61.57
				C164.11,223.47,164.18,224.03,164.46,224.44L164.46,224.44z"/>
		</g>
		<path fill="#2A3967" d="M387.5,363.35c-27.12-8.7-200.11,65.73-200.11,65.73s-28.17,20-1.27,61.87
			c22.33,34.76,190.34-71.44,193.38-58.1c7.27,31.85,69.24,92.96,69.24,92.96c10.35,3.39,33.38-10.42,33.38-10.42
			C457.93,478.62,409.16,370.3,387.5,363.35z"/>
		<path fill="#F9924F" d="M299.34,246.07c0,0-3.8-6.01-4.41-12.09c-0.61-6.08,0.34-23.21-3.94-27.21
			c-4.29-4-17.87-13.89-22.77-11.77c-4.9,2.12,11.17,12,11.66,17.01c0.49,5.01,0.18,5.56-1.69,5.89c-1.87,0.33-8.05-7.03-8.08-4.69
			c-0.03,2.34,6.02,15.23,9.03,17.81c3.01,2.58,7.48,22.43,7.48,22.43L299.34,246.07z"/>
		<path fill="#88ACF4" d="M299.34,237.59c0,0-16.02,0-18.74,12.92c0,0,0.83,43.84,6.58,83.1c-34.55-32.64-21.76-32.14-49.84-53.4
			c-11.41-8.64-21.7,21.08-21.41,42.1c0.28,21.03,73.59,69.08,92.47,63.17C328.87,379.08,333.06,333.23,299.34,237.59z"/>
		<path fill="#2A3967" d="M594.5,529.14c0.09-0.06,0.59-0.73,0.69-0.82l32.51-54.61c1.06-1.66,0.11-3.85-1.81-4.26
			c-3.98-0.85-9.3,0.07-12.84,4.68c-6.51,8.45-20.56,21.6-34.35,18.78c-0.44-0.09-0.89-0.2-1.33-0.32c-14.2-4-8.82,25.62-8.82,25.62
			s0.47,0.34,1.28,0.89C574.21,522.07,590.41,532,594.5,529.14z"/>
		<path fill="#32478F" d="M156.53,446.13c0,0,150.66-6.66,208.9,8.44c0,0,57.9,40.73,9.57,54.25
			c-18.81,5.26-83.09,20.67-117.9,20.67c-57.13,0-111.81,0.37-111.81,0.37c-8.8-3.87-10.18-29.92-11.6-36.93
			C123.8,444.15,156.53,446.13,156.53,446.13z"/>
		<path fill="#32478F" d="M361.86,453.69c0,0,157.91,29.97,219.22,39.54c0,0-6.67,25.75-16.63,31.47c0,0-36.48,2.39-72.95,4.78
			c-45.03,2.96-89.45-2.56-116.45-13.41C314.07,491.59,361.86,453.69,361.86,453.69z"/>
		<path fill="#FFAE73" d="M243.4,311.86c-27.79-1.24-64.04-44-64.04-44s20.53-6.22,34.19-29.55c2.65-4.53,5.04-9.7,6.98-15.6
			l9.23,15.32l13.61,22.58c0,0-1.23,3.29-4,9.08v0.01c-0.92,1.93-2.01,4.15-3.28,6.61c-1.53,2.96-3.32,6.27-5.38,9.89
			C239.26,295.99,243.4,311.86,243.4,311.86z"/>
		<path fill="#F9924F" d="M243.37,260.6c0,0-1.23,3.29-4,9.08C219.74,256.33,218,237.13,218,237.13s1.52-0.23,11.76,0.89
			L243.37,260.6z"/>
		<path fill="#FFAE73" d="M251.29,265.49c0,0-41.95-14.62-32.44-40.61c9.51-25.98,10.5-45.37,37.68-37.13
			c27.19,8.24,28.73,20.05,27.67,29.49C283.13,226.68,262.45,268.62,251.29,265.49z"/>
		<path fill="#25468F" d="M211.18,177.53c-0.31-0.56-1.17-1.14-3.25-1.7c0,0,1.9-0.72,4.16-0.31c1.06-2.88,3.7-7.8,9-8.03
			c0,0-3.01,0.9-4.02,3.98c7.09-4.86,20.49-6.69,54.47,3.27c44.78,13.13,23.61,39.62,16.98,41.92c-6.63,2.3-19.46-10.46-30.63-11.86
			c-11.17-1.4-16.61,14.29-20.8,15.72c-4.19,1.44-1.91-2.17-6.47-5.53c-4.56-3.36-6.81,5.02-6.5,10.84s-9.63,10.81-9.63,10.81
			s-0.99-3.41-3.91-8.27c-5.46-9.08-5.26-42.92-0.63-49.17C210.36,178.66,210.76,178.1,211.18,177.53z"/>
		<path fill="#97C0F8" d="M255.21,340.13c-3.16,81.39-30.47,68.83-16.26,92.92c9.05,15.34-9.86,27.45-30.62,43.1
			c-0.61,0.46-1.22,0.92-1.83,1.38c-5.95,4.53-12.26,8.96-18.56,12.99c-9.77,6.25-19.55,11.55-28.08,14.8
			c-8.7,3.33-16.11,4.54-20.87,2.47c-0.15-0.06-0.29-0.12-0.43-0.19c-4.07-2.01-7.45-7.45-10.21-14.82
			c-4.96-13.14-10.6-65.12-12.21-80.65c-0.28-2.79-0.44-4.4-0.44-4.4c-9.22-113.31,84.85-153.11,84.85-153.11
			s8.23,24.59,34.82,23.09C235.41,277.74,256.54,305.64,255.21,340.13z"/>
		<path fill="#88ACF4" d="M208.32,476.14c-0.61,0.46-1.22,0.92-1.83,1.38c-5.95,4.53-12.26,8.96-18.56,12.99
			c-9.77,6.25-19.55,11.55-28.08,14.8c-9.44,2.68-17.25,3.86-20.87,2.47c-0.15-0.06-0.29-0.12-0.43-0.19
			c-4.07-2.01-7.45-7.45-10.21-14.82c-4.96-13.14-10.6-65.12-12.21-80.65c11.54-33.22,27.41-70.77,45.03-87.59
			c34.73-33.17,45.32,17.35,45.32,17.35S179.62,408.16,208.32,476.14z"/>
		<path fill="#97C0F8" d="M172.72,294.04c-13.77,34.23-42.37,100.26-32.19,132.38c0,0,41.18,10.87,42.38-1.88
			c6.68-71.24,67.97-149.16,20.66-147.63C190.33,277.34,177.66,281.76,172.72,294.04z"/>
		<path fill="#FF7536" d="M231.9,281.77c0,0,32.84,99.17,13.82,194.84l-28.24,9.71l-6.92-20.08c0,0,36.61-93.56,16.78-183.41
			L231.9,281.77z"/>
		<path fill="#FFAE73" d="M171.43,506.48c0,0,10.73,14.66,23.89,12.58c13.16-2.08,18,1.73,23.89,4.85s7.5,4.76,5.4,5.58
			c-1.59,0.62-30.33,0.31-44.44,0.11c-4.64-0.06-17.91-12.45-17.91-12.45L171.43,506.48z"/>
		<path fill="#97C0F8" d="M138.81,417.13c-2,53.51,16.45,90.02,21.46,108.73c0,0,6.09,2.89,10.82,1.33
			c10.35-3.41,10.23-11.62,10.23-11.62s0.28-66.57,1.59-91.02C184.17,400.72,139.23,405.97,138.81,417.13z"/>
		<path fill="#FF7536" d="M206.48,248.36c0,0-8.82,2.38-13.19,9.91c0,0,3.44,14.86,37.02,23.17l-1.27-3.88
			C229.04,277.55,209.86,268.13,206.48,248.36z"/>
		<path fill="#FF7536" d="M229.04,277.55c0,0,6.85-2.54,8.29-3.68c0,0,1.72,3.91,1.02,7.1c0,0-2.22,1.39-8.04,0.47
			C224.49,280.52,229.04,277.55,229.04,277.55z"/>
		<path fill="#FF7536" d="M231.9,277.52c0,0-6.69-0.57-7.39,0.29c-0.69,0.86,3.91,8.77,6.19,8.39
			C232.99,285.81,233.75,278.44,231.9,277.52z"/>
		<g>
			<path fill="#FF912B" d="M167.86,226.05c-1.7,0-2.88-0.41-3.48-1.28l0.71-0.49c3.5,5.06,38.79-10.73,85.74-42.31
				c39.06-26.27,69.78-52.74,71.44-61.57c0.13-0.71,0.06-1.28-0.22-1.68l0.71-0.49c0.42,0.6,0.54,1.39,0.36,2.33
				c-1.73,9.18-31.93,35.31-71.81,62.13C217.21,205.63,179.86,226.05,167.86,226.05z"/>
		</g>
		<g>
			<path fill="#FF912B" d="M177.84,199.68c-9.32,0-16.86-0.65-22.43-1.93c-5.99-1.38-9.48-3.46-10.38-6.19
				c-0.47-1.41-0.22-2.94,0.72-4.56c4.07-6.96,20.42-13.96,29.8-17.51c16.33-6.18,37.67-12.02,60.08-16.43
				c25.78-5.08,50.67-7.89,70.08-7.92c9.45-0.02,17.12,0.63,22.75,1.93c5.99,1.38,9.48,3.46,10.38,6.19
				c0.47,1.41,0.22,2.94-0.72,4.56c-4.07,6.96-20.42,13.96-29.8,17.51c-16.33,6.18-37.67,12.02-60.08,16.43
				c-25.78,5.08-50.67,7.89-70.08,7.92C178.06,199.68,177.95,199.68,177.84,199.68z M306.03,146.22c-0.1,0-0.21,0-0.31,0
				c-19.34,0.03-44.16,2.84-69.87,7.9c-45.59,8.98-83.08,23.03-89.16,33.43c-0.78,1.33-0.99,2.57-0.62,3.67
				c1.55,4.69,13.13,7.38,31.79,7.38c0.1,0,0.21,0,0.31,0c19.34-0.03,44.16-2.84,69.87-7.9c45.59-8.98,83.08-23.03,89.16-33.43
				c0.78-1.33,0.99-2.57,0.62-3.67C336.27,148.91,324.69,146.22,306.03,146.22z"/>
		</g>
		<polygon fill="#FFB600" points="172.93,168.78 170.22,170.93 173.57,171.77 174.78,175.01 176.61,172.08 180.07,171.94 
			177.85,169.29 178.78,165.96 175.57,167.25 172.69,165.34 		"/>
		<polygon fill="#FFB600" points="312.05,132.21 310.94,135.49 314.21,134.37 316.98,136.44 316.94,132.98 319.76,130.98 
			316.46,129.96 315.43,126.66 313.43,129.49 309.98,129.45 		"/>
		<polygon fill="#FF912B" points="274.75,108.62 273.29,111.75 276.67,111 279.2,113.36 279.53,109.92 282.55,108.24 279.38,106.86 
			278.72,103.47 276.43,106.06 273,105.64 		"/>
		<polygon fill="#FF912B" points="316.73,194.92 315.28,198.05 318.65,197.3 321.18,199.66 321.51,196.22 324.53,194.54 
			321.36,193.16 320.7,189.77 318.41,192.36 314.98,191.94 		"/>
		<polygon fill="#FFB600" points="182.59,218.15 179.73,220.08 183.01,221.18 183.96,224.5 186.02,221.72 189.47,221.84 
			187.46,219.03 188.64,215.78 185.35,216.82 182.62,214.69 		"/>
		<polygon fill="#FF912B" points="113.64,203.3 131.98,209.51 129.83,202.02 140.56,204.06 121.71,194.64 124.99,203.39 		"/>
		<polygon fill="#FF912B" points="235.43,96.36 234.24,126.01 244.32,119.6 245.96,136.26 251.65,104.48 240.21,113.09 		"/>
	</g>
	<g>
		<path fill="#FFFFFF" d="M629.47,509.43c0.53,1.28,1.51,8.03,3.59,13.68l0,0.01c1.25,3.4,2.9,6.39,5.09,7.56
			c5.83,3.12,16.15-1.1,16.15-1.1s17.13,2.94,18.85,2.24c1.72-0.7,4.83-26.49,4.83-26.49s-12.64-14.68-13.81-15.14
			c-1.18-0.46-11.28,4.17-12.96,4.08c-1.68-0.09-11.14-7.05-13.86-5.58C634.62,490.15,628.62,507.39,629.47,509.43z"/>
		<path fill="#F0F6FF" d="M651.2,494.26c0,0,2.62,6.93,3.42,7.58c0.81,0.64,9.53-11.65,9.53-11.65
			C662.98,489.72,652.88,494.35,651.2,494.26z"/>
		<path fill="#F0F6FF" d="M637.17,495.41c0,0,11.63,12.02,11.41,13.08c-0.22,1.05-13.73,7.89-14.19,7.6
			c-0.46-0.29,3.29-8.74,3.21-10.2C637.51,504.42,637.17,495.41,637.17,495.41z"/>
		<path fill="#F0F6FF" d="M629.47,509.43c0.53,1.28,1.51,8.03,3.59,13.68l0,0.01l0.01,0l-0.76-12.73l5.04-21.71
			C634.62,490.15,628.62,507.39,629.47,509.43z"/>
		<path fill="#F0F6FF" d="M654.29,529.57c0,0,17.13,2.94,18.85,2.24c1.72-0.7,4.83-26.49,4.83-26.49s-4.48,13.07-4.6,13.72
			c-0.12,0.66-5.34-1.09-5.34-1.09L654.29,529.57z"/>
		<polygon fill="#F0F6FF" points="673.48,505.08 671.19,511.83 667.24,511.62 670.33,508.9 		"/>
	</g>
	<g>
		<path fill="#FFFFFF" d="M726.33,515.31c0.41,0.87,1.17,5.45,2.79,9.29l0,0.01c0.97,2.31,2.25,4.35,3.95,5.17
			c4.53,2.17,12.53-0.56,12.53-0.56s13.29,2.19,14.62,1.73c1.33-0.46,3.74-17.85,3.74-17.85s-9.81-10.07-10.72-10.39
			c-0.91-0.33-8.75,2.69-10.05,2.61c-1.3-0.08-8.64-4.89-10.76-3.93C730.32,502.33,725.67,513.92,726.33,515.31z"/>
		<path fill="#BED9E9" d="M743.19,505.3c0,0,2.03,4.72,2.66,5.16c0.62,0.44,7.39-7.77,7.39-7.77
			C752.32,502.37,744.49,505.38,743.19,505.3z"/>
		<path fill="#DCEAF5" d="M732.3,505.92c0,0,9.02,8.26,8.85,8.97c-0.17,0.71-10.65,5.18-11.01,4.97c-0.36-0.2,2.55-5.87,2.48-6.86
			C732.57,512.01,732.3,505.92,732.3,505.92z"/>
		<path fill="#BED9E9" d="M726.33,515.31c0.41,0.87,1.17,5.45,2.79,9.29l0,0.01h0l-0.59-8.62l3.91-14.62
			C730.32,502.33,725.67,513.92,726.33,515.31z"/>
		<path fill="#DCEAF5" d="M745.6,529.21c0,0,13.29,2.19,14.62,1.73c1.33-0.46,3.74-17.85,3.74-17.85s-3.47,8.78-3.57,9.22
			c-0.09,0.44-4.15-0.8-4.15-0.8L745.6,529.21z"/>
		<polygon fill="#DCEAF5" points="760.47,512.87 758.7,517.41 755.63,517.22 758.03,515.42 		"/>
	</g>
	<g>
		<path fill="#FFFFFF" d="M746.13,261.71c0.41,0.87,1.17,5.45,2.79,9.29l0,0.01c0.97,2.31,2.25,4.35,3.95,5.17
			c4.53,2.17,12.53-0.56,12.53-0.56s13.29,2.19,14.62,1.73c1.33-0.46,3.74-17.85,3.74-17.85s-9.81-10.07-10.72-10.39
			c-0.91-0.33-8.75,2.69-10.05,2.61c-1.3-0.08-8.64-4.89-10.76-3.93C750.12,248.74,745.47,260.32,746.13,261.71z"/>
		<path fill="#BED9E9" d="M762.99,251.71c0,0,2.03,4.72,2.66,5.16c0.62,0.44,7.39-7.77,7.39-7.77
			C772.13,248.77,764.29,251.79,762.99,251.71z"/>
		<path fill="#DCEAF5" d="M752.1,252.33c0,0,9.02,8.26,8.85,8.97c-0.17,0.71-10.65,5.18-11.01,4.97c-0.36-0.2,2.55-5.87,2.48-6.86
			C752.37,258.42,752.1,252.33,752.1,252.33z"/>
		<path fill="#BED9E9" d="M746.13,261.71c0.41,0.87,1.17,5.45,2.79,9.29l0,0.01l0,0l-0.59-8.62l3.91-14.62
			C750.12,248.74,745.47,260.32,746.13,261.71z"/>
		<path fill="#DCEAF5" d="M765.4,275.61c0,0,13.29,2.19,14.62,1.73c1.33-0.46,3.74-17.85,3.74-17.85s-3.47,8.78-3.57,9.22
			c-0.09,0.44-4.15-0.8-4.15-0.8L765.4,275.61z"/>
		<polygon fill="#DCEAF5" points="780.28,259.28 778.5,263.82 775.43,263.62 777.83,261.82 		"/>
	</g>
	<path fill="#1E3865" d="M994.51,531.92H5.49c-0.49,0-0.88-0.4-0.88-0.88v-0.86c0-0.49,0.4-0.88,0.88-0.88h989.02
		c0.49,0,0.88,0.4,0.88,0.88v0.86C995.39,531.52,995,531.92,994.51,531.92z"/>
</g>
</svg>
