<?xml version="1.0" encoding="utf-8"?>
<!-- Generator: Adobe Illustrator 24.1.1, SVG Export Plug-In . SVG Version: 6.00 Build 0)  -->
<svg version="1.1" id="Layer_1" xmlns="http://www.w3.org/2000/svg" xmlns:xlink="http://www.w3.org/1999/xlink" x="0px" y="0px"
	 viewBox="0 0 612.68 482.16" enable-background="new 0 0 612.68 482.16" xml:space="preserve">
<g>
	<g>
		<g>
			<path opacity="0.14" fill="#3E479B" d="M464.8,463.07l-168.84-100.1c-1.36-0.8-1.81-2.56-1-3.91l136.3-229.89
				c0.8-1.36,2.56-1.8,3.91-1l168.84,100.1c1.36,0.8,1.81,2.56,1,3.91l-136.3,229.89C467.91,463.42,466.16,463.87,464.8,463.07z"/>
			<path fill="#F7A9B4" d="M460.41,453.85l-168.84-100.1c-1.36-0.8-1.8-2.56-1-3.91l136.3-229.89c0.8-1.36,2.56-1.8,3.91-1
				l168.84,100.1c1.36,0.8,1.81,2.56,1,3.91l-136.3,229.89C463.52,454.21,461.77,454.66,460.41,453.85z"/>
		</g>
		<g>
			<path opacity="0.14" fill="#3E479B" d="M508.91,451.04l-193.03-35.58c-1.55-0.29-2.58-1.78-2.29-3.33l48.45-262.83
				c0.29-1.55,1.78-2.58,3.33-2.29l193.03,35.58c1.55,0.29,2.58,1.78,2.29,3.33l-48.45,262.83
				C511.95,450.3,510.47,451.32,508.91,451.04z"/>
			
				<rect x="296.53" y="190.63" transform="matrix(0.1813 -0.9834 0.9834 0.1813 67.7193 664.6019)" fill="#FFFFFF" width="272.97" height="202"/>
			<path opacity="0.39" fill="#F7A9B4" d="M504.79,443.65l-193.03-35.58c-1.55-0.29-2.58-1.78-2.29-3.33l48.45-262.83
				c0.29-1.55,1.78-2.58,3.33-2.29l193.03,35.58c1.55,0.29,2.58,1.78,2.29,3.33l-48.45,262.83
				C507.83,442.91,506.34,443.93,504.79,443.65z"/>
			<path fill="#FFFFFF" d="M527.02,207.34c-0.09,0-0.19-0.01-0.28-0.03l-48.32-8.91c-0.84-0.15-1.39-0.96-1.24-1.8
				c0.16-0.84,0.95-1.39,1.8-1.24l48.32,8.91c0.84,0.15,1.39,0.96,1.24,1.8C528.4,206.82,527.75,207.34,527.02,207.34z"/>
			<path fill="#FFFFFF" d="M524.17,222.77c-0.09,0-0.19-0.01-0.28-0.03l-48.32-8.91c-0.84-0.15-1.39-0.96-1.24-1.8
				c0.16-0.84,0.95-1.39,1.8-1.24l48.32,8.91c0.84,0.15,1.39,0.96,1.24,1.8C525.55,222.25,524.9,222.77,524.17,222.77z"/>
			<path fill="#FFFFFF" d="M521.08,239.55c-0.09,0-0.19-0.01-0.28-0.03l-48.32-8.91c-0.84-0.15-1.39-0.96-1.24-1.8
				c0.15-0.84,0.95-1.39,1.8-1.24l48.32,8.91c0.84,0.15,1.39,0.96,1.24,1.8C522.46,239.03,521.81,239.55,521.08,239.55z"/>
			<g>
				<path opacity="0.14" fill="#3E479B" d="M446.32,253.82l-82.79-15.26c-1.68-0.31-2.79-1.92-2.48-3.6l16.41-89.04
					c0.31-1.68,1.92-2.79,3.6-2.48l82.79,15.26c1.68,0.31,2.79,1.92,2.48,3.6l-16.41,89.04C449.61,253.02,448,254.13,446.32,253.82z
					"/>
				<path fill="#599AF2" d="M443.28,248.65l-78.93-14.55c-1.68-0.31-2.79-1.92-2.48-3.6l15.54-84.3c0.31-1.68,1.92-2.79,3.6-2.48
					l78.93,14.55c1.68,0.31,2.79,1.92,2.48,3.6l-15.54,84.3C446.57,247.85,444.96,248.96,443.28,248.65z"/>
				<path opacity="0.07" fill="#ECF1F7" d="M460.95,169.83l-85.01-15.67l1.48-8.04c0.3-1.63,1.87-2.71,3.5-2.41l79.21,14.6
					c1.57,0.29,2.61,1.8,2.32,3.37L460.95,169.83z"/>
				<path fill="#3E479B" d="M399.73,196.08c-0.6,0-1.21-0.05-1.81-0.17l-1.18-0.22c-6.25-1.15-10.4-7.18-9.25-13.43l2.97-16.11
					c0.23-1.26,1.45-2.09,2.7-1.86c1.26,0.23,2.09,1.44,1.86,2.7l-2.97,16.11c-0.69,3.74,1.79,7.34,5.53,8.03l1.18,0.22
					c2.91,0.54,5.71-1.39,6.24-4.3l7.52-40.77c0.55-3-1.44-5.89-4.44-6.44l-2.01-0.37c-3.2-0.59-6.26,1.53-6.84,4.71l-0.18,1.01
					c-0.23,1.26-1.45,2.09-2.7,1.86c-1.26-0.23-2.09-1.44-1.86-2.7l0.19-1.01c1.05-5.7,6.54-9.48,12.23-8.43l2.01,0.37
					c5.51,1.02,9.17,6.33,8.15,11.84l-7.52,40.77C408.66,192.71,404.45,196.08,399.73,196.08z"/>
				<path fill="#FFFFFF" d="M407.76,161.85c-0.05,0-0.09,0-0.14-0.01l-30.84-5.69c-0.42-0.08-0.7-0.48-0.62-0.9
					c0.08-0.42,0.47-0.7,0.9-0.62l30.85,5.69c0.42,0.08,0.7,0.48,0.62,0.9C408.45,161.59,408.13,161.85,407.76,161.85z"/>
			</g>
			<g>
				<path fill="#FFFFFF" d="M502.08,321.3c-0.09,0-0.19-0.01-0.28-0.03l-147.65-27.22c-0.84-0.15-1.39-0.96-1.24-1.8
					c0.16-0.84,0.95-1.4,1.8-1.24l147.65,27.22c0.84,0.15,1.39,0.96,1.24,1.8C503.46,320.78,502.81,321.3,502.08,321.3z"/>
				<path fill="#FFFFFF" d="M491.52,378.57c-0.09,0-0.19-0.01-0.28-0.03l-147.65-27.21c-0.84-0.15-1.39-0.96-1.24-1.8
					c0.15-0.84,0.95-1.4,1.8-1.24l147.65,27.21c0.84,0.15,1.39,0.96,1.24,1.8C492.9,378.05,492.25,378.57,491.52,378.57z"/>
				<path fill="#FFFFFF" d="M418.95,335.59c-0.09,0-0.19-0.01-0.28-0.03l-69.8-12.87c-0.84-0.15-1.39-0.96-1.24-1.8
					c0.16-0.84,0.95-1.4,1.8-1.24l69.8,12.87c0.84,0.15,1.39,0.96,1.24,1.8C420.33,335.07,419.68,335.59,418.95,335.59z"/>
				<path fill="#FFFFFF" d="M428.57,283.41c-0.09,0-0.19-0.01-0.28-0.03l-69.8-12.87c-0.84-0.15-1.39-0.96-1.24-1.8
					c0.16-0.84,0.95-1.39,1.8-1.24l69.8,12.87c0.84,0.15,1.39,0.96,1.24,1.8C429.95,282.89,429.3,283.41,428.57,283.41z"/>
				<path fill="#FFFFFF" d="M496.84,349.71c-0.09,0-0.19-0.01-0.28-0.03l-66.5-12.26c-0.84-0.15-1.39-0.96-1.24-1.8
					c0.15-0.84,0.95-1.4,1.8-1.24l66.5,12.26c0.84,0.15,1.39,0.96,1.24,1.8C498.22,349.19,497.57,349.71,496.84,349.71z"/>
			</g>
		</g>
		<g>
			<path fill="#599AF2" d="M481.21,46.41h-82.06c-2.84,0-5.14-2.3-5.14-5.14V13.83c0-2.84,2.3-5.14,5.14-5.14h82.06
				c2.84,0,5.14,2.3,5.14,5.14v27.45C486.35,44.11,484.05,46.41,481.21,46.41z"/>
			<path fill="#F7A9B4" d="M543.03,87.54H428.24c-2.84,0-5.14-2.3-5.14-5.14V41.58c0-2.84,2.3-5.14,5.14-5.14h114.79
				c2.84,0,5.14,2.3,5.14,5.14V82.4C548.17,85.24,545.87,87.54,543.03,87.54z"/>
			<g>
				<g>
					<g>
						<path fill="#FFFFFF" d="M453.66,76.74h127.11c3.84,0,6.98,3.14,6.98,6.98v38.94c0,3.84-3.14,6.98-6.98,6.98H453.66
							c-3.84,0-6.98-3.14-6.98-6.98V83.72C446.68,79.88,449.82,76.74,453.66,76.74z"/>
						<path opacity="0.74" fill="#6D6CD4" d="M453.66,76.74h127.11c3.84,0,6.98,3.14,6.98,6.98v38.94c0,3.84-3.14,6.98-6.98,6.98
							H453.66c-3.84,0-6.98-3.14-6.98-6.98V83.72C446.68,79.88,449.82,76.74,453.66,76.74z"/>
					</g>
					<g>
						<g>
							<path fill="#FFFFFF" d="M542.97,109.39c-3.38,0-6.13-2.75-6.13-6.13c0-3.38,2.75-6.13,6.13-6.13s6.13,2.75,6.13,6.13
								C549.1,106.64,546.35,109.39,542.97,109.39z M542.97,98.67c-2.53,0-4.59,2.06-4.59,4.59c0,2.53,2.06,4.59,4.59,4.59
								s4.59-2.06,4.59-4.59C547.56,100.73,545.5,98.67,542.97,98.67z"/>
							<path fill="#FFFFFF" d="M517.69,109.39c-3.38,0-6.13-2.75-6.13-6.13c0-3.38,2.75-6.13,6.13-6.13c3.38,0,6.13,2.75,6.13,6.13
								C523.82,106.64,521.07,109.39,517.69,109.39z M517.69,98.67c-2.53,0-4.59,2.06-4.59,4.59c0,2.53,2.06,4.59,4.59,4.59
								c2.53,0,4.59-2.06,4.59-4.59C522.27,100.73,520.22,98.67,517.69,98.67z"/>
							<path fill="#FFFFFF" d="M494.12,109.39c-3.38,0-6.13-2.75-6.13-6.13c0-3.38,2.75-6.13,6.13-6.13c3.38,0,6.13,2.75,6.13,6.13
								C500.25,106.64,497.5,109.39,494.12,109.39z M494.12,98.67c-2.53,0-4.59,2.06-4.59,4.59c0,2.53,2.06,4.59,4.59,4.59
								c2.53,0,4.59-2.06,4.59-4.59C498.7,100.73,496.65,98.67,494.12,98.67z"/>
						</g>
					</g>
				</g>
			</g>
		</g>
	</g>
	<g>
		<path fill="#FFFFFF" d="M144.44,12.38H341.4c3.97,0,7.18,3.22,7.18,7.18v290.1c0,13.69-11.09,24.78-24.78,24.78H187.05
			c-29.16,0-52.8-23.64-52.8-52.8V22.57C134.25,16.94,138.81,12.38,144.44,12.38z"/>
		<path opacity="0.39" fill="#6D6CD4" d="M136.75,12.38h207.98c2.13,0,3.85,1.72,3.85,3.85v294.59c0,13.05-10.58,23.63-23.63,23.63
			H182.36c-26.57,0-48.11-21.54-48.11-48.11V14.89C134.25,13.5,135.37,12.38,136.75,12.38z"/>
		<path opacity="0.39" fill="#3E479B" d="M154.99,12.38h190.56c1.68,0,3.05,1.36,3.05,3.05v296.2c0,12.6-10.22,22.82-22.82,22.82
			H200.59c-26.13,0-47.3-21.18-47.3-47.3V14.08C153.29,13.14,154.05,12.38,154.99,12.38z"/>
		<g>
			<path fill="#6161B5" d="M183.2,334.39v0.05h172.16c19.81,0,35.88-16.06,35.88-35.88v-13.63H217.13v13.63
				C217.13,317.73,202.11,333.38,183.2,334.39z"/>
		</g>
		<g opacity="0.28">
			<path fill="#3E479B" d="M206.02,334.39v0.05h153.27c17.64,0,31.94-16.06,31.94-35.88v-13.63h-155v13.63
				C236.23,317.73,222.86,333.38,206.02,334.39z"/>
		</g>
		<g>
			<path fill="#FFFFFF" d="M316.05,247.82H192.27c-0.85,0-1.54-0.69-1.54-1.54c0-0.85,0.69-1.54,1.54-1.54h123.78
				c0.85,0,1.54,0.69,1.54,1.54C317.6,247.13,316.91,247.82,316.05,247.82z"/>
			<path fill="#FFFFFF" d="M318.65,195.7H189.96c-0.85,0-1.54-0.69-1.54-1.54c0-0.85,0.69-1.54,1.54-1.54h128.69
				c0.85,0,1.54,0.69,1.54,1.54C320.19,195.01,319.5,195.7,318.65,195.7z"/>
			<path fill="#FFFFFF" d="M254.16,221.74H188.4c-0.85,0-1.54-0.69-1.54-1.54c0-0.85,0.69-1.54,1.54-1.54h65.76
				c0.85,0,1.54,0.69,1.54,1.54C255.71,221.04,255.01,221.74,254.16,221.74z"/>
			<path fill="#FFFFFF" d="M249.18,221.74h-55.8c-0.85,0-1.54-0.69-1.54-1.54c0-0.85,0.69-1.54,1.54-1.54h55.8
				c0.85,0,1.54,0.69,1.54,1.54C250.72,221.04,250.03,221.74,249.18,221.74z"/>
			<path fill="#FFFFFF" d="M275.57,139.97h-84.72c-0.85,0-1.54-0.69-1.54-1.54c0-0.85,0.69-1.54,1.54-1.54h84.72
				c0.85,0,1.54,0.69,1.54,1.54C277.11,139.28,276.42,139.97,275.57,139.97z"/>
			<path fill="#FFFFFF" d="M314.84,139.97h-25.81c-0.85,0-1.54-0.69-1.54-1.54c0-0.85,0.69-1.54,1.54-1.54h25.81
				c0.85,0,1.54,0.69,1.54,1.54C316.39,139.28,315.69,139.97,314.84,139.97z"/>
			<path fill="#FFFFFF" d="M318.65,166.01h-91.74c-0.85,0-1.54-0.69-1.54-1.54c0-0.85,0.69-1.54,1.54-1.54h91.74
				c0.85,0,1.54,0.69,1.54,1.54C320.19,165.32,319.5,166.01,318.65,166.01z"/>
			<path fill="#FFFFFF" d="M217.86,166.01h-27.9c-0.85,0-1.54-0.69-1.54-1.54c0-0.85,0.69-1.54,1.54-1.54h27.9
				c0.85,0,1.54,0.69,1.54,1.54C219.4,165.32,218.71,166.01,217.86,166.01z"/>
			<path fill="#FFFFFF" d="M316.05,117.93H192.27c-0.85,0-1.54-0.69-1.54-1.54c0-0.85,0.69-1.54,1.54-1.54h123.78
				c0.85,0,1.54,0.69,1.54,1.54C317.6,117.23,316.91,117.93,316.05,117.93z"/>
			<path fill="#FFFFFF" d="M316.05,65.81H192.27c-0.85,0-1.54-0.69-1.54-1.54c0-0.85,0.69-1.54,1.54-1.54h123.78
				c0.85,0,1.54,0.69,1.54,1.54C317.6,65.12,316.91,65.81,316.05,65.81z"/>
			<path fill="#FFFFFF" d="M237.7,91.84h-46.85c-0.85,0-1.54-0.69-1.54-1.54c0-0.85,0.69-1.54,1.54-1.54h46.85
				c0.85,0,1.54,0.69,1.54,1.54C239.24,91.15,238.55,91.84,237.7,91.84z"/>
			<path fill="#FFFFFF" d="M315.11,91.84h-55.8c-0.85,0-1.54-0.69-1.54-1.54c0-0.85,0.69-1.54,1.54-1.54h55.8
				c0.85,0,1.54,0.69,1.54,1.54C316.66,91.15,315.97,91.84,315.11,91.84z"/>
		</g>
	</g>
	<g>
		<g>
			<g>
				
					<ellipse transform="matrix(0.7071 -0.7071 0.7071 0.7071 -22.7941 351.173)" opacity="0.21" fill="#FFFFFF" cx="412.51" cy="203.1" rx="97.66" ry="97.66"/>
			</g>
			<g>
				<path opacity="0.76" fill="#FFFFFF" d="M335.97,210.12c-3.41,0-6.17-2.76-6.17-6.17c0-49.27,40.08-89.35,89.35-89.35
					c3.41,0,6.17,2.76,6.17,6.17c0,3.41-2.76,6.17-6.17,6.17c-42.46,0-77.01,34.55-77.01,77.01
					C342.15,207.36,339.38,210.12,335.97,210.12z"/>
			</g>
			<path opacity="0.58" fill="#3E479B" d="M412.51,303.85c-55.55,0-100.75-45.2-100.75-100.75c0-55.55,45.2-100.75,100.75-100.75
				c55.55,0,100.75,45.2,100.75,100.75C513.26,258.65,468.06,303.85,412.51,303.85z M412.51,108.52
				c-52.15,0-94.58,42.43-94.58,94.58s42.43,94.58,94.58,94.58s94.58-42.43,94.58-94.58S464.66,108.52,412.51,108.52z"/>
			<g>
				<g>
					<circle fill="none" cx="412.51" cy="203.1" r="97.66"/>
					<g>
						<path fill="#3E479B" d="M502.27,273.08c0.14-0.14,0.31-0.26,0.46-0.38c14.87-19.25,23.74-43.39,23.74-69.6
							c0-62.94-51.03-113.97-113.97-113.97S298.54,140.16,298.54,203.1c0,62.94,51.03,113.97,113.97,113.97
							c26.1,0,50.13-8.81,69.34-23.57l13.18-13.18L502.27,273.08z M412.51,300.77c-53.94,0-97.66-43.73-97.66-97.66
							c0-53.94,43.73-97.66,97.66-97.66s97.66,43.73,97.66,97.66C510.17,257.04,466.44,300.77,412.51,300.77z"/>
						<path fill="#3E479B" d="M412.51,318.61c-63.69,0-115.51-51.82-115.51-115.51c0-63.69,51.82-115.51,115.51-115.51
							c63.69,0,115.51,51.82,115.51,115.51c0,25.77-8.32,50.17-24.06,70.54l-0.29,0.29c-0.15,0.11-0.23,0.17-0.3,0.24l-20.58,20.56
							C462.45,310.35,438.14,318.61,412.51,318.61z M412.51,90.68c-61.99,0-112.43,50.43-112.43,112.43s50.43,112.43,112.43,112.43
							c24.92,0,48.54-8.02,68.32-23.19l20.35-20.35c0.14-0.15,0.3-0.27,0.46-0.39c15.24-19.8,23.29-43.48,23.29-68.49
							C524.93,141.11,474.5,90.68,412.51,90.68z M412.51,302.31c-54.7,0-99.21-44.5-99.21-99.21s44.5-99.21,99.21-99.21
							s99.21,44.5,99.21,99.21S467.21,302.31,412.51,302.31z M412.51,106.98c-53,0-96.12,43.12-96.12,96.12
							c0,53,43.12,96.12,96.12,96.12c53,0,96.12-43.12,96.12-96.12C508.63,150.1,465.51,106.98,412.51,106.98z"/>
					</g>
					<path fill="#4C65BA" d="M499.46,290.9l-4.42-4.42c-1.7-1.7-1.7-4.46,0-6.16l-13.18,13.18l-0.21,0.21c-1.7,1.7-1.7,4.46,0,6.16
						l5.36,5.36C488.77,302.28,493.95,296.47,499.46,290.9z"/>
					<path fill="#4C65BA" d="M495.04,280.31c-1.7,1.7-1.7,4.46,0,6.16l4.42,4.42c5.33-5.39,10.96-10.54,14.12-12.68l-5.14-5.14
						c-1.56-1.56-3.99-1.67-5.7-0.38c-0.16,0.12-0.32,0.23-0.46,0.38L495.04,280.31z"/>
					<path opacity="0.43" fill="#3E479B" d="M495.04,280.31c-1.7,1.7-1.7,4.46,0,6.16l4.42,4.42c5.33-5.39,10.96-10.54,14.12-12.68
						l-5.14-5.14c-1.56-1.56-3.99-1.67-5.7-0.38c-0.16,0.12-0.32,0.23-0.46,0.38L495.04,280.31z"/>
					<path fill="#599AF2" d="M596.26,358.39L516,277.26c-0.29-0.29-1.17,0.1-2.43,0.95c-3.16,2.14-8.78,7.29-14.12,12.68
						c-5.51,5.57-10.69,11.38-12.46,14.34c-0.58,0.97-0.8,1.63-0.55,1.89l80.26,81.13c8.16,8.25,21.39,8.25,29.55,0
						C604.42,380.01,604.42,366.64,596.26,358.39z"/>
				</g>
				<g>
					<g>
						<path opacity="0.14" fill="#3E479B" d="M596.26,358.39L516,277.26c-1.08-1.09-10.23,7.1-18.08,15.2
							c-6.68,6.89,90.18,104.05,98.34,95.8l0,0C604.42,380.01,604.42,366.64,596.26,358.39z"/>
					</g>
				</g>
			</g>
		</g>
		<g>
			<g>
				<path fill="#FFFFFF" stroke="#D8D8D8" stroke-miterlimit="10" d="M299.9,257.66H36.08c-15.41,0-27.91-12.49-27.91-27.91v0
					c0-15.41,12.49-27.91,27.91-27.91H299.9c15.41,0,27.91,12.49,27.91,27.91v0C327.8,245.17,315.31,257.66,299.9,257.66z"/>
				<path fill="#599AF2" d="M299.9,257.66h-42.91l-0.21-55.81h43.12c15.41,0,27.91,12.49,27.91,27.91v0
					C327.8,245.17,315.31,257.66,299.9,257.66z"/>
				<g>
					<path fill="#FFFFFF" d="M289.04,239.54c-6.73,0-12.21-5.48-12.21-12.21c0-6.73,5.48-12.21,12.21-12.21
						c6.73,0,12.21,5.48,12.21,12.21c0,3.26-1.27,6.33-3.58,8.63C295.36,238.27,292.3,239.54,289.04,239.54z M289.04,218.21
						c-5.03,0-9.12,4.09-9.12,9.12s4.09,9.12,9.12,9.12c2.44,0,4.73-0.95,6.45-2.67c1.72-1.72,2.67-4.01,2.67-6.45
						C298.16,222.3,294.07,218.21,289.04,218.21z"/>
					<path fill="#FFFFFF" d="M306.21,246.15c-0.39,0-0.79-0.15-1.09-0.45l-9.68-9.68c-0.6-0.6-0.6-1.58,0-2.18
						c0.6-0.6,1.58-0.6,2.18,0l9.68,9.68c0.6,0.6,0.6,1.58,0,2.18C307,246,306.6,246.15,306.21,246.15z"/>
				</g>
			</g>
		</g>
	</g>
	<g>
		<path fill="#F28393" d="M303.66,315.33H172.34c-9.19,0-16.64-7.45-16.64-16.64v-10.91c0-9.22-7.48-16.7-16.7-16.7H78.35
			c-9.22,0-16.7,7.48-16.7,16.7v43.11v49.56v80.67c0,8.59,6.96,15.56,15.56,15.56h226.45c8.59,0,15.56-6.96,15.56-15.56V330.88
			C319.21,322.29,312.25,315.33,303.66,315.33z"/>
		<path fill="#F28393" d="M289.19,315.33H157.87c-9.19,0-16.64-7.45-16.64-16.64v-10.91c0-9.22-7.48-16.7-16.7-16.7H63.88
			c-9.22,0-16.7,7.48-16.7,16.7v43.11v49.56v80.67c0,8.59,6.96,15.56,15.56,15.56h226.45c8.59,0,15.56-6.96,15.56-15.56V330.88
			C304.74,322.29,297.78,315.33,289.19,315.33z"/>
		<path opacity="0.12" fill="#FFFFFF" d="M289.19,315.33H157.87c-9.19,0-16.64-7.45-16.64-16.64v-10.91c0-9.22-7.48-16.7-16.7-16.7
			H63.88c-9.22,0-16.7,7.48-16.7,16.7v43.11v49.56v80.67c0,8.59,6.96,15.56,15.56,15.56h226.45c8.59,0,15.56-6.96,15.56-15.56
			V330.88C304.74,322.29,297.78,315.33,289.19,315.33z"/>
		<path opacity="0.12" fill="#FFFFFF" d="M255.88,315.33H142.64c-7.93,0-14.35-7.45-14.35-16.64v-10.91c0-9.22-6.45-16.7-14.4-16.7
			H61.58c-7.95,0-14.4,7.48-14.4,16.7v43.11v49.56v80.67c0,8.59,6.01,15.56,13.41,15.56h195.29c7.41,0,13.41-6.96,13.41-15.56
			V330.88C269.3,322.29,263.29,315.33,255.88,315.33z"/>
		<path fill="#FFFFFF" d="M59.31,332.66c-0.85,0-1.54-0.69-1.54-1.54v-37.87c0-5.86,4.77-10.64,10.64-10.64h44.7
			c0.85,0,1.54,0.69,1.54,1.54c0,0.85-0.69,1.54-1.54,1.54H68.4c-4.16,0-7.55,3.39-7.55,7.55v37.87
			C60.86,331.97,60.17,332.66,59.31,332.66z"/>
	</g>
</g>
</svg>
